SplineFontDB: 3.0
FontName: SpencerianCursive
FullName: Spencerian Cursive
FamilyName: Spencerian Cursive
Weight: Regular

StartChar: O
Encoding: 40 79 0
Width: 2867
VWidth: 0
Flags: HW
HStem: 2403.03 20.6357<1544.91 1808.35> 2499.64 2.76562<1592.53 1687.41>
VStem: 253.952 57.3438<715.513 1249.72> 2547.71 24.5762<1324.6 1645.49>
LayerCount: 6
Fore
SplineSet
1924 2458 m 3
 1216 2458 176 1869 176 866 c 3
 176 -742 2439 142 2439 1507 c 3
 2439 3101 44.1415435807 1924.5074655 432 477 c 1
 451 483 l 1
 70.7948227444 1901.94503882 2420 3070 2420 1507 c 3
 2420 195 234 -707.004608532 234 856 c 3
 234 1902 1256 2439 1924 2439 c 0
 1924 2458 l 3
EndSplineSet
EndChar

StartChar: A
Encoding: 26 65 1
Width: 3896
VWidth: 0
Flags: W
HStem: 0 21G<2278 2500.18> 2435 20G<3538.9 3892>
AnchorPoint: "Cursive 1" 3887 2450 entry 0
AnchorPoint: "Cursive 1" 2718 853 exit 0
LayerCount: 6
Back
Refer: 166 -1 S 1 0 0 1 2205 1639 2
Refer: 186 -1 N 1 0 0 1 404 0 2
Fore
SplineSet
3878 2455 m 1
 3892 2442 l 1
 3216.17773438 1691.42382812 2704.35171441 917.172031659 2296 0 c 1
 2278 8 l 1
 2687.55078125 927.8671875 3199.79940709 1701.78223234 3878 2455 c 1
EndSplineSet
Layer: 2
SplineSet
2279.89648438 0 m 1
 2686.52539062 925.155273438 3235.19433594 1751.49804688 3880.546875 2457.59960938 c 1
 3896.92675781 2457.59960938 l 1
 3255.2109375 1747.01855469 2707.9296875 921.624023438 2296.28710938 0 c 1
 2279.89648438 0 l 1
  Spiro
    3880.54 2457.6 v
    3896.92 2457.6 v
    2985.46 1269.76 o
    2296.28 0 v
    2279.89 0 v
    2963.84 1269.76 o
    0 0 z
  EndSpiro
3896.91992188 2457.59960938 m 5
 3440.27734375 2134.75195312 3040.48339844 1748.54980469 2681.24023438 1327.09960938 c 4
 2376.41503906 969.491210938 2116.79492188 566.670898438 1754.41992188 267.528320312 c 4
 1575.03417969 119.444335938 1365.4296875 4.3544921875 1117.35253906 4.3544921875 c 4
 725.938476562 4.3544921875 403.96484375 292.556640625 403.96484375 685.6171875 c 4
 403.96484375 1053.05273438 692.334960938 1289.71386719 1051.41015625 1289.71386719 c 4
 1427.45605469 1289.71386719 1699.6640625 1075.07324219 1869.11035156 840.967773438 c 5
 1860.91992188 832.776367188 l 5
 1685.13964844 1074.08691406 1417.62402344 1266.55078125 1059.40820312 1266.55078125 c 4
 703.52734375 1266.55078125 423.672851562 1039.8359375 423.672851562 683.5703125 c 4
 423.672851562 311.830078125 735.6171875 36.4560546875 1080.4296875 36.4560546875 c 4
 1349.21386719 36.4560546875 1551.3984375 181.829101562 1705.26953125 316.6796875 c 4
 2059.23144531 626.887695312 2348.00195312 1003.65039062 2664.84960938 1351.6796875 c 4
 3033.90234375 1757.05175781 3417.28027344 2149.25 3880.54003906 2457.59960938 c 5
 3896.91992188 2457.59960938 l 5
  Spiro
    3896.92 2457.6 v
    3298.91 1974.27 o
    2681.24 1327.1 o
    1754.42 267.528 o
    1156.41 5.384 o
    476.469 390.408 o
    460.085 939.272 o
    1377.59 1225.99 o
    1869.11 840.968 v
    1860.92 832.776 v
    1221.94 1250.57 o
    468.277 906.504 o
    550.197 308.488 o
    1033.53 38.152 o
    1705.27 316.68 o
    2664.85 1351.68 o
    3282.52 1990.66 o
    3880.54 2457.6 v
    0 0 z
  EndSpiro
2714.61914062 864.967773438 m 1
 2706.42675781 848.583984375 l 1
 2557.62988281 923.078125 2354.56152344 770.506835938 2463.45117188 615.368164062 c 0
 2512.0078125 546.184570312 2618.95996094 522.309570312 2717.08300781 558.967773438 c 0
 2837.28125 603.83203125 2930.07421875 711.03515625 2993.14746094 815.81640625 c 1
 3009.53125 815.81640625 l 1
 2945.29492188 708.584960938 2850.8984375 603.592773438 2730.53125 554.967773438 c 0
 2591.34179688 498.748046875 2427.33398438 552.782226562 2419.70703125 692.935546875 c 0
 2411.91503906 836.543945312 2575.94726562 921.998046875 2714.61914062 864.967773438 c 1
  Spiro
    2714.61 864.968 v
    2706.42 848.584 v
    2477.04 807.624 o
    2436.08 692.936 o
    2526.2 561.864 o
    2878.45 668.36 o
    2993.14 815.816 v
    3009.52 815.816 v
    2894.84 668.36 o
    2534.39 545.48 o
    2419.7 692.936 o
    2493.43 840.392 o
    0 0 z
  EndSpiro
EndSplineSet
MultipleSubs2: "'ccmp' [Uppercase]" A_M_N A A_H.P00
EndChar

StartChar: N
Encoding: 39 78 2
Width: 4096
VWidth: 0
Flags: HW
HStem: 16.3838 32.7686<700.563 975.319> 2437.6 20G<3278.81 3432.45>
VStem: 140.574 25.6934<574.053 818.98>
AnchorPoint: "Cursive 1" 3422 2450 entry 0
LayerCount: 6
Back
Refer: 166 -1 S 1 0 0 1 1740 1639 2
Fore
SplineSet
1955 110 m 0
 2100.14992863 508.796151335 2975.50197623 1851.70648408 3416 2458 c 1
 3431 2446 l 1
 2995.79972594 1842.03753015 2115.28144776 496.485486709 1973 102 c 0
 1936.21104791 0 1948.77425439 -8.60491382605 2018 80 c 0
 2717.10207508 974.809851043 3189.0103617 1309.25793274 3894 1638 c 1
 3901 1620 l 1
 3209.28855019 1297.52607058 2718.52950473 945.71935058 2032 67 c 0
 1952.08577782 -35.2857327009 1907.12402034 -21.5381730576 1955 110 c 0
EndSplineSet
MultipleSubs2: "'ccmp' [Uppercase]" A_M_N N
EndChar

StartChar: M
Encoding: 38 77 3
Width: 5062
VWidth: 0
Flags: HW
HStem: 16.3838 32.7686<700.563 975.319> 799.2 20G<4345.18 4382.72> 2437.6 20G<3278.81 3432.45 3826.18 4022.27>
VStem: 140.574 25.6934<574.053 818.98> 3059.53 13.9082<252.184 439.243>
AnchorPoint: "Cursive 1" 2884 279 exit 0
AnchorPoint: "Cursive 1" 3422 2450 entry 0
LayerCount: 6
Back
Refer: 239 -1 S 1 0 0 1 0 0 2
Refer: 166 -1 N 1 0 0 1 1740 1639 2
Fore
SplineSet
1955 110 m 0
 2100 509 2976 1852 3416 2458 c 1
 3431 2446 l 1
 2996 1842 2115 496 1973 102 c 0
 1936 0 1949 -9 2018 80 c 0
 2717 975 3271 1658 4335 2458 c 1
 4349 2445 l 1
 3856 1879 3123.90283207 819.328835573 2892 273 c 5
NamedP: "67 degree"
 2874 280 l 1
 3114.42077067 846.395841378 3787 1811 4276 2389 c 1
 3269 1609 2704 926 2032 67 c 0
 1952 -35 1907 -22 1955 110 c 0
EndSplineSet
Layer: 2
SplineSet
1955 110 m 4
 2100 509 2976 1852 3416 2458 c 5
 3431 2446 l 5
 2996 1842 2115 496 1973 102 c 4
 1936 0 1949 -9 2018 80 c 4
 2717 975 3271 1658 4335 2458 c 5
 4346 2443 l 5
 3295 1641 2719 946 2032 67 c 4
 1952 -35 1907 -22 1955 110 c 4
2874 281 m 5
 3123 871 3843 1891 4335 2458 c 5
 4349 2445 l 5
 3856 1879 3127 818 2892 273 c 5
 2874 281 l 5
EndSplineSet
MultipleSubs2: "'ccmp' [Uppercase]" A_M_N M M.P00
EndChar

StartChar: T
Encoding: 45 84 4
Width: 4628
VWidth: 0
Flags: HW
HStem: 16.3838 32.7686<831.024 1095.86> 2437.6 20G<4234.35 4308.99>
VStem: 263.148 26.1143<569.25 818.978> 1785.86 8.19141<1851.39 1882.3> 2025.18 18.0713<1871.39 2002.28> 2555.9 16.3838<2084.1 2231.41>
LayerCount: 6
Fore
SplineSet
3027 2089 m 5
 2204.49364905 1614.12573687 1760 689 1389 327 c 4
 1160.06102674 103.614802368 871.31005557 0 603 0 c 4
 -326.421863311 0 -356.001953125 1314 731 1314 c 4
 1127.24739747 1314 1351.42578125 1081.05566406 1513 933 c 5
 1500.00097656 919 l 5
 1331.9754715 1072.96700832 1087.03511063 1295 731 1295 c 4
 -330.00390625 1295 -286.036132812 26 603 26 c 4
 851.655273438 26 1133.32377487 140.820033389 1367.99998319 375.051583174 c 4
 1923 929 2207.70740173 1636.6 3019 2105 c 5
 3027 2089 l 5
4018 2458 m 1
 4027 2441 l 1
 3292.47189353 2016.92 3059 2439 2477 2439 c 0
 2384.61593286 2439 2288.89993656 2425.43444339 2199.05792521 2398.70539936 c 1
 2268.46646224 2346.21956415 2314 2256.33117645 2314 2126 c 0
 2314 1754.99902344 1760 1525 1760 1944 c 0
 1760 2179.79998657 1934.00762287 2332.03958433 2151.36279857 2405.69631974 c 1
 1938.06414501 2534.42832117 1528 2294.22774843 1528 1851 c 1
 1509 1851 l 1
 1509 2334.77055673 1946.79022719 2552.60311915 2176.67014198 2413.85989085 c 1
 2273.09548423 2443.42538011 2376.84761987 2458 2477 2458 c 0
 3052 2458 3299.42408146 2043.13 4018 2458 c 1
2173.26791358 2390.61543643 m 1
 1955.77580333 2318.80628207 1779 2167.95366595 1779 1944 c 0
 1779 1554.90625 2277 1782.94726562 2277 2126 c 0
 2277 2255.13963089 2236.03601771 2341.59869361 2173.26791358 2390.61543643 c 1
EndSplineSet
Layer: 2
SplineSet
4018 2458 m 5
 4027 2441 l 5
 3292.47189353 2016.92 3059 2439 2477 2439 c 7
 2149 2439 1779 2268.00195312 1779 1944 c 7
 1779 1554.90625 2277 1782.94726562 2277 2126 c 7
 2277 2678.20376674 1528 2450.02086775 1528 1851 c 7
 1509 1851 l 7
 1509 2507.00075872 2314 2674 2314 2126 c 7
 2314 1754.99902344 1760 1525 1760 1944 c 7
 1760 2292 2139 2458 2477 2458 c 7
 3052 2458 3299.42408146 2043.13 4018 2458 c 5
  Spiro
    4018 2458 v
    4027 2441 v
    3428.52 2252 o
    2973.85 2345.42 o
    2477 2439 o
    2150.57 2382.78 o
    1886.87 2216.11 o
    1779 1944 o
    1907.89 1742.05 o
    2148.11 1840.09 o
    2277 2126 o
    2083.15 2433.17 o
    1721.85 2310.93 o
    1528 1851 o
    1509 1851 o
    1717.35 2335.32 o
    2105.65 2443.94 o
    2314 2126 o
    2170.62 1821.04 o
    1903.38 1722.56 o
    1760 1944 o
    1870.57 2231.7 o
    2141.21 2402.19 o
    2477 2458 o
    2971.95 2365.94 o
    3427.39 2273.61 o
    0 0 z
  EndSpiro
3027 2089 m 5
 2204.49364905 1614.12573687 1760 689 1389 327 c 4
 1160.06102674 103.614802368 871.31005557 0 603 0 c 7
 -326.421863311 0 -356.001953125 1314 731 1314 c 7
 1127.24739747 1314 1351.42578125 1081.05566406 1513 933 c 5
 1500.00097656 919 l 5
 1331.9754715 1072.96700832 1087.03511063 1295 731 1295 c 7
 -330.00390625 1295 -286.036132812 26 603 26 c 7
 851.655273438 26 1133.32377487 140.820033389 1367.99998319 375.051583174 c 4
 1923 929 2207.70740173 1636.6 3019 2105 c 5
 3027 2089 l 5
EndSplineSet
EndChar

StartChar: F
Encoding: 31 70 5
Width: 4043
VWidth: 0
Flags: HW
HStem: 16.3838 32.7686<557.33 822.096> 2437.6 20G<3968.36 4043>
VStem: 1519.86 8.19141<1851.39 1882.3> 1759.19 18.0713<1871.39 2002.28> 2126.07 32.7676<942.08 972.811> 2289.91 16.3838<2084.1 2231.41>
LayerCount: 6
Fore
SplineSet
4018 2458 m 1
 4027 2441 l 1
 3292.47189353 2016.92 3059 2439 2477 2439 c 0
 2384.61593286 2439 2288.89993656 2425.43444339 2199.05792521 2398.70539936 c 1
 2268.46646224 2346.21956415 2314 2256.33117645 2314 2126 c 0
 2314 1754.99902344 1760 1525 1760 1944 c 0
 1760 2179.79998657 1934.00762287 2332.03958433 2151.36279857 2405.69631974 c 1
 1938.06414501 2534.42832117 1528 2294.22774843 1528 1851 c 1
 1509 1851 l 1
 1509 2334.77055673 1946.79022719 2552.60311915 2176.67014198 2413.85989085 c 1
 2273.09548423 2443.42538011 2376.84761987 2458 2477 2458 c 0
 3052 2458 3299.42408146 2043.13 4018 2458 c 1
2229 1090 m 2
 2224 1090 2160 969 2163 942 c 1
 2126 942 l 1
 2200.6144612 1071.33173275 l 1
 2095.47978135 1015.74610463 1996.56462411 989.69350606 1901.52921751 983.893311873 c 1
 1704.54765003 716.984798015 1540.6351876 474.95670596 1389 327 c 0
 1160.06102674 103.614802368 871.31005557 0 603 0 c 0
 -326.421863311 0 -356.001953125 1314 731 1314 c 0
 1189.72145412 1314 1502.65003994 984.745526481 1888.27564355 999.884137947 c 1
 2188.62015353 1397.43316038 2493.23072968 1801.44697025 3019 2105 c 1
 3027 2089 l 1
 2548.0221359 1812.46200122 2197.235633 1383.23508746 1914.5033168 1001.44349261 c 1
 2009.3342346 1009.00759548 2108.77814017 1037.94035859 2216 1098 c 1
 2229 1090 l 2
1875.36658181 982.798806956 m 1
 1486.29552782 973.939177807 1159.54708143 1295 731 1295 c 0
 -330.00390625 1295 -286.036132812 26 603 26 c 0
 851.655273438 26 1133.32377487 140.820033389 1367.99998319 375.051583174 c 0
 1558.17079945 564.862068589 1716.6068038 772.71264767 1875.36658181 982.798806956 c 1
2173.26791358 2390.61543643 m 1
 1955.77580333 2318.80628207 1779 2167.95366595 1779 1944 c 0
 1779 1554.90625 2277 1782.94726562 2277 2126 c 0
 2277 2255.13963089 2236.03601771 2341.59869361 2173.26791358 2390.61543643 c 1
EndSplineSet
Layer: 2
SplineSet
2229 1090 m 29
 2224 1090 2160 969 2163 942 c 13
 2126 942 l 5
 2216 1098 l 5
 2229 1090 l 29
  Spiro
    2229 1090 v
    2209.03 1057.69 o
    2177.64 992.305 o
    2163 942 v
    2126 942 v
    2216 1098 v
    0 0 z
  EndSpiro
4018 2458 m 5
 4027 2441 l 5
 3292.47189353 2016.92 3059 2439 2477 2439 c 7
 2149 2439 1779 2268.00195312 1779 1944 c 7
 1779 1554.90625 2277 1782.94726562 2277 2126 c 7
 2277 2678.20376674 1528 2450.02086775 1528 1851 c 7
 1509 1851 l 7
 1509 2507.00075872 2314 2674 2314 2126 c 7
 2314 1754.99902344 1760 1525 1760 1944 c 7
 1760 2292 2139 2458 2477 2458 c 7
 3052 2458 3299.42408146 2043.13 4018 2458 c 5
3027 2089 m 5
 2204.49364905 1614.12573687 1760 689 1389 327 c 4
 1160.06102674 103.614802368 871.31005557 0 603 0 c 7
 -326.421863311 0 -356.001953125 1314 731 1314 c 7
 1311.89838811 1314 1659 786 2216 1098 c 5
 2222 1083 l 5
 1662 768 1280.04784663 1295 731 1295 c 7
 -330.00390625 1295 -286.036132812 26 603 26 c 7
 851.655273438 26 1133.32377487 140.820033389 1367.99998319 375.051583174 c 4
 1923 929 2207.70740173 1636.6 3019 2105 c 5
 3027 2089 l 5
EndSplineSet
EndChar

StartChar: K
Encoding: 36 75 6
Width: 1313
VWidth: 0
Flags: HW
HStem: 0 8.19238<2241.85 2346.5> 1129.84 6.13574<2131.04 2203.48> 1302.53 8.19141<2076.64 2119.43> 2449.41 8.19141<3466.16 3596>
VStem: 25.9824 25.9688<569.36 818.968>
AnchorPoint: "Cursive 1" 2299 277 exit 0
LayerCount: 6
Back
Refer: 229 -1 S 1 0 0 1 358 0 2
Refer: 145 -1 N 1 0 0 1 1227 0 2
Fore
SplineSet
3811 2439 m 0
 3811 2458 l 3
 2875 2458 3045.0336438 1215 2515 1215 c 3
 2257 1215 2239 1358 2322 1358 c 3
 2677 1358 2361 579 2289 277 c 1
 2308 273 l 1
 2381.8125 569.046875 2707 1377 2322 1377 c 3
 2219 1377 2220 1196 2515 1196 c 3
 3065.93012261 1196 2890 2439 3811 2439 c 0
2884 2114 m 1
 2167 1261 1267 525 238 0 c 1
 229 17 l 1
 1251 538 2158 1278 2869 2126 c 1
 2884 2114 l 1
2884 2114 m 1
 2418 1333 l 2
 2154 888 1703 -3 917 -3 c 3
 473 -3 244 384 244 674 c 3
 244 1428 1316 1571 1732 851 c 1
 1715 841 l 1
 1309 1545 264 1408 264 673 c 3
 264 402 477 32 917 32 c 3
 1549 32 2075 823 2400 1352 c 2
 2867 2123 l 1
 2884 2114 l 1
EndSplineSet
Layer: 2
SplineSet
2315 1281 m 3
 2209.92382812 1281 2182 1159 2383 1159 c 3
 3111 1159 2892 2439 3811 2439 c 0
 3811 2458 l 3
 2875 2458 3087 1178 2383 1178 c 3
 2224 1178 2229.99414062 1260 2314 1260 c 3
 2508.0234375 1260 2593.13183594 863.655273438 2034 148 c 9
 2049 136 l 17
 2616.4921875 862.356445312 2528.03710938 1281 2315 1281 c 3
2884 2114 m 1
 2167 1261 1267 525 238 0 c 1
 229 17 l 1
 1251 538 2158 1278 2869 2126 c 1
 2884 2114 l 1
2884 2114 m 1
 2418 1333 l 2
 2154 888 1703 -3 917 -3 c 3
 473 -3 244 384 244 674 c 3
 244 1428 1316 1571 1732 851 c 1
 1715 841 l 1
 1309 1545 264 1408 264 673 c 3
 264 402 477 32 917 32 c 3
 1549 32 2075 823 2400 1352 c 2
 2867 2123 l 1
 2884 2114 l 1
EndSplineSet
MultipleSubs2: "'ccmp' [Uppercase]" K K_R_X.P00
EndChar

StartChar: H
Encoding: 33 72 7
Width: 4636
VWidth: 0
Flags: HW
HStem: 0 21G<2326.53 2354> 782.816 20G<3055.9 3088.38> 853.656 14.7197<2642.62 2758.17> 2437.6 20G<4116.3 4300.8>
VStem: 263.839 25.9688<569.36 818.968>
AnchorPoint: "Cursive 1" 2801 853 exit 0
LayerCount: 6
Back
Refer: 186 -1 S 1 0 0 1 487 0 2
Fore
SplineSet
4284 2440 m 5
 3616 2143 3222 1590 2876 965 c 6
 2343 0 l 5
 2326 9 l 5
 2859 975 l 6
 3202 1599 3608 2161 4276 2458 c 5
 4284 2440 l 5
486 154 m 5
 326 293 244 501 244 674 c 4
 244 1391 1215 1556 1667 950 c 5
 2110 1306 2514 1703 2869 2126 c 5
 2884 2114 l 5
 2418 1333 l 6
 2154 888 1703 -3 917 -3 c 4
 747 -3 608 54 502 141 c 5
 415 93 327 45 238 0 c 5
 229 17 l 5
 315 61 401 107 486 154 c 5
1651 938 m 5
 1209 1531 264 1372 264 673 c 4
 264 506 345 300 511 168 c 5
 913 393 1294 653 1651 938 c 5
1678 934 m 5
 1697 908 1715 880 1732 851 c 5
 1715 841 l 5
 1699 869 1681 896 1663 922 c 5
 1308 638 929 380 528 155 c 5
 628 80 758 32 917 32 c 4
 1549 32 2075 823 2400 1352 c 5
 2806 2023 l 5
 2467 1631 2089 1265 1678 934 c 5
EndSplineSet
Layer: 2
SplineSet
4284 2440 m 1
 3616 2143 3222 1590 2876 965 c 1
 2343 0 l 1
 2326 9 l 1
 2859 975 l 1
 3202 1599 3608 2161 4276 2458 c 1
 4284 2440 l 1
  Spiro
    4284 2440 v
    3699.47 2064.93 o
    3245.97 1558.63 o
    2876 965 v
    2343 0 v
    2326 9 v
    2859 975 v
    3229.96 1570.25 o
    3688.48 2080.64 o
    4276 2458 v
    0 0 z
  EndSpiro
2884 2114 m 5
 2167 1261 1267 525 238 0 c 5
 229 17 l 5
 1250.76173161 537.613605576 2157.63980811 1278.23393569 2869 2126 c 5
 2884 2114 l 5
2884 2114 m 5
 2418 1333 l 6
 2154 888 1702.59276982 -3 917 -3 c 7
 472.989864981 -3 244 383.915529544 244 674 c 7
 244 1428 1316.295 1571.02218096 1732 851 c 5
 1715 841 l 5
 1308.5 1545.07865328 264 1408 264 673 c 7
 264 402.44131875 476.862521478 32 917 32 c 7
 1549.01269531 32 2074.61081293 823.242571005 2400 1352 c 6
 2867 2123 l 5
 2884 2114 l 5
EndSplineSet
MultipleSubs2: "'ccmp' [Uppercase]" H A_H.P00
EndChar

StartChar: P
Encoding: 41 80 8
Width: 2925
VWidth: 0
Flags: HW
HStem: 16.3838 32.7686<752.334 1036.27> 1261.57 8.19141<2260.99 2283.49>
LayerCount: 6
Fore
SplineSet
2157 1196 m 0
 2712 1196 3043 1675 2962 2043 c 1
 2994 2060 3028 2077 3062 2094 c 1
 3051 2110 l 1
 3019 2094 2987 2078 2957 2062 c 1
 2899 2282 2690 2458 2288 2458 c 0
 758 2458 -426 0 524 0 c 0
 825 0 1235 215 1632 694 c 0
 1762 851 1872 1027 2005 1208 c 1
 2048 1201 2098 1196 2157 1196 c 0
2938 2052 m 1
 2461 1797 2182 1509 1967 1236 c 1
 1849 1265 1798 1315 1783 1329 c 1
 1770 1315 l 1
 1783 1304 1831 1251 1954 1219 c 1
 1818 1045 1707 878 1584 730 c 0
 1192 259 810 19 524 19 c 0
 -390 19 781 2439 2288 2439 c 0
 2679 2439 2883 2267 2938 2052 c 1
2943 2033 m 1
 3019 1677 2699 1215 2157 1215 c 0
 2104 1215 2058 1219 2018 1225 c 1
 2221 1499 2481 1785 2943 2033 c 1
EndSplineSet
Layer: 2
SplineSet
2157 1196 m 7
 3057.98639804 1196 3366.3665071 2458 2288 2458 c 7
 757.860428981 2458 -426.213513697 0 524 0 c 7
 825 0 1235 215 1632 694 c 4
 1978 1112 2184 1667 3062 2094 c 5
 3051 2110 l 5
 2168 1676 1917 1131 1584 730 c 4
 1192 259 810 19 524 19 c 7
 -389.69156708 19 780.813530511 2439 2288 2439 c 7
 3332.00047893 2439 3040.00056625 1215 2157 1215 c 7
 1898.76561035 1215 1804 1309 1783 1329 c 13
 1770 1315 l 21
 1789.24511719 1300 1876.98392903 1196 2157 1196 c 7
EndSplineSet
EndChar

StartChar: B
Encoding: 27 66 9
Width: 2925
VWidth: 0
Flags: HW
HStem: -122.332 10.9229<1175.84 1319.89> 16.3838 32.7686<375.96 659.955> 1219.7 14.2236<1970.6 2152.58> 1327.1 8.19238<1350.7 1360.33>
VStem: 713.16 32.7676<293.858 631.687> 1866.55 13.959<1287.15 1340.11>
LayerCount: 6
Fore
SplineSet
3062 2094 m 5
 2184 1667 1978 1112 1632 694 c 4
 1235 215 825 0 524 0 c 7
 -426.213513697 0 757.860428981 2458 2288 2458 c 7
 3366.3665071 2458 3057.98639804 1195.99999624 2157 1196 c 7
 1862 1196 1861 1377 1964 1377 c 7
 2012.76474136 1377 2197.36425781 1323.57128906 2197.36425781 914 c 7
 2197.36425781 359.995117188 1702.01974693 -271 1069 -271 c 7
 172 -271 432 924 1315 1176 c 5
 1320 1157 l 5
 421 894 234 -252 1069 -252 c 7
 1696 -252 2177.56445312 375.873046875 2177.56445312 914 c 7
 2177.56445312 1277.18457031 2030.70832032 1358 1964 1358 c 7
 1880.78341511 1358 1898.76561035 1215 2157 1215 c 7
 3040.00056625 1215 3332.00047893 2439 2288 2439 c 7
 780.813530511 2439 -389.69156708 19 524 19 c 7
 810 19 1192 259 1584 730 c 4
 1917 1131 2168 1676 3051 2110 c 5
 3062 2094 l 5
EndSplineSet
Layer: 2
SplineSet
2938.06593189 2052.09550424 m 1
 2882.88750406 2267.07590042 2679.2716378 2439 2288 2439 c 0
 780.813530511 2439 -389.69156708 19 524 19 c 0
 532.049235806 19 540.174512726 19.1901027837 548.373913573 19.5701077151 c 1
 398.558319884 390.130827599 711.055088388 1003.63973077 1315 1176 c 1
 1320 1157 l 1
 701.78961032 976.144235277 420.27153996 377.733248702 576.252980862 21.5663707786 c 1
 855.66551482 48.4919573632 1215.41217135 287.130440569 1584 730 c 0
 1710.33115012 882.128502093 1824.86055364 1054.9820226 1966.57314976 1234.63736894 c 1
 1870.63872286 1287.79869206 1891.69246633 1377 1964 1377 c 0
 1981.53358462 1377 2016.62781754 1370.09276434 2054.38794418 1342.20723734 c 1
 2257.958862 1582.49277275 2522.51704185 1829.83689126 2938.06593189 2052.09550424 c 1
1978.37903286 1249.53956872 m 1
 1999.20335345 1275.71032537 2020.62493071 1302.01670637 2042.76354344 1328.41593359 c 1
 2013.30724855 1350.16624738 1984.76910532 1358 1964 1358 c 0
 1907.40452779 1358 1897.6169252 1291.85764781 1978.37903286 1249.53956872 c 1
2126.8829175 1215.68070252 m 1
 2111.15848863 1251.40342677 2092.98941724 1278.87054877 2074.19439467 1299.69685978 c 1
 2056.56918886 1277.04710191 2039.4099732 1254.44263866 2022.6351446 1231.91010155 c 1
 2050.76305358 1223.52266174 2085.26779685 1217.60995383 2126.8829175 1215.68070252 c 1
2148.12751795 1215.05705545 m 0
 2151.05295461 1215.01916641 2154.0103767 1215 2157 1215 c 0
 2699.30940938 1215 3018.69304818 1676.69347111 2942.56132801 2032.96704285 c 1
 2530.10941867 1811.51964976 2279.34654953 1560.59730546 2085.65268611 1314.34324782 c 1
 2107.95487761 1290.69257163 2129.775288 1258.53759006 2148.12751795 1215.05705545 c 0
2155.66793458 1196.00123263 m 1
 2180.52190108 1128.93270293 2197.36425781 1037.71309052 2197.36425781 914 c 0
 2197.36425781 359.995117188 1702.01974693 -271 1069 -271 c 0
 795.99052756 -271 630.158624663 -160.30233742 556.448725722 0.814337504087 c 1
 545.498871042 0.270716061061 534.680812148 7.78821451775e-14 524 0 c 0
 -426.213513697 0 757.860428981 2458 2288 2458 c 0
 2690.25291313 2458 2899.54785278 2282.39981433 2957.10365008 2062.20441371 c 1
 2987.58888502 2078.27500156 3018.87620857 2094.21095642 3051 2110 c 1
 3062 2094 l 1
 3027.54217207 2077.24203585 2994.11938153 2060.28692172 2961.6825448 2043.15067626 c 1
 3042.44787132 1675.30972228 2712.26036864 1195.99999768 2157 1196 c 0
 2156.55531035 1196 2156.11128876 1196.00123263 2155.66793458 1196.00123263 c 1
2134.82969199 1196.35266751 m 1
 2084.46828448 1197.98330987 2043.45919803 1205.16792341 2010.69701884 1215.80040391 c 1
 1874.93483552 1031.76920503 1763.59276338 852.97622859 1632 694 c 0
 1261.19813698 246.609339078 879.055409665 29.5254608092 584.978146356 2.82287267818 c 1
 659.850372803 -148.77563166 818.397566662 -252 1069 -252 c 0
 1696 -252 2177.56445312 375.873046875 2177.56445312 914 c 0
 2177.56445312 1038.67489935 2160.25850645 1130.07461163 2134.82969199 1196.35266751 c 1
EndSplineSet
EndChar

StartChar: R
Encoding: 43 82 10
Width: 5062
VWidth: 0
Flags: HW
HStem: 8.61914 13.4951<2750.37 2875.73> 16.3838 32.7686<752.336 1036.27> 799.2 20G<3516.78 3563.52> 1219.66 14.1182<2346.94 2528.94>
VStem: 2242.94 13.9756<1287.15 1340.11> 2532.15 12.252<250.19 281.866 300.984 466.128>
AnchorPoint: "Cursive 1" 1941 276 exit 0
LayerCount: 6
Back
Refer: 229 -1 S 1 0 0 1 0 0 2
Fore
SplineSet
1931 277 m 5
 2003 579 2319 1358 1964 1358 c 7
 1881 1358 1899 1215 2157 1215 c 7
 3040 1215 3332 2439 2288 2439 c 3
 781 2439 -390 19 524 19 c 3
 810 19 1192 259 1584 730 c 0
 1917 1131 2168 1676 3051 2110 c 1
 3062 2094 l 1
 2184 1667 1978 1112 1632 694 c 0
 1235 215 825 0 524 0 c 3
 -426 0 758 2458 2288 2458 c 3
 3366 2458 3058 1196 2157 1196 c 7
 1862 1196 1861 1377 1964 1377 c 7
 2349 1377 2023.81278957 569.046929044 1950 273 c 5
 1931 277 l 5
EndSplineSet
MultipleSubs2: "'ccmp' [Uppercase]" R K_R_X.P00
EndChar

StartChar: G
Encoding: 32 71 11
Width: 4628
VWidth: 0
Flags: HW
HStem: 16.3838 32.7686<831.012 1095.76> 622.592 16.3838<1318.9 1490.51>
VStem: 263.199 26.1348<569.264 818.977> 2658.13 8.21582<2321.86 2380.92>
LayerCount: 6
Fore
SplineSet
1253.47452792 779.072439188 m 1
 976.051195388 546.429029369 682.802941433 333.729362227 377.502494944 150.321713507 c 1
 484.391759886 73.5832723366 624.853537498 26 797 26 c 0
 1046 26 1327 141 1562 375 c 0
 1811.31450979 623.404602815 2005.15766307 902.442641312 2217.35677208 1177.46047879 c 1
 1715.78029216 745.292072984 1392.30029724 663.832532773 1253.47452792 779.072439188 c 1
1270.12345855 793.073920364 m 1
 1411.16328541 681.359600495 1749.04732691 780.027661771 2281 1259 c 1
 2296 1247 l 1
 2005 883 1783 523 1583 327 c 0
 1354 104 1065 0 797 0 c 0
 612.523365596 0 463.496303285 51.8139463063 351.625812794 134.863878898 c 1
 272.527125835 87.8802595195 192.630129251 42.8718001988 112 0 c 1
 102 20 l 1
 179.807862445 61.3711743196 256.763871505 104.534699418 332.840996379 149.380090603 c 1
 -95.3791476642 493.735410334 66.1667630566 1314 925 1314 c 0
 1043.30702998 1314 1146.16691643 1293.09900596 1236.59829688 1259.87038472 c 1
 1350.90538005 1551.07034214 1626.32246662 1917.59836436 2067.9999876 2238.49586701 c 0
 2685.34852031 2687.02583063 2750.82788407 2383.66173361 2401 1952 c 0
 2149.63340543 1641.83221486 1870.14403134 1339.03418341 1568.14047054 1057.50318631 c 1
 1619.61291461 1013.87417415 1665.26690021 970.576651835 1707 933 c 1
 1694 919 l 1
 1650.92422886 957.785598547 1604.9227133 1001.16478167 1553.9350675 1044.29187922 c 1
 1461.37458199 958.41133245 1366.71726322 874.539573654 1270.12345855 793.073920364 c 1
1255.66240157 805.943331609 m 1
 1352.30255199 887.088461059 1446.940389 970.672648216 1539.49864252 1056.38006222 c 1
 1457.61107957 1124.23460533 1362.85016839 1190.33613866 1247.1409211 1235.6936911 c 1
 1174.05842041 1041.03241223 1177.11844713 884.3424126 1255.66240157 805.943331609 c 1
1239.26183067 792.211892936 m 1
 1157.87412934 875.904296453 1154.14073429 1039.89339735 1229.84663266 1242.25852581 c 1
 1141.40374446 1274.74031163 1040.9273986 1295 925 1295 c 0
 81.8853722266 1295 -63.471361273 493.683468024 358.466887198 164.569140331 c 1
 667.280132534 348.614451603 961.485823233 560.311269684 1239.26183067 792.211892936 c 1
1553.73258567 1069.59241716 m 1
 1854.08249489 1349.06105331 2132.39117925 1650.81918838 2386 1964 c 0
 2722.05708882 2378.99594342 2675.24552485 2655.55612938 2079 2222.35839844 c 0
 1641.28074051 1904.33674109 1366.93016137 1539.87960821 1253.91769622 1253.29878495 c 1
 1373.59680846 1206.44573205 1471.07543918 1138.22446987 1553.73258567 1069.59241716 c 1
EndSplineSet
Layer: 2
SplineSet
2281 1259 m 21
 2043 958 1836 648 1562 375 c 4
 1327 141 1046 26 797 26 c 7
 -92 26 -136 1295 925 1295 c 7
 1310.04675041 1295 1524.63729427 1071.49486519 1694 919 c 5
 1707 933 l 5
 1543.93173095 1079.82732895 1321 1314 925 1314 c 7
 -162 1314 -132 0 797 0 c 7
 1065 0 1354 104 1583 327 c 4
 1783 523 2005 883 2296 1247 c 5
 2281 1259 l 21
102 20 m 5
 986.713488045 490.410505911 1761.29252742 1192.55051844 2386 1964 c 4
 2722.05708882 2378.99594342 2675.24552485 2655.55612938 2079 2222.35839844 c 4
 828.259726696 1313.64239839 911.384086645 25.7922924806 2281 1259 c 5
 2294 1245 l 5
 904.490099667 -6.1203338516 787.301814999 1308.01417908 2067.9999876 2238.49586701 c 4
 2685.34852031 2687.02583063 2750.82788407 2383.66173361 2401 1952 c 4
 1781.02638641 1186.99841774 989.976597911 466.828437887 112 0 c 5
 102 20 l 5
  Spiro
    102 20 v
    947.723 561.031 o
    1713.53 1222.38 o
    2386 1964 o
    2588.2 2311.43 o
    2498.02 2440.11 o
    2079 2222.36 o
    1271.49 1295.52 o
    1342.48 758.606 o
    2281 1259 v
    2294 1245 v
    1333.78 739.615 o
    1248.98 1290.21 o
    2068 2238.5 o
    2506.19 2459.47 o
    2607.28 2317.52 o
    2401 1952 o
    1727.84 1210.38 o
    957.074 542.941 o
    112 0 v
    0 0 z
  EndSpiro
EndSplineSet
EndChar

StartChar: S
Encoding: 44 83 12
Width: 4688
VWidth: 0
Flags: HW
HStem: 0 21G<616.576 837.857>
VStem: 855.721 25.6328<574.093 818.976>
LayerCount: 6
Fore
SplineSet
2376 1070 m 1
 1937 720 1380 355 797 136 c 1
 901 68 1034 26 1195 26 c 0
 1444 26 1726 140 1960 375 c 0
 2156 572 2260 803 2376 1070 c 1
2392 1108 m 1
 2515 1391 2659 1714 2946 2081 c 0
 3439 2712 3777 2517 3129 1772 c 0
 2979 1599 2729 1356 2415 1102 c 1
 2279 785 2175 516 1981 327 c 0
 1752 104 1463 0 1195 0 c 0
 1019 0 875 47 765 124 c 1
 628 74 490 32 352 0 c 1
 347 19 l 1
 480 50 614 90 746 138 c 1
 299 475 454 1314 1323 1314 c 0
 1719 1314 1943 1081 2105 933 c 1
 2092 919 l 1
 1924 1073 1679 1295 1323 1295 c 0
 467 1295 330 468 777 149 c 1
 1377 372 1948 750 2392 1108 c 1
2432 1140 m 1
 2732 1385 2970 1620 3115 1786 c 0
 3468 2192 3495 2389 3448 2430 c 0
 3400 2471 3212 2391 2961 2069 c 0
 2703 1739 2554 1421 2432 1140 c 1
EndSplineSet
Layer: 2
SplineSet
2961 2069 m 4
 2396.88769531 1346.96972656 2352.36035156 688.629882812 1981 327 c 4
 1752 104 1463 0 1195 0 c 7
 266 0 236 1314 1323 1314 c 7
 1719 1314 1943 1081 2105 933 c 5
 2092 919 l 5
 1924 1073 1679 1295 1323 1295 c 7
 262 1295 306 26 1195 26 c 7
 1444 26 1725.92382812 140.076171875 1960 375 c 4
 2371.24902344 787.737304688 2372.26464844 1346.65234375 2946 2081 c 4
 3439.17675781 2712.23730469 3776.65527344 2517.04199219 3129 1772 c 4
 2712.96679688 1293.40820312 1536.58105469 273.482421875 352 0 c 5
 347 19 l 5
 1533.69921875 292.970703125 2703.83691406 1313.01074219 3115 1786 c 4
 3467.89550781 2191.95996094 3495 2389 3447.54101562 2430 c 4
 3399.72363281 2471.30957031 3212.35644531 2390.72167969 2961 2069 c 4
EndSplineSet
EndChar

StartChar: L
Encoding: 37 76 13
Width: 5593
VWidth: 0
Flags: HW
HStem: 0 8.19238<2447.89 2520.47>
VStem: 1982.46 49.1523<366.068 700.37> 3203.63 11.5137<508.947 691.324>
AnchorPoint: "Cursive 1" 646 114 exit 0
LayerCount: 6
Back
Refer: 240 -1 S 1 0 0 1 0 0 2
Fore
SplineSet
646 124 m 3
 507.985508007 124 461 0 646 0 c 3
 897 0 1297.36328125 79.865234375 1631.75 416 c 0
 2349 1137 2702.76269531 2435 3059 2435 c 3
 3295.03417969 2435 3064.66718259 1386.50666473 489 17 c 9
 498 0 l 1
 3096.89453125 1381.85644531 3340.04492188 2454 3059 2454 c 3
 2557.70507812 2454 2013.0234375 19 646 19 c 3
 477.98828125 19 543.995098157 105 646 105 c 3
 646 124 l 3
EndSplineSet
MultipleSubs2: "'ccmp' [Uppercase]" L L_Q.P00
EndChar

StartChar: X
Encoding: 49 88 14
Width: 5593
VWidth: 0
Flags: HW
HStem: 0 21G<909.081 964.001 1504.67 1599.07> 799.2 20G<3556.47 3593.63> 2437.6 20G<3899.29 4011.42>
AnchorPoint: "Cursive 1" 1941 276 exit 0
LayerCount: 6
Back
Refer: 229 -1 S 1 0 0 1 0 0 2
Fore
SplineSet
1931 277 m 1
 2054.96386719 813.946289062 2929 1989 3926 2452 c 257
 3933 2436 l 257
 2971 1976 2070.35546875 794.317382812 1950 273 c 1
NamedP: "77 degree"
 1931 277 l 1
EndSplineSet
Refer: 225 -1 S 1 0 0 1 -18 0 2
MultipleSubs2: "'ccmp' [Uppercase]" X K_R_X.P00
EndChar

StartChar: W
Encoding: 48 87 15
Width: 6455
VWidth: 0
Flags: W
HStem: 0 19<907 2307> 1239 19<3859.98 3978> 2013 20G<3203.5 3272.5>
AnchorPoint: "Cursive 1" 910 9 entry 0
LayerCount: 6
Back
Refer: 226 -1 S 1 0 0 1 0 0 2
Fore
SplineSet
3443 2033 m 1
 3102 1383 2801 724 2540 7 c 1
 2558 0 l 1
 2884 613 3299 1239 3978 1239 c 1
 3978 1258 l 1
 3334 1258 2926 707 2605 127 c 1
 2912 949 3273 1698 3689 2449 c 1
 3672 2458 l 1
 3164 1578 2547 552 907 19 c 1
 912 0 l 1
 2307 452 2964 1259 3443 2033 c 1
EndSplineSet
Layer: 2
SplineSet
2558 0 m 5
 2883.87304688 612.876953125 3299.17871094 1239 3978 1239 c 4
 3978 1258 l 7
 3290 1258 2871.3203125 630.2421875 2541 9 c 5
 2558 0 l 5
  Spiro
    2558 0 v
    2922.5 598.282 o
    3382.48 1056.93 o
    3978 1239 o
    3978 1258 o
    3373.6 1072.59 o
    2907.07 608.367 o
    2541 9 v
    0 0 z
  EndSpiro
3689 2449 m 5
 3672 2458 l 5
 3234.44921875 1668.63867188 2857.86328125 880.322265625 2540 7 c 5
 2558 0 l 5
 2875.25097656 871.639648438 3251.30859375 1659.38476562 3689 2449 c 5
912 0 m 5
 2560 534 3177.96484375 1563.86132812 3689 2449 c 5
 3672 2458 l 5
 3164.20019531 1578.46484375 2546.62143409 551.745298302 907 19 c 5
 912 0 l 5
EndSplineSet
MultipleSubs2: "'ccmp' [Uppercase]" X_W W
EndChar

StartChar: Z
Encoding: 51 90 16
Width: 4096
VWidth: 0
Flags: W
HStem: -1 21G<1249.5 1303> 799 20G<3396 3678>
LayerCount: 6
Fore
SplineSet
1289 -1 m 1
 1210 221 1101 569 1156 977 c 0
 1199 1293 1311 1602 1496 1862 c 0
 1681 2122 1943 2336 2251 2422 c 0
 2613 2523 2937 2412 3128 2213 c 0
 3325 2008 3408 1676 3298 1334 c 0
 3136 828 2633 329 2200 82 c 0
 1966 -52 1838 5 2108 208 c 0
 2541 533 2883 294 2679 -72 c 0
 2385 -598 1838 -1191 1540 -1481 c 0
 1231 -1782 1220 -1624 1389 -1356 c 0
 1966 -442 3072 279 3678 818 c 1
 3695 819 l 1
 3097 278 1983 -450 1401 -1368 c 0
 1228 -1641 1253 -1753 1556 -1442 c 0
 1841 -1150 2355 -606 2662 -66 c 4
 2867 294 2506 508 2105 188 c 0
 1883 11 1958 -41 2212 106 c 0
 2627 347 3091 848 3247 1334 c 0
 3350 1654 3304 2004 3113 2195 c 0
 2934 2375 2628 2504 2253 2400 c 0
 1951 2316 1695 2106 1514 1851 c 0
 1333 1596 1213 1277 1171 967 c 0
 1115 554 1221 222 1303 0 c 1
 1289 -1 l 1
EndSplineSet
Validated: 37
EndChar

StartChar: Q
Encoding: 42 81 17
Width: 5593
VWidth: 0
Flags: HW
HStem: 0 8<1399.1 1781.23> 2465 8<2281.57 2436.61>
VStem: 1097 5<780.064 955.591> 3185 36<1406.74 1451 1584 1768.01>
AnchorPoint: "Cursive 1" 646 114 exit 0
LayerCount: 6
Back
Refer: 240 -1 S 1 0 0 1 0 0 2
Fore
SplineSet
646 124 m 3
 507.985351562 124 514 0 644 0 c 3
 1406.80338227 0 2025.92089844 610.57421875 2363.87304688 1023 c 0
 3407 2296 2290.40625 3124.49511719 1197 1724.99902344 c 0
 768.801757812 1176.9296875 657.405976166 482.666933582 760 0 c 1
 779 4 l 1
 677.466796875 481.678710938 792.891601562 1176.84472656 1211 1711.99902344 c 0
 2280.48242188 3080.87402344 3355 2288 2324 1056 c 0
 1986.93066406 653.216796875 1382.03319709 19 644 19 c 3
 539.995192419 19 543.995117188 105 646 105 c 0
 646 124 l 3
EndSplineSet
MultipleSubs2: "'ccmp' [Uppercase]" Q L_Q.P00
EndChar

StartChar: C
Encoding: 28 67 18
Width: 2812
VWidth: 0
Flags: HW
HStem: -1 21G<338 555.5> 557 21G<1395 1439>
VStem: 1395 16<557 575.052>
LayerCount: 6
Fore
SplineSet
1417 545 m 1
 1547.86035156 1218.21972656 2414 1340 2414 735 c 0
 2414 -9.88110452708 1236 -372 1236 550 c 0
 1236 607.42832809 1241.14014432 668.140159744 1251.97266587 731.998000233 c 1
 963.141417592 478.079546058 653.843016066 238.058080851 338 0 c 1
 326 15 l 1
 648.565601815 258.125046958 964.031978291 503.29794738 1257.61897236 762.927979913 c 1
 1339.55491561 1182.37306007 1663.23575407 1732.45781402 2378 2376 c 0
 2500 2486 2638 2516 2513 2271 c 0
 2218.3613083 1692.79463425 1793.56578425 1215.61215873 1307.03768991 780.803205958 c 1
 1283.85722089 691.358831337 1273 614.104610397 1273 552 c 0
 1273 -358 2395 30 2395 735 c 0
 2395 1315 1562.40807514 1191.94818636 1436 542 c 1
 1417 545 l 1
1316.45758845 815.42613831 m 1
 1792.80335631 1244.30698687 2207.68706593 1714.27672181 2496 2280 c 0
 2611 2505 2496 2457 2390 2361 c 0
 1748.63680567 1783.30153452 1425.42584655 1198.18981307 1316.45758845 815.42613831 c 1
EndSplineSet
Layer: 2
SplineSet
1417 545 m 5
 1547.86035156 1218.21972656 2414 1340 2414 735 c 7
 2414 -9.88110452708 1236 -372 1236 550 c 7
 1236 988 1535 1617 2378 2376 c 4
 2500 2486 2638 2516 2513 2271 c 4
 2034 1331 1211 658 338 0 c 5
 326 15 l 21
 1199 673 2020 1346 2496 2280 c 4
 2611 2505 2496 2457 2390 2361 c 4
 1574 1626 1273 879 1273 552 c 7
 1273 -358 2395 30 2395 735 c 7
 2395 1315 1562.40807514 1191.94818636 1436 542 c 5
 1417 545 l 5
EndSplineSet
EndChar

StartChar: D
Encoding: 29 68 19
Width: 4430
VWidth: 0
Flags: HW
HStem: 1636 2<2144 2570>
LayerCount: 6
Fore
SplineSet
1699 819 m 17
 1936 1804 2981.96739227 2438 3534 2438 c 3
 4658.21605059 2438 3998.08789062 19 2354 19 c 3
 1631.74292456 19 1765 819 1379 819 c 3
 690 819 328.354953324 -1191.65363235 1541 1089 c 1
 1524 1098 l 1
 995.821750682 104.641188088 815.451889402 -0.981304212726 780.831054688 19 c 0
 689 72 974.749023438 800 1379 800 c 3
 1743 800 1616 0 2354 0 c 3
 4027 0 4698.20788522 2458 3534 2458 c 3
 2833.51730928 2458 1924 1858 1680 819 c 1
 1699 819 l 17
EndSplineSet
EndChar

StartChar: E
Encoding: 30 69 20
Width: 2400
VWidth: 0
Flags: HW
HStem: 2449 9<1476.03 1822>
LayerCount: 6
Fore
SplineSet
2224 2458 m 3
 1890 2458 1709 2198 1709 2019 c 3
 1709 1732 2040 1927 2040 2193 c 3
 2040 2650 1252 2481.09472656 1252 1952 c 3
 1252 1586.97851562 1586 1526.82617188 1586 1599 c 3
 1586 1627 1539 1659 1463 1659 c 7
 984 1659 280 1261 280 582 c 7
 280 -506 1811 92 1811 1016 c 7
 1811 2095 192 1299 453 319 c 5
 472 323 l 5
 218 1268 1792 2062 1792 1016 c 7
 1792 128 323 -460.0234375 323 573 c 7
 323 1281 1010.86621094 1640 1463 1640 c 7
 1528 1640 1567 1617 1567 1599 c 3
 1567 1561 1271 1606.99414062 1271 1952 c 3
 1271 2454.00097656 2021 2626 2021 2193 c 3
 2021 1974 1741 1762 1741 2019 c 3
 1741 2188 1900 2439 2224 2439 c 0
 2224 2458 l 3
EndSplineSet
EndChar

StartChar: I
Encoding: 34 73 21
Width: 2267
VWidth: 0
Flags: W
VStem: 828 19<0 262.489>
LayerCount: 6
Fore
SplineSet
828 0 m 1
 847 0 l 1
 843 117 850 237 868 360 c 1
 1293 683 1656 1157 1952 1714 c 0
 2450 2651 2105 2692 1515 1897 c 0
 1203 1476 937 926 854 396 c 1
 633 224 407 96 185 18 c 1
 191 0 l 1
 423 75 642 192 846 344 c 1
 830 228 824 112 828 0 c 1
877 414 m 1
 964 935 1227 1480 1530 1885 c 0
 2114 2664 2417 2633 1934 1724 c 0
 1641 1172 1269 725 877 414 c 1
EndSplineSet
Layer: 2
SplineSet
828 0 m 5
 847 0 l 5
 825.029921661 629.140727965 1144.76496361 1370.90113102 1530 1885 c 4
 2113.83355997 2664.12999728 2417.33975275 2633.02986475 1934 1724 c 4
 1470.01186507 851.365235026 808 238 185 18 c 5
 191 0 l 5
 918 234 1509.35404231 881.504032597 1952 1714 c 4
 2450.02012852 2650.63963598 2104.67487685 2692 1515 1897 c 4
 1124.21897208 1370.14879879 805.656295226 639.839989182 828 0 c 5
EndSplineSet
EndChar

StartChar: J
Encoding: 35 74 22
Width: 3761
VWidth: 0
Flags: HW
VStem: 3624.6 16<0 43.3771>
AnchorPoint: "Cursive 1" 828.601 -1620 exit 0
LayerCount: 6
Back
Refer: 144 -1 S 1 0 0 1 1482.6 0 2
Fore
SplineSet
822.600585938 -1627 m 5
 884.600585938 -1667 1043.60058594 -1598 1262.60058594 -1373 c 0
 1489.02246094 -1140.375 1617.39648438 -933.286132812 1764.60058594 -744 c 2
 2635.60058594 376 l 2
 2915.60058594 736 3409.60058594 1413 3569.60058594 1714 c 0
 4067.60058594 2651 3707.60058594 2692 3117.60058594 1897 c 0
 2726.60058594 1370 2278.60058594 513 2327.60058594 -187 c 1
 2346.60058594 -186 l 1
 2298.60058594 503 2747.60058594 1371 3132.60058594 1885 c 0
 3716.60058594 2664 4034.60058594 2633 3551.60058594 1724 c 0
 3387.60058594 1415 2904.60058594 749 2621.60058594 389 c 2
 1745.60058594 -728 l 2
 1592.60058594 -924 1444.54003906 -1131 1234.60058594 -1345 c 0
 1004.62011719 -1579.42871094 877.600585938 -1640 834.600585938 -1612 c 9
 831 -1613 l 25
 822 -1624 l 25
 822.600585938 -1627 l 5
EndSplineSet
Layer: 2
SplineSet
822.600585938 -1627 m 1
 757.600585938 -1585 803.600585938 -1418 1013.60058594 -1153 c 0
 1426.60058594 -632 2261.60058594 73 3665.60058594 819 c 1
 3674.60058594 802 l 1
 2270.60058594 56 1441.60058594 -645 1028.60058594 -1165 c 0
 833.600585938 -1410 779.600585938 -1577 834.600585938 -1612 c 1
 822.600585938 -1627 l 1
2621.60058594 389 m 2
 1745.60058594 -728 l 2
 1592.60058594 -924 1444.54003906 -1131 1234.60058594 -1345 c 0
 1004.62011719 -1579.42871094 877.600585938 -1640 834.600585938 -1612 c 1
 822.600585938 -1627 l 1
 884.600585938 -1667 1043.60058594 -1598 1262.60058594 -1373 c 0
 1489.02246094 -1140.375 1617.39648438 -933.286132812 1764.60058594 -744 c 2
 2635.60058594 376 l 2
 2915.60058594 736 3409.60058594 1413 3569.60058594 1714 c 0
 4067.60058594 2651 3707.60058594 2692 3117.60058594 1897 c 0
 2726.60058594 1370 2278.60058594 513 2327.60058594 -187 c 1
 2346.60058594 -186 l 1
 2298.60058594 503 2747.60058594 1371 3132.60058594 1885 c 0
 3716.60058594 2664 4034.60058594 2633 3551.60058594 1724 c 0
 3387.60058594 1415 2904.60058594 749 2621.60058594 389 c 2
EndSplineSet
Refer: 132 -1 N 1 0 0 1 1482.6 0 2
MultipleSubs2: "'ccmp' [Uppercase]" J P9206
EndChar

StartChar: U
Encoding: 46 85 23
Width: 4096
VWidth: 0
Flags: W
HStem: 0 21G<1221 1376> 799 20G<4031 4121>
VStem: 2351 25<1750.55 2027.85>
LayerCount: 6
Fore
SplineSet
3228 1638 m 1
 2968 1067 2831 755 2771 557 c 0
 2552 -166 3146 -66 3703 385 c 0
 3841 497 3966 645 4096 819 c 1
 4121 819 l 1
 3993 636 3869 492 3736 382 c 0
 3195 -66 2491 -240 2749 573 c 0
 2815 780 2952 1102 3195 1638 c 1
 3228 1638 l 1
1352 0 m 1
 1090 344 983 613 935 995 c 0
 889 1366 998 1991 1457 2295 c 0
 1967 2633 2402 2407 2376 1868 c 0
 2368 1696 2307 1312 2122 967 c 0
 2044 822 1880 580 1821 426 c 0
 1632 -68 2008 -66 2327 221 c 4
 2663 523 2906 1036 3203 1638 c 1
 3236 1638 l 1
 2950 1045 2683 504 2351 205 c 4
 2020 -93 1597 -93 1788 434 c 0
 1843 586 1990 844 2064 983 c 0
 2252 1335 2347 1695 2351 1851 c 0
 2368 2440 1918 2571 1458 2261 c 0
 1032 1974 909 1371 958 991 c 0
 1013 561 1114 369 1376 0 c 1
 1352 0 l 1
EndSplineSet
Validated: 37
EndChar

StartChar: Y
Encoding: 50 89 24
Width: 4096
VWidth: 0
Flags: W
HStem: 0 21G<1221 1376> 799 20G<3088.5 3473>
VStem: 2351 25<1750.55 2027.85>
LayerCount: 6
Fore
SplineSet
3473 819 m 5
 2711 327 2101 -193 1558 -803 c 4
 647 -1827 852 -1909 1666 -918 c 4
 2275 -176 2744 573 3203 1638 c 13
 3228 1638 l 21
 2777 573 2315 -165 1695 -918 c 4
 811 -1991 632 -1810 1540 -778 c 4
 2071 -174 2736 360 3441 819 c 13
 3473 819 l 5
1352 0 m 1
 1090 344 983 613 935 995 c 0
 889 1366 998 1991 1457 2295 c 0
 1967 2633 2402 2407 2376 1868 c 0
 2368 1696 2307 1312 2122 967 c 0
 2044 822 1880 580 1821 426 c 0
 1632 -68 2008 -66 2327 221 c 0
 2663 523 2906 1036 3203 1638 c 1
 3236 1638 l 1
 2950 1045 2683 504 2351 205 c 0
 2020 -93 1597 -93 1788 434 c 0
 1843 586 1990 844 2064 983 c 0
 2252 1335 2347 1695 2351 1851 c 0
 2368 2440 1918 2571 1458 2261 c 0
 1032 1974 909 1371 958 991 c 0
 1013 561 1114 369 1376 0 c 1
 1352 0 l 1
EndSplineSet
Validated: 37
EndChar

StartChar: V
Encoding: 47 86 25
Width: 4096
VWidth: 0
Flags: W
HStem: 0 21G<1221 1376>
VStem: 2351 25<1750.55 2027.85>
LayerCount: 6
Fore
SplineSet
1352 0 m 1
 1090 344 983 613 935 995 c 0
 889 1366 998 1991 1457 2295 c 0
 1967 2633 2402 2407 2376 1868 c 0
 2368 1696 2307 1312 2122 967 c 0
 2044 822 1875 581 1821 426 c 0
 1647 -74 2077 -108 2324 336 c 0
 2432 530 2656 1007 2892 1270 c 0
 3031 1426 3236 1564 3424 1630 c 1
 3457 1630 l 1
 3252 1540 3056 1419 2925 1270 c 0
 2695 1009 2472 558 2343 319 c 4
 2090 -150 1606 -82 1788 434 c 0
 1842 586 1990 844 2064 983 c 0
 2252 1335 2347 1695 2351 1851 c 0
 2368 2440 1918 2571 1458 2261 c 0
 1032 1974 909 1371 958 991 c 0
 1013 561 1114 369 1376 0 c 1
 1352 0 l 1
EndSplineSet
Validated: 33
EndChar

StartChar: P000
Encoding: 80 -1 52
Width: 1467
VWidth: 0
Flags: HW
HStem: 0 21G<0 169.5> 799 20G<1339.5 1467>
AnchorPoint: "Cursive 1" 1448 812 exit 0
LayerCount: 6
Back
Refer: 145 -1 S 1 0 0 1 1283 0 2
Fore
SplineSet
38 19 m 1
 634 116 1180 588 1442 819 c 1
 1454 804 l 1
 1191 572 641 97 41 0 c 1
 38 19 l 1
EndSplineSet
Substitution2: "Substitute with nulls" null1
Comment: "It is for initial part of 'r' and 's'."
Colour: 5bfff
EndChar

StartChar: P101
Encoding: 82 -1 53
Width: 1433
VWidth: 0
Flags: HW
HStem: 798 21<1102.77 1371>
AnchorPoint: "Cursive 1" 912 819 entry 0
AnchorPoint: "cursive 2" 610 647 entry 0
AnchorPoint: "Cursive 1" 1396 814 exit 0
LayerCount: 6
Back
Refer: 162 -1 N 1 0 0 1 -2 0 2
Fore
SplineSet
1371 798 m 1
 1165 526 790 236 569 127 c 0
 49 -130 101 126 314 374 c 0
 662 779 1083 806 1371 798 c 1
1413 819 m 1
 969 819 663 803 296 384 c 0
 73 129 27 -162 578 108 c 0
 809 221 1182 516 1413 819 c 1
EndSplineSet
Comment: "It is one of part of 'a'."
Colour: bdbdbd
EndChar

StartChar: P001
Encoding: 83 -1 54
Width: 1425
VWidth: 0
Flags: HW
HStem: 784 19<1341.32 1425>
AnchorPoint: "Cursive 1" 1425 795 exit 0
LayerCount: 6
Fore
SplineSet
19 0 m 1
 160 234 511 703 1425 784 c 1
 1425 803 l 1
 502 718 150 254 3 8 c 1
 19 0 l 1
EndSplineSet
Substitution2: "Substitute with nulls" null1
Comment: "It was for initial part of glyphs like 'a'."
Colour: 129eff
EndChar

StartChar: P102
Encoding: 84 -1 55
Width: 344
VWidth: 0
Flags: W
HStem: 148 659
AnchorPoint: "Cursive 1" 110 143 exit 0
AnchorPoint: "Cursive 1" 635 814 entry 0
LayerCount: 6
Back
Refer: 142 -1 S 1 0 0 1 525 671 2
Refer: 142 -1 N 1 0 0 1 0 0 2
Refer: 141 -1 N 1 0 0 1 0 0 2
Fore
SplineSet
102 146 m 25
 115 136 l 25
 117 136 l 1
 642 807 l 1
 627 819 l 1
 102 148 l 1
 102 146 l 25
EndSplineSet
Comment: "It is one of parts of glyphs like 'a'."
Colour: bdbdbd
EndChar

StartChar: P103
Encoding: 85 -1 56
Width: 1214
VWidth: 0
Flags: HW
HStem: 819 807
AnchorPoint: "Cursive 1" 110 143 exit 0
AnchorPoint: "Cursive 1" 635 814 entry 0
LayerCount: 6
Back
Refer: 142 -1 S 1 0 0 1 525 671 2
Refer: 142 -1 N 1 0 0 1 0 0 2
Refer: 142 -1 N 1 0 0 1 1166 1490 2
Fore
SplineSet
102 146 m 25
 115 136 l 25
 117 136 l 1
 1283 1626 l 1
 1268 1638 l 1
 102 148 l 1
 102 146 l 25
EndSplineSet
Comment: "It is one of parts of 'd'."
Colour: d9d9d9
EndChar

StartChar: P9200
Encoding: 86 -1 57
Width: 2590
VWidth: 0
Flags: HW
AnchorPoint: "Cursive 1" -654 -1620 exit 0
AnchorPoint: "Cursive 1" 1415 814 entry 0
LayerCount: 6
Back
Refer: 142 -1 S 1 0 0 1 1305 671 2
Refer: 144 -1 S 1 0 0 1 0 0 2
Fore
SplineSet
-648 -1612 m 1
 -606.066471603 -1639.23195175 -460.26438672 -1592.11748694 -232.000022127 -1386.58732989 c 0
 -79.1277000776 -1248.94047285 108.041664406 -1039.45009523 321 -735 c 2
 1407 819 l 1
 1422 807 l 1
 337 -746 l 2
 132.045705741 -1039.16722311 -57.4849036307 -1255.57115401 -219 -1401 c 0
 -436.800885451 -1597.10879811 -598.315779728 -1667.05820103 -660 -1627 c 9
 -660 -1624 l 25
 -650 -1612 l 29
 -648 -1612 l 1
EndSplineSet
Comment: "it is one of parts of glyphs like 'g'."
Colour: bd8582
EndChar

StartChar: P9100
Encoding: 87 -1 58
Width: 2225
VWidth: 0
Flags: W
HStem: 800 19<1369.43 1408>
AnchorPoint: "Cursive 1" 1413 812 exit 0
AnchorPoint: "Cursive 1" 634 812 entry 0
LayerCount: 6
Back
Refer: 142 -1 N 1 0 0 1 1090 397 2
Refer: 142 -1 N 1 0 0 1 311 397 2
Refer: 137 -1 N 1 0 0 1 0 0 2
Fore
SplineSet
626 819 m 25
 -590 -737 l 2
 -784 -984 -657.068328601 -1082.14530491 -439 -782 c 0
 39.4571953661 -123.460166579 580.76148747 654.13553076 1408 800 c 1
 1405 819 l 1
 567.539182993 671.333062676 24.2338369702 -111.767593037 -454 -770 c 0
 -557.723037115 -912.762513022 -642.403343532 -959.988564113 -660 -947.817382812 c 0
 -678.569261205 -934.97347436 -659.745224838 -856.909058135 -577 -751 c 10
 641 807 l 1
 626 819 l 25
  Spiro
    626 819 v
    -590 -737 ]
    -685.528 -925.023 o
    -618.047 -958.558 o
    -439 -782 o
    68.1236 -112.236 o
    668.472 471.849 o
    1408 800 v
    1405 819 v
    657.773 488.168 o
    53.8619 -98.9612 o
    -454 -770 o
    -549.51 -882.172 o
    -621.878 -938.882 o
    -660 -947.817 o
    -665.132 -914.67 o
    -639.378 -846.16 o
    -577 -751 [
    641 807 v
    0 0 z
  EndSpiro
EndSplineSet
Substitution2: "* +- [t]" P9103
Substitution2: "* +- [b, f, h, k, l]" P9103
Substitution2: "* +- [a, d, g, q]" P9101
Substitution2: "* +- [o]" P9107
Substitution2: "* +- [p, r, s]" P9102
Substitution2: "* +- [m, n, v, x, y, z] - 1" P9106
Substitution2: "* +- [c]" P9105
Substitution2: "* +- [e]" P9104
Comment: "It is one of parts of 'q'."
Colour: ff1c3b
EndChar

StartChar: P104
Encoding: 88 -1 59
Width: 665
VWidth: 0
Flags: W
HStem: 12 795
AnchorPoint: "Cursive 1" 634 814 entry 0
AnchorPoint: "Cursive 1" 3 7 exit 0
LayerCount: 6
Back
Refer: 142 -1 S 1 0 0 1 -107 -136 2
Refer: 142 -1 S 1 0 0 1 524 671 2
Fore
SplineSet
-5 12 m 25
 10 0 l 1
 641 807 l 25
 626 819 l 1
 -5 12 l 25
EndSplineSet
Comment: "It is one of parts of glyphs like 'h'."
Colour: bdbdbd
EndChar

StartChar: P105
Encoding: 89 -1 60
Width: 1803
VWidth: 0
Flags: HW
VStem: -492 515
AnchorPoint: "Cursive 1" 890 143 exit 0
AnchorPoint: "Cursive 1" 21 7 entry 0
LayerCount: 6
Back
Refer: 142 -1 S 1 0 0 1 -89 -136 2
Refer: 165 -1 N 1 0 0 1 0 0 2
Refer: 142 -1 N 1 0 0 1 780 0 2
Fore
SplineSet
1143 756 m 0
 1333.99987404 833.168958244 1409.55 817.37 1275 650 c 2
 882 148 l 1
 882 146 l 25
 895 136 l 25
 897 136 l 1
 1293 643 l 2
 1440.22 826.59 1345.91578324 859.21550787 1135 774 c 0
 787.723287272 633.691100436 340.438980485 286.82725392 16 15 c 1
 28 0 l 1
 352.802843882 272.541946507 798.087606101 616.646347249 1143 756 c 0
EndSplineSet
Substitution2: "* +- [m, n, v, x, y, z] - 4" P105.4
Substitution2: "* +- [m, n, v, x, y, z] - 3" P105.3
Substitution2: "* +- [m, n, v, x, y, z] - 2" P105.2
Substitution2: "* +- [m, n, v, x, y, z] - 1" P105.1
Comment: "It is default initial part of glyphs like 'm'."
Colour: 3d8fbd
EndChar

StartChar: P106
Encoding: 90 -1 61
Width: 1742
VWidth: 0
Flags: W
AnchorPoint: "Cursive 1" 1724 812 entry 0
AnchorPoint: "Cursive 1" 1095 10 exit 0
LayerCount: 6
Back
Refer: 142 -1 S 1 0 0 1 1401 397 2
Fore
SplineSet
1716 819 m 1
 438 -814 l 2
 -275.395076202 -1725.56037515 -21 -1952 551 -1128 c 0
 916 -602 1102 8 1102 8 c 1
 1088 11 l 1
 1088 11 877.178710938 -632.807617188 536.209960938 -1119 c 0
 262 -1510 74.763671875 -1645.30664062 32 -1614.68847656 c 0
 -11.2736753946 -1583.70515743 60.5740058633 -1327.79657199 454 -825 c 2
 1731 807 l 1
 1716 819 l 1
-5051 279 m 1049
EndSplineSet
Comment: "It is one of parts of 'f'."
Colour: c9c9c9
EndChar

StartChar: P107
Encoding: 91 -1 63
Width: 1526
VWidth: 0
Flags: HW
AnchorPoint: "Cursive 1" 634 814 exit 0
AnchorPoint: "Cursive 1" 632 812 entry 0
LayerCount: 6
Back
Refer: 145 -1 N 1 0 0 1 467 0 2
Refer: 142 -1 S 1 0 0 1 524 671 2
Fore
SplineSet
1498 1901 m 2
 1828.01519871 2322.64002146 2088.91829146 2468.76441674 2130.99999843 2431.76935809 c 0
 2166 2401 2068 2188 1708 1797 c 0
 1337.43212442 1394.52211292 1049 1187 700 882 c 1
 1498 1901 l 2
626 817 m 1
 636 804 l 1
 638 804 l 5
NamedP: "41 degree"
 1033 1147 1334.13582907 1360.87544989 1722 1784 c 0
 2536 2672 2056.21015622 2644.26820636 1484 1914 c 2
 1484 1914 912 1184 626 819 c 1
 626 817 l 1
EndSplineSet
Comment: "It is one parts of glyphs like 'h'."
Colour: bdbdbd
EndChar

StartChar: P9500
Encoding: 92 -1 64
Width: 903
VWidth: 0
Flags: W
AnchorPoint: "Cursive 1" 727 812 exit 0
AnchorPoint: "Cursive 1" 79 781 entry 0
LayerCount: 6
Back
Refer: 139 -1 N 1 0 0 1 0 0 2
Fore
SplineSet
71 776 m 1
 87 787 l 5
 178 639 315 653 724 819 c 5
 731 801 l 1
 314 632 169 619 71 776 c 1
EndSplineSet
Substitution2: "* +- [a, d, g, q]" P9504
Substitution2: "* +- [c]" P9503
Substitution2: "* +- [e]" P9502
Substitution2: "* +- [p, r, s]" P9507
Substitution2: "* +- [m, n, v, x, y, z] - 1" P9501
Substitution2: "* +- [o]" P9514
Substitution2: "* +- [b, f, h, k, l]" P9506
Comment: "It is final part of glyph like b without any glyph after it."
Colour: ff2938
EndChar

StartChar: P109
Encoding: 93 -1 65
Width: 1456
VWidth: 0
Flags: HW
HStem: 722 20G<766.65 767.078> 819 21G<293.917 361.453 858.3 887.3>
AnchorPoint: "Cursive 1" 110 143 exit 0
AnchorPoint: "Cursive 1" 903 811 entry 0
LayerCount: 6
Back
Refer: 166 -1 S 1 0 0 1 -779 0 2
Refer: 142 -1 N 1 0 0 1 0 0 2
Refer: 141 -1 N 1 0 0 1 0 0 2
Fore
SplineSet
619 711 m 0
 867 917.977610319 1059 802 904 666 c 0
 767 546 621 644 897 819 c 1
 908 803 l 5
NamedP: "147.5 degree"
 773 717 750 658 764 640 c 0
 778 622 839 635 890 679 c 0
 1026 797 855.684977391 883.693982028 632 696 c 0
 457.341866969 549.444424991 265.374415553 325.910591619 117 136 c 9
 112 137 l 25
 102 145 l 25
 102 148 l 17
 254.21614316 342.827778722 442.686750613 563.851229735 619 711 c 0
EndSplineSet
Comment: "It is one of parts of 'c'."
Colour: bdbdbd
EndChar

StartChar: P002
Encoding: 95 -1 66
Width: 1237
VWidth: 0
Flags: W
HStem: 0 819
VStem: 30 1189
AnchorPoint: "Cursive 1" 1213 812 exit 0
LayerCount: 6
Back
Refer: 145 -1 S 1 0 0 1 1048 0 2
Fore
SplineSet
1219 804 m 17
 801 472 522 270 30 0 c 1
 21 17 l 17
 545 312 797 491 1207 819 c 1
 1219 804 l 17
EndSplineSet
Substitution2: "Substitute with nulls" null1
Comment: "It is initial part of glyphs like 'h'."
Colour: 59cff
EndChar

StartChar: P111
Encoding: 96 -1 67
Width: 937
VWidth: 0
Flags: HW
HStem: 410 21G<0 61.1143 86.2471 170.247>
AnchorPoint: "Cursive 1" 110 143 exit 0
AnchorPoint: "Cursive 1" 423 418 entry 0
LayerCount: 6
Back
Refer: 142 -1 S 1 0 0 1 205 262 2
Refer: 143 -1 N 1 0 0 1 0 0 2
Refer: 142 -1 N 1 0 0 1 0 0 2
Refer: 141 -1 N 1 0 0 1 0 0 2
Fore
SplineSet
717 607 m 0
 622.033259405 535.955801216 525.890191739 471.16858067 428 410 c 13
NamedP: "32 degree"
 426 410 l 25
 417 425 l 25
 418 427 l 1
 517.781338994 489.35030063 599.143312761 542.809080276 705 622 c 0
 814.70019782 704.066232997 843.329340777 780.853649644 830 797.081054688 c 0
 814.13173717 816.399394025 611.376164687 768.772635146 117 136 c 9
 113 136 l 25
 102 144 l 25
 102 148 l 17
 846.950385144 1101.49301186 1006.06402491 823.247519064 717 607 c 0
EndSplineSet
Comment: "It is one of parts of 'e'."
Colour: bdbdbd
EndChar

StartChar: P003
Encoding: 97 -1 68
Width: 929
VWidth: 0
Flags: HW
HStem: 0 21G<0 169.5> 390 20G<878.5 929>
VStem: 0 929
AnchorPoint: "Cursive 1" 423 418 exit 0
LayerCount: 6
Back
Refer: 143 -1 N 1 0 0 1 0 0 2
Refer: 141 -1 N 1 0 0 1 0 0 2
Fore
SplineSet
418 427 m 5
 428 410 l 1
 72 177 -145.284132337 95.5168781234 -460 0 c 1
 -466 18 l 1
 -150.265625 115.419921875 62 193 418 427 c 5
EndSplineSet
Substitution2: "Substitute with nulls" null2
Comment: "It is initial part of e."
Colour: 1f96ff
EndChar

StartChar: P112
Encoding: 98 -1 69
Width: 1494
VWidth: 0
Flags: HW
HStem: 0 21G<0 251>
VStem: 1479 18<848.92 926.984>
AnchorPoint: "Cursive 1" 1023 812 exit 0
AnchorPoint: "Cursive 1" 2 5 entry 0
LayerCount: 6
Back
Refer: 142 -1 S 1 0 0 1 700 397 2
Refer: 142 -1 N 1 0 0 1 -321 -410 2
Fore
SplineSet
1030 807 m 1
 1216 644 1464 753 1464 885 c 0
 1464 997 1301.92295045 1068.13667764 1040 946 c 4
 807.985206519 837.809724994 477 623 9 0 c 9
 -6 12 l 1
 465 638 797.172590945 853.964488471 1031 963 c 0
 1302.98296689 1089.82774035 1483 1017.03408651 1483 885 c 0
 1483 733 1211 620 1017 793 c 1
 1030 807 l 1
EndSplineSet
Comment: "It is one parts of 'k'."
Colour: b5b5b5
EndChar

StartChar: P113
Encoding: 99 -1 70
Width: 693
VWidth: 0
Flags: HW
AnchorPoint: "Cursive 1" 630 781 exit 0
AnchorPoint: "Cursive 1" 560 819 entry 0
LayerCount: 6
Back
SplineSet
319 432 m 25
 319 387 l 1049
190 530 m 25
 190 485 l 1049
448 332 m 25
 448 287 l 1049
91 585 m 25
 527 250 l 1049
EndSplineSet
Refer: 152 -1 S 1 0 0 1 6 0 2
Refer: 139 -1 N 1 0 0 1 0 0 2
Fore
SplineSet
190 511 m 0
 51 334 -64.197258172 108.032392613 28 36 c 0
 118.148430213 -34.4316727773 309 135 448 312 c 0
 587 489 700.045215158 713.430253288 611 783 c 0
 521.954784842 852.569746712 329 688 190 511 c 0
174 521 m 0
 327 716 521 878 623 798 c 0
 725 718 616 494 463 299 c 0
 310 104 117 -59 15 21 c 0
 -87 101 21 326 174 521 c 0
  Spiro
    174 521 o
    335.575 697.109 o
    495.408 805.132 o
    623 798 o
    660.872 676.564 o
    595.043 497.064 o
    463 299 o
    301.684 122.632 o
    142.333 14.1267 o
    15 21 o
    -23.1307 142.695 o
    42.2158 322.677 o
    0 0 z
  EndSpiro
EndSplineSet
Comment: "It is one parts of 'o'."
Colour: bdbdbd
EndChar

StartChar: P114
Encoding: 100 -1 71
Width: 1950
VWidth: 0
Flags: HW
HStem: -967 21G<-790 -749.363> 819 21G<413 515>
AnchorPoint: "Cursive 1" 0 0 exit 0
AnchorPoint: "Cursive 1" 442 812 entry 0
LayerCount: 6
Back
Refer: 145 -1 S 1 0 0 1 277 0 2
Refer: 137 -1 N 1 0 0 1 0 0 2
Fore
SplineSet
448 804 m 5
NamedP: "41 degree"
 601.077744157 937.06845285 827 1126 1090 1412 c 1
 -762 -952 l 1
 -742 -967 l 1
 1285 1625 l 1
 1266 1638 l 1
 925 1239 631.401857415 988.860243196 436 819 c 9
 436 814 l 25
 444 804 l 25
 448 804 l 5
NamedP: "41 degree"
EndSplineSet
Comment: "It is one of parts of 'p'."
Colour: bdbdbd
EndChar

StartChar: P115
Encoding: 101 -1 72
Width: 329
VWidth: 0
Flags: HW
HStem: 410 539 819 21G<133.281 179.281>
VStem: 0 329.281
AnchorPoint: "Cursive 1" 111 143 exit 0
AnchorPoint: "Cursive 1" 446 812 entry 0
LayerCount: 6
Back
Refer: 165 -1 S 1 0 0 1 0 0 2
Refer: 142 -1 N 1 0 0 1 1 0 2
Refer: 145 -1 N 1 0 0 1 281 0 2
Refer: 138 -1 N 1 0 0 1 0 0 2
Fore
SplineSet
118 136 m 1
 635 798 l 1
 593 826 554 889 602 935 c 1
 584 949 l 1
 584 949 494 865 440 819 c 5x60
 440 816 l 25
 450 804 l 25
 452 804 l 17
NamedP: "41 degree"
 494.002888722 840.000829699 563 903 563 903 c 1
 553 843 595 807 608 795 c 1
 103 148 l 9xa0
 104 145 l 25
 116 136 l 25
 118 136 l 1
EndSplineSet
Comment: "It is one of parts of 'r'."
Colour: bdbdbd
EndChar

StartChar: P116
Encoding: 102 -1 73
Width: 2141
VWidth: 0
Flags: HW
HStem: 819.2 21G<1393 1441.5>
VStem: 562 19<186.301 214>
AnchorPoint: "Cursive 1" 846 9 exit 0
AnchorPoint: "Cursive 1" 1397 812 entry 0
LayerCount: 6
Back
Refer: 145 -1 S 1 0 0 1 1232 0 2
Refer: 138 -1 N 1 0 0 1 0 0 2
Fore
SplineSet
1391 819 m 1
 1484.64436471 900.403804317 1525 949 1525 949 c 1
 1541 938 l 1
 1324 551 1288.5234375 344.513671875 1165 188.728515625 c 0
 921 -119 640 -2 616 202 c 1
 635 204 l 1
 661 12 916 -91 1149 200.1875 c 0
 1265.60737894 345.915444877 1300 529 1490 882 c 1
 1490 882 1451.07500026 845.790960147 1403 804 c 5
NamedP: "41 degree"
 1401 804 l 25
 1391 817 l 25
 1391 819 l 1
EndSplineSet
Comment: "It is one of parts of 's'."
Colour: bdbdbd
EndChar

StartChar: P117
Encoding: 103 -1 74
Width: 2370
VWidth: 0
Flags: HW
HStem: 818.2 21G<1386.54 1432.57> 1221 16<1344 2187>
VStem: 1344 843<1221 1237>
AnchorPoint: "Cursive 1" 635 814 exit 0
AnchorPoint: "Cursive 1" 635 814 entry 0
LayerCount: 6
Back
Refer: 142 -1 S 1 0 0 1 1166 1490 2
Refer: 142 -1 S 1 0 0 1 525 671 2
Fore
SplineSet
558 1240 m 1
 1401 1240 l 1
 1401 1221 l 1
 558 1221 l 1
 558 1240 l 1
627 819 m 1
 1268 1638 l 1
 1283 1626 l 1
 642 807 l 9
 638 806 l 25
 627 815 l 25
 627 819 l 1
EndSplineSet
Comment: "It is one of pars of 't'."
Colour: bdbdbd
EndChar

StartChar: P118
Encoding: 104 -1 75
Width: 2753
VWidth: 0
Flags: HW
HStem: 0 21G<231 274.75> 800 20G<1119 1122.98>
VStem: 231 913.734
AnchorPoint: "Cursive 1" 890 143 exit 0
AnchorPoint: "Cursive 1" 890 143 entry 0
LayerCount: 6
Back
Refer: 145 -1 S 1 0 0 1 404 -804 2
Refer: 145 -1 N 1 0 0 1 1450 0 2
Refer: 141 -1 N 1 0 0 1 0 0 2
Refer: 165 -1 N 1 0 0 1 0 0 2
Refer: 142 -1 N 1 0 0 1 780 0 2
Fore
SplineSet
563 15 m 1
 1609 819 l 1
 1621 804 l 1
 575 0 l 1
 563 15 l 1
EndSplineSet
Comment: "It is for x."
Colour: c7c7c7
EndChar

StartChar: P9400
Encoding: 105 -1 76
Width: 2505
VWidth: 0
Flags: HW
AnchorPoint: "Cursive 1" -654 -1620 exit 0
AnchorPoint: "Cursive 1" 771 0 entry 0
LayerCount: 6
Back
Refer: 144 -1 S 1 0 0 1 0 0 2
Fore
SplineSet
-648 -1612 m 1
 -602.570133063 -1639.29701797 -420.075338696 -1614.40339161 53 -1089 c 0
 757.065915317 -307.055583184 946 101 785 0 c 1
 757 0 l 1
 1018 166 781.858991997 -308.068657149 67 -1102 c 0
 -487.040142065 -1717.3239155 -636 -1642 -660 -1627 c 9
 -660 -1625 l 25
 -651 -1614 l 25
 -648 -1612 l 1
EndSplineSet
Comment: "It is one of part of glyphs like 'z'."
Colour: ff4036
EndChar

StartChar: P9300
Encoding: 106 -1 77
Width: 1427
VWidth: 0
Flags: W
HStem: 0 19<0 79.0476>
AnchorPoint: "Cursive 1" 1405 812 exit 0
AnchorPoint: "Cursive 1" 1 9 entry 0
LayerCount: 6
Back
Refer: 145 -1 S 1 0 0 1 1240 0 2
Fore
SplineSet
0 0 m 1
 0 19 l 17
 404 19 1104 560 1399 819 c 1
 1411 804 l 17
 1115 545 413 -1 0 0 c 1
EndSplineSet
Substitution2: "* +- [t]" P9305
Substitution2: "* +- [i, j, u, w]" P9305
Substitution2: "* +- [b, f, h, k, l]" P9305
Substitution2: "* +- [a, d, g, q]" P9301
Substitution2: "* +- [e]" P9302
Substitution2: "* +- [m, n, v, x, y, z] - 1" P9303
Substitution2: "* +- [o]" P9304
Comment: "It is final part of 's' and 'f'."
Colour: ff3b2e
EndChar

StartChar: P004
Encoding: 107 -1 78
Width: 1237
VWidth: 0
Flags: W
HStem: 0 21G<0 83.5> 795 24<1196.45 1213>
VStem: 0 1237
AnchorPoint: "Cursive 1" 1225 807 exit 0
LayerCount: 6
Fore
SplineSet
418 434 m 0
 652 615 949 760 1237 819 c 1
 1213 795 l 1
 920 726 664 590 442 426 c 0
 281 307 142 161 25 0 c 1
 0 0 l 1
 117 164 258 311 418 434 c 0
EndSplineSet
Validated: 1
Substitution2: "Substitute with nulls" null1
Comment: "It was for intial part of 'o'."
Colour: 5b8ff
EndChar

StartChar: P119
Encoding: 110 -1 81
Width: 942
VWidth: 0
Flags: HW
AnchorPoint: "Cursive 1" 999 781 exit 0
AnchorPoint: "Cursive 1" 110 143 entry 0
LayerCount: 6
Back
Refer: 142 -1 S 1 0 0 1 915 671 2
Refer: 142 -1 N 1 0 0 1 525 671 2
Refer: 156 -1 N 1 0 0 1 0 0 2
Refer: 139 -1 N 1 0 0 1 0 0 2
Refer: 142 -1 N 1 0 0 1 702 397 2
Refer: 142 -1 N 1 0 0 1 0 0 2
Refer: 141 -1 N 1 0 0 1 0 0 2
Fore
SplineSet
117 136 m 1
 79.5177371573 88.0940983477 68.0246283866 40.3879693741 88 23.7451171875 c 0
 126.41417618 -8.26036778675 370.998452265 49.1253346654 1017 819 c 1
 1032 807 l 1
 149.124790219 -245.169703068 -40.4906450156 -34.1166148675 102 148 c 1
 102 148 117 136 117 136 c 1
EndSplineSet
Comment: "It is for b."
Colour: d1d1d1
EndChar

StartChar: P9000
Encoding: 111 -1 82
Width: 1313
VWidth: 0
Flags: W
AnchorPoint: "Cursive 1" 110 143 entry 0
AnchorPoint: "Cursive 1" 1392 812 exit 0
LayerCount: 6
Back
Refer: 145 -1 S 1 0 0 1 1227 0 2
Refer: 165 -1 S 1 0 0 1 0 0 2
Refer: 142 -1 S 1 0 0 1 0 0 2
Fore
SplineSet
102 148 m 1
 6 24 19 -26 158 14 c 0
 441 95 878 367 1398 804 c 1
 1386 819 l 1
 867 383 432 114 151 32 c 4
 29 -4 45 44 117 136 c 5
 102 148 l 1
EndSplineSet
Substitution2: "* +- [b, f, h, k, l]" P9003
Substitution2: "'aalt' [+AH4A-i] +- *-1" P9003
Substitution2: "* +- [o]" P9006
Substitution2: "* +- [e]" P9004
Substitution2: "* +- [c]" P9014
Substitution2: "* +- [a, d, g, q]" P9002
Substitution2: "* +- [m, n, v, x, y, z] - 1" P9001
Comment: "It is for final part of characters like a, c and w."
Colour: ff454c
EndChar

StartChar: P120
Encoding: 112 -1 83
Width: 343
VWidth: 0
Flags: HW
HStem: 0.599609 409.4
VStem: -0.0996094 344.096
AnchorPoint: "Cursive 1" 110 143 entry 0
AnchorPoint: "Cursive 1" 4 7 exit 0
LayerCount: 6
Back
Refer: 165 -1 S 1 0 0 1 0 0 2
Refer: 142 -1 N 1 0 0 1 -106 -136 2
Refer: 142 -1 N 1 0 0 1 0 0 2
Refer: 142 -1 N 1 0 0 1 -320 -410 2
Fore
SplineSet
-4 12 m 1
 102 148 l 1
 117 136 l 1
 11 0 l 1
 -4 12 l 1
EndSplineSet
Comment: "it is for glyph like m and n"
Colour: cfcfcf
EndChar

StartChar: P9004
Encoding: 113 -1 84
Width: 977
VWidth: 0
Flags: HW
AnchorPoint: "Cursive 1" 1261 418 exit 0
AnchorPoint: "Cursive 1" 110 143 entry 0
LayerCount: 6
Back
Refer: 143 -1 S 1 0 0 1 838 0 2
Refer: 142 -1 N 1 0 0 1 0 0 2
Refer: 141 -1 N 1 0 0 1 0 0 2
Fore
SplineSet
117 136 m 1
 37.7572091872 34.2081530563 50.4946892481 10.6697534428 180 22 c 0
 310.50150545 33.4174022999 831.975951922 162.040367883 1256 427 c 1
 1266 410 l 1
 841.975951922 145.040367883 315.854492188 14.7978515625 181 3 c 0
 45.0791015625 -8.8916015625 1.07147660758 18.1670638051 102 148 c 1
 117 136 l 1
EndSplineSet
Comment: "It is for final part of glyphs like 'i' before 'e'."
Colour: ff030d
EndChar

StartChar: P9003
Encoding: 114 -1 85
Width: 1313
VWidth: 0
Flags: HW
AnchorPoint: "Cursive 1" 110 143 entry 0
AnchorPoint: "Cursive 1" 1614 811 exit 0
LayerCount: 6
Back
Refer: 184 -1 S 1 0 0 1 0 0 2
Refer: 166 -1 S 1 0 0 1 -68 0 2
Refer: 142 -1 S 1 0 0 1 0 0 2
Fore
SplineSet
117 136 m 5
 41.4429203878 38.9426575653 53.7926851446 3.5095150353 170 24 c 4
 451.655017361 73.6633788127 1018.92336122 341.975143584 1608 819 c 5
 1619 803 l 5
 1025.28379983 322.21810085 458.401790731 55.5003630291 172 5 c 4
 47.7665019575 -16.9057176127 8.99923160894 28.3652087364 102 148 c 5
 117 136 l 5
EndSplineSet
Comment: "It is final part of glyphs like 'a' before glyph like 'i'."
Colour: ff1214
EndChar

StartChar: P9002
Encoding: 115 -1 86
Width: 1144
VWidth: 0
Flags: HW
HStem: 605.857 20G<726.251 1147.35>
AnchorPoint: "cursive 2" 1370 647 exit 0
AnchorPoint: "Cursive 1" 110 143 entry 0
LayerCount: 6
Back
Refer: 165 -1 N 1 0 0 1 0 0 2
Refer: 142 -1 N 1 0 0 1 0 0 2
Refer: 140 -1 N 1 0 0 1 0 0 2
Fore
SplineSet
117 136 m 1
 37.3900452489 33.5909502262 29.8810263118 -1.73030683294 151 33 c 0
 360.555049715 93.0889435681 868.232165249 309.559832444 1363 656 c 1
 1373 640 l 1
 875.012897715 291.305677049 365.872266074 74.1799038955 156 14 c 0
 14.8483325684 -26.4745893282 6.35669925713 24.965894819 102 148 c 1
 117 136 l 1
EndSplineSet
Comment: "It is final part of glyphs like 'a' that place before glyphs like 'a'."
Colour: ff0d0d
EndChar

StartChar: P005
Encoding: 116 -1 88
Width: 60
VWidth: 0
Flags: W
VStem: -492 515
AnchorPoint: "Cursive 1" 29 417 exit 0
AnchorPoint: "Cursive 1" -498 7 entry 0
LayerCount: 6
Back
Refer: 141 -1 S 1 0 0 1 0 0 2
Fore
SplineSet
23 425 m 1
 -136 309 -319 170 -504 15 c 5
 -492 0 l 1
 -323 141 -139 285 35 410 c 1
 23 425 l 1
EndSplineSet
Substitution2: "Substitute with nulls" null2
Comment: "It was for initial part of v, x, m, n."
Colour: 4aabff
EndChar

StartChar: P9001
Encoding: 117 -1 89
Width: 791
VWidth: 0
Flags: HW
AnchorPoint: "Cursive 1" 881 418 exit 0
AnchorPoint: "Cursive 1" 110 143 entry 0
LayerCount: 6
Back
Refer: 165 -1 S 1 0 0 1 0 0 2
Refer: 145 -1 N 1 0 0 1 716 -394 2
Refer: 142 -1 N 1 0 0 1 0 0 2
Refer: 141 -1 N 1 0 0 1 0 0 2
Fore
SplineSet
117 136 m 5
 2 -12 85 11 182 41 c 0
 249 61 473 146 875 425 c 1
 887 410 l 1
 482 131 259 44 187 22 c 0
 142 8 -60 -60 102 148 c 1
 117 136 l 5
EndSplineSet
Comment: "It is final part of glyphs like a and m before glyphs like m and v."
Colour: ff141c
EndChar

StartChar: P9501
Encoding: 120 -1 90
Width: 1782
VWidth: 0
Flags: W
HStem: 696 19<775.476 962.197>
VStem: 628 550
AnchorPoint: "Cursive 1" 1181 781 exit 0
AnchorPoint: "Cursive 1" 624 781 entry 0
LayerCount: 6
Back
Refer: 152 -1 N 1 0 0 1 0 0 2
Refer: 148 -1 N 1 0 0 1 803 0 2
Refer: 139 -1 N 1 0 0 1 1 0 2
Fore
SplineSet
1178 789 m 1
 1072 747 967 715 866 715 c 0
 784 715 703 736 628 788 c 1
 617 772 l 1
 700 714 783 696 866 696 c 0
 968 696 1073 727 1185 772 c 1
 1178 789 l 1
EndSplineSet
Comment: "It is for final part of b and v."
Colour: ff2638
EndChar

StartChar: P105.2
Encoding: 121 -1 91
Width: 793
VWidth: 0
Flags: HW
HStem: 409.4 21G<564.569 746.961>
AnchorPoint: "Cursive 1" 111 143 exit 0
AnchorPoint: "Cursive 1" 378 781 entry 0
LayerCount: 6
Back
Refer: 165 -1 S 1 0 0 1 0 0 2
Refer: 148 -1 N 1 0 0 1 0 0 2
Refer: 139 -1 N 1 0 0 1 0 0 2
Refer: 142 -1 N 1 0 0 1 1 0 2
Fore
SplineSet
382 772 m 5
 541 830 618 809 491 646 c 2
 103 148 l 9
 103 146 l 25
 116 136 l 25
 118 136 l 1
 506 634 l 2
 643 810 558 857 375 789 c 9
 374 787 l 25
 380 773 l 25
 382 772 l 5
EndSplineSet
Comment: "It is default initial part of glyphs like 'm' after glyphs like 'b' and 'o'."
Colour: 549ebd
EndChar

StartChar: glyph98
Encoding: 9 44 93
Width: 0
VWidth: 0
Flags: H
VStem: 390 62<-45.9682 39.2772>
LayerCount: 6
Fore
SplineSet
421 41 m 25
 458 3 l 1
 347 -110 l 1
 335 -98 l 1
 411 -20 l 1
 386 5 l 1
 421 41 l 25
EndSplineSet
Validated: 1
EndChar

StartChar: P9201
Encoding: 123 -1 94
Width: 793
VWidth: 0
Flags: HW
AnchorPoint: "Cursive 1" -654 -1620 entry 0
AnchorPoint: "Cursive 1" 1498 418 exit 0
LayerCount: 6
Back
Refer: 166 -1 S 1 0 0 1 -184 -393 2
Refer: 145 -1 N 1 0 0 1 1252 -394 2
Refer: 141 -1 N 1 0 0 1 0 0 2
Refer: 144 -1 N 1 0 0 1 0 0 2
Fore
SplineSet
1492 426 m 1
 572 -111 -169 -769 -469 -1153 c 0
 -678 -1420 -725 -1585 -660 -1627 c 1
 -648 -1612 l 1
 -701 -1578 -650 -1416 -454 -1165 c 0
 -157 -784 583 -127 1503 410 c 1
 1492 426 l 1
EndSplineSet
Layer: 5
SplineSet
-454 -1165 m 4
 -650.396010629 -1416.3754304 -701.133661086 -1578.15012467 -648 -1612 c 4
 -605.889465111 -1638.82736944 -460 -1593 -232 -1387 c 4
 -79 -1249 108 -1039 321 -735 c 6
 1407 819 l 5
 1422 807 l 5
 337 -746 l 6
 132 -1039 -57 -1256 -219 -1401 c 4
 -437 -1597 -598 -1667 -660 -1627 c 4
 -725 -1585 -677.647673988 -1420.0568444 -469 -1153 c 4
 -99.6031148046 -680.193547836 937.734949797 206.846292744 2154 774 c 4
 2352.48140536 866.553399321 2444.3672172 812.422312025 2312 643 c 6
 1916 136 l 5
 1914 136 l 29
 1901 146 l 29
 1901 148 l 5
 2297 655 l 6
 2418.69203001 810.802674785 2336.01109511 837.142706254 2162 756 c 4
 946.641257584 189.268911006 -88.2970836566 -696.921612358 -454 -1165 c 4
EndSplineSet
Comment: "It will be placed before glyphs like m."
Colour: ff171f
EndChar

StartChar: period
Encoding: 11 46 95
Width: 5671
VWidth: 0
Flags: HW
HStem: -8.9225 37.845<577.084 614.916>
VStem: 577.078 37.845<-8.91636 28.9164>
LayerCount: 6
Fore
SplineSet
573.815429688 22 m 4
 573.815429688 34.3251953125 583.674804688 44.1845703125 596 44.1845703125 c 4
 608.325195312 44.1845703125 618.184570312 34.3251953125 618.184570312 22 c 4
 618.184570312 9.6748046875 608.325195312 -0.1845703125 596 -0.1845703125 c 4
 583.674804688 -0.1845703125 573.815429688 9.6748046875 573.815429688 22 c 4
EndSplineSet
Validated: 1
EndChar

StartChar: zero
Encoding: 12 48 96
Width: 1153
VWidth: 0
Flags: HW
LayerCount: 6
Back
Refer: 136 -1 S 1 0 0 1 0 0 2
Fore
SplineSet
467.03125 627.80859375 m 0
 275.750976562 382.981445312 223.3359375 107.646484375 320.473632812 39.630859375 c 0
 417.612304688 -28.3857421875 649.77734375 85.333984375 841.05859375 330.163085938 c 0
 1032.33886719 574.989257812 1102.31152344 867.098632812 1003.51855469 933.755859375 c 0
 905.217773438 1000.08105469 658.3125 872.635742188 467.03125 627.80859375 c 0
431.057617188 639.666015625 m 0
 636.0859375 902.08984375 897.608398438 1028.49902344 1017.08691406 951.206054688 c 0
 1136.56347656 873.912109375 1051.30078125 557.143554688 860.03125 315.932617188 c 0
 664.208007812 68.9775390625 422.952148438 -58.38671875 306.243164062 23.029296875 c 0
 189.53515625 104.446289062 240.1796875 395.353515625 431.057617188 639.666015625 c 0
EndSplineSet
Validated: 33
EndChar

StartChar: one
Encoding: 13 49 97
Width: 979
VWidth: 0
Flags: HW
LayerCount: 6
Back
Refer: 136 -1 S 1 0 0 1 0 0 2
Fore
SplineSet
883 975 m 5
 126 0 l 5
 86 0 l 5
 860 975 l 5
 883 975 l 5
EndSplineSet
Validated: 1
EndChar

StartChar: two
Encoding: 14 50 98
Width: 1328
VWidth: 0
Flags: HW
LayerCount: 6
Back
Refer: 136 -1 S 1 0 0 1 0 0 2
Fore
SplineSet
1110.78515625 937.04296875 m 1
 1019.04980469 987.403320312 868.903320312 960.524414062 701.83203125 783.084960938 c 0
 590.0078125 664.321289062 578.518554688 554.404296875 619.61328125 515.791992188 c 0
 658.529296875 479.2265625 758.536132812 494.639648438 898.46484375 643.8046875 c 0
 963.750976562 713.400390625 1031.43652344 803.033203125 1110.78515625 937.04296875 c 1
1125.81640625 927.736328125 m 1
 1047.69238281 795.944335938 977.040039062 701.731445312 911.35546875 631.711914062 c 0
 772.134765625 483.301757812 660.256835938 453.350585938 607.509765625 502.911132812 c 0
 553.274414062 553.870117188 578.432617188 673.942382812 688.963867188 795.202148438 c 0
 1205.44824219 1361.81347656 1704.38769531 448.7734375 391.42578125 40.337890625 c 1
 664.727539062 0 916.727539062 17 1149.76953125 88.646484375 c 1
 1154.06640625 71.5009765625 l 1
 900.727539062 -9 618.727539062 -18 351.4296875 30.2939453125 c 1
 315.60546875 21.6298828125 279.587890625 13.7109375 241.659179688 6.2216796875 c 0
 180.029296875 -5.9482421875 88.16796875 8.0634765625 101.259765625 57.0517578125 c 0
 109.265625 87.0068359375 160.864257812 96.7783203125 247.237304688 73.5068359375 c 0
 283.119140625 63.8388671875 316.069335938 55.87890625 351.15625 48.4169921875 c 1
 1100.40820312 279.09375 1348.86816406 769.954101562 1125.81640625 927.736328125 c 1
311.611328125 39.1123046875 m 1
 289.080078125 44.361328125 265.865234375 50.1826171875 242.638671875 56.4404296875 c 0
 153.484375 80.4609375 120.9140625 62.1337890625 118.3359375 52.48828125 c 0
 110.58203125 23.474609375 193.938476562 14.8154296875 238.235351562 23.5615234375 c 0
 263.12890625 28.4775390625 287.708984375 33.693359375 311.611328125 39.1123046875 c 1
EndSplineSet
Validated: 33
Layer: 3
SplineSet
1033 932 m 4
 623 238 345.364257812 503.755859375 613 788 c 4
 1177 1387 1583.00097656 301.995117188 162.05859375 21.4140625 c 4
 4.2548828125 -9.74609375 -26.4580078125 123.123046875 167 71 c 4
 553 -33 805 15.8349609375 1065 81 c 1029
EndSplineSet
EndChar

StartChar: three
Encoding: 15 51 99
Width: 1051
VWidth: 0
Flags: HW
LayerCount: 6
Back
Refer: 136 -1 S 1 0 0 1 0 0 2
Fore
SplineSet
728.833007812 506.525390625 m 1
 718.6875 516.935546875 706.900390625 526.952148438 693.73046875 536.055664062 c 0
 665.87109375 555.3125 651.16015625 548.432617188 646.791992188 542.063476562 c 0
 642.60546875 535.961914062 642.911132812 524.279296875 656.07421875 515.256835938 c 0
 670.345302465 505.475047903 701.584735987 505.132116233 728.833007812 506.525390625 c 1
1016.51958882 942.923972316 m 1
 986.294654139 872.449549207 958.673946017 818.585678555 926.09765625 785.635742188 c 0
 792 650 665 759 783.298828125 893.922851562 c 0
 862.90687541 984.717873942 966 991 1017 962 c 0
 1216.94428626 848.306190169 1013.94892125 512.166625771 762.971679688 492.205078125 c 1
 937.297014566 228.179430237 668 -54 377.299804688 9.2880859375 c 0
 250.500774408 36.8933922102 182 136 173.389648438 255.079101562 c 1
 190.237304688 251.872070312 l 1
 196 156 260.138514149 62.1061815888 380.470703125 32.142578125 c 0
 622 -28 902 237 743.049804688 490.254882812 c 1
 706.852749962 487.53645482 667.758573831 486.455211691 646.377929688 501.111328125 c 0
 627.255859375 514.21875 622.047851562 536.310546875 632.649414062 551.764648438 c 0
 644.916015625 569.646484375 672.534179688 571.555664062 703.482421875 550.163085938 c 0
 721.990077208 537.370701732 737.430343997 523.43799403 750.577148438 508.118164062 c 1
 1000.74715316 532.56474462 1177.91421952 832.135523243 1016.51958882 942.923972316 c 1
1001.68568821 951.849333635 m 1
 955.022042388 974.422321965 863.355189664 959.369850423 796.549804688 883.03515625 c 0
 695 767 788 680 912.826171875 796.498046875 c 0
 945.482568592 826.97568132 971.594644942 881.372509929 1001.68568821 951.849333635 c 1
EndSplineSet
Validated: 33
Layer: 3
SplineSet
1003 950.75 m 4
 845 579.75 679.58984375 744.10546875 782 868.75 c 4
 934 1053.75 1167.9921875 965.256835938 1051 731 c 4
 944 516.75 795.561523438 496.25 686.645507812 496.25 c 4
 596.645507812 496.25 619.612304688 591.348632812 690.645507812 542.25 c 4
 878 412.75 754 148.75 612 58.75 c 4
 408.037109375 -70.5224609375 136 54.75 173.645507812 252.5 c 1028
EndSplineSet
EndChar

StartChar: four
Encoding: 16 52 100
Width: 1290
VWidth: 0
Flags: HW
LayerCount: 6
Back
Refer: 136 -1 S 1 0 0 1 0 0 2
Fore
SplineSet
1190 961.72265625 m 1
 956.586914062 846.00390625 296.612304688 -1.9921875 296.612304688 -1.9921875 c 1
 280.655273438 10.3935546875 l 1
 280.655273438 10.3935546875 937.456054688 859.06640625 1181.02832031 979.819335938 c 1
 1190 961.72265625 l 1
493 721 m 1
 141.8671875 260.48828125 l 1
 817.874023438 260.48828125 l 1
 817.874023438 240.288085938 l 1
 100 241 l 1
 464.543945312 738.390625 l 1
 493 721 l 1
EndSplineSet
Validated: 5
Layer: 3
SplineSet
1165 975 m 4
 929 858 277 18 277 18 c 1028
461 740.25 m 4
 337 505.5 109 261.75 109 261.75 c 5
 801 261.75 l 1029
EndSplineSet
EndChar

StartChar: five
Encoding: 17 53 101
Width: 1051
VWidth: 0
Flags: HW
LayerCount: 6
Back
Refer: 136 -1 S 1 0 0 1 0 0 2
Fore
SplineSet
1400.39941406 956.948242188 m 1
 921.411132812 956.948242188 l 1
 782.770507812 738.970703125 701.5703125 602.00390625 623.42578125 534.111328125 c 1
 642.495117188 520.954101562 657.451078891 501.680096609 669.172851562 479.275390625 c 0
 775 277 539.812880128 -55.5573833215 218.872070312 5.2421875 c 0
 98.1142578125 28.1171875 12.0869140625 119.051757812 36.724609375 248.474609375 c 1
 45.388671875 246.825195312 l 1
 54.0537109375 245.17578125 l 1
 31.541015625 126.916992188 107.327148438 40.9296875 222.15625 24.5732421875 c 0
 507 -16 733 301 653.357421875 471.46484375 c 0
 642.822473436 494.013565576 627.162109375 511.313476562 609.05078125 522.41015625 c 1
 585.537109375 504.627929688 561.67578125 492.966796875 536.658203125 487.907226562 c 0
 500.220703125 480.5390625 475.693359375 481.45703125 468.373046875 497.844726562 c 0
 460.443359375 515.599609375 480.688476562 531.467773438 498.408203125 539.380859375 c 0
 539.108398438 557.557617188 576.444335938 557.600585938 607.125976562 543.409179688 c 1
 682.491491596 606.005112718 769.153225167 751.331384527 912 975 c 1
 1400.39941406 974.586914062 l 1
 1400.39941406 956.948242188 l 1
590.8359375 530.96875 m 1
 567.071289062 539.05859375 538.481445312 537.958007812 505.600585938 523.275390625 c 0
 489.495117188 516.08203125 484.356445312 506.127929688 484.486328125 505.02734375 c 0
 484.987304688 504.27734375 496.547851562 497.79296875 533.162109375 505.197265625 c 0
 552.606445312 509.129882812 571.569335938 517.62890625 590.8359375 530.96875 c 1
EndSplineSet
Validated: 33
Layer: 3
SplineSet
1417 960 m 29
 937 960 l 5
 748 663 665.118164062 516.088867188 558.36328125 494.5 c 4
 481.717773438 479 490.44921875 513.249023438 525.717773438 529 c 4
 731.717773438 621 810.717773438 214 483.717773438 53 c 4
 267.073242188 -53.666015625 35.072265625 49 72.7177734375 246.75 c 1028
EndSplineSet
EndChar

StartChar: six
Encoding: 18 54 102
Width: 921
VWidth: 0
Flags: HW
LayerCount: 6
Back
Refer: 136 -1 S 1 0 0 1 0 0 2
Fore
SplineSet
270.274414062 17.1005859375 m 1
 357.775390625 229.379882812 450.880859375 356.375 538.952148438 431.826171875 c 0
 648.387695312 525.581054688 749.015625 532.221679688 795.923828125 477.348632812 c 0
 849.813476562 414.309570312 821.024414062 284.548828125 668.665039062 154.91015625 c 0
 541.06640625 46.33984375 392.943359375 -8.431640625 279.270507812 -2.564453125 c 0
 232.353515625 -0.1435546875 190.92578125 12.6845703125 159.549804688 37.1171875 c 0
 59.1142578125 115.330078125 75.0675188734 297.008980386 300.654296875 591 c 2
 781 1217 l 1
 807 1195 l 1
 315.6171875 579.291015625 l 2
 83.8088175664 288.83214651 86.326171875 118.220703125 171.223632812 52.1083984375 c 0
 196.578125 32.3642578125 230.454101562 20.5830078125 270.274414062 17.1005859375 c 1
290.40625 16.0595703125 m 1
 396.404296875 14.2216796875 535.6484375 66.67578125 656.352539062 169.380859375 c 0
 807.372070312 297.879882812 823.47265625 415.8828125 781.481445312 465.002929688 c 0
 745.639648438 506.9296875 658.661132812 509.36328125 551.313476562 417.397460938 c 0
 467.622070312 345.698242188 375.493164062 220.479492188 290.40625 16.0595703125 c 1
EndSplineSet
Validated: 33
Layer: 3
SplineSet
250.434570312 11 m 5
 568.434570312 785 1020.90136719 489.8359375 634.434570312 161 c 4
 292.434570312 -130 -197.284179688 -26.0185546875 280.061523438 584 c 6
 766 1205 l 1029
EndSplineSet
EndChar

StartChar: seven
Encoding: 19 55 103
Width: 1188
VWidth: 0
Flags: HW
LayerCount: 6
Back
Refer: 136 -1 S 1 0 0 1 0 0 2
Fore
SplineSet
372 964 m 1
 236.381835938 790.688476562 l 1
 654.100585938 1102.99707031 645.698242188 557.30078125 1145.30273438 984.045898438 c 1
 1157.87597656 972 l 1
 216 -239 l 1
 195 -223 l 1
 1096.64355469 922.145507812 l 1
 621.336914062 560.537109375 631.381592165 1113.08137061 187.733398438 728.78125 c 1
 187.733398438 728.78125 175.110351562 740.78515625 175.110351562 740.78515625 c 1
 358.21875 974.78515625 l 1
 372 964 l 1
EndSplineSet
Validated: 33
Layer: 3
SplineSet
329.123046875 966.999023438 m 29
 146.014648438 732.999023438 l 5
 614.280273438 1138.99902344 586.999023438 523.999023438 1114.99902344 974.999023438 c 5
 169.725585938 -233.000976562 l 1029
EndSplineSet
EndChar

StartChar: eight
Encoding: 20 56 104
Width: 1224
VWidth: 0
Flags: HW
LayerCount: 6
Back
Refer: 136 -1 S 1 0 0 1 0 0 2
Fore
SplineSet
459.802140713 527.549444119 m 1
 460 1088 1152 1081 1022.06156241 729.455406086 c 1
 1005.93843759 736.259437664 l 1
 1122 1065 478 1042 477.983629114 541.10745784 c 1
 563.471736939 604.104486673 667.803962202 670.979558532 793.771256631 740.517724057 c 1
 802.228743369 725.197119693 l 1
 670.957351072 652.730914495 564.591990278 584.054650681 477.017803109 518.593994965 c 1
 477.00860669 99.3549448219 268.337743371 -36.6117067411 172.000001732 8.55000096496 c 0
 81.8400099757 50.8156709426 56 270 459.802140713 527.549444119 c 1
459.277909805 505.170353066 m 1
 119 256 103.879015133 62.9603497625 180.015160584 27.0000022864 c 0
 263.522327493 -12.4417992523 458.086367288 120.613101826 459.277909805 505.170353066 c 1
EndSplineSet
Validated: 33
Layer: 3
SplineSet
794 730.25 m 4
 -460 38 464 -370 464 496 c 4
 464 1088 1150 1062 1010 730.25 c 1028
EndSplineSet
EndChar

StartChar: nine
Encoding: 21 57 105
Width: 1342
VWidth: 0
Flags: HW
LayerCount: 6
Back
Refer: 136 -1 S 1 0 0 1 0 0 2
Fore
SplineSet
1242 971.75 m 1
 1211 961.75 l 1
 282 -208 l 1
 311 -228 l 1
 1242 971.75 l 1
EndSplineSet
Refer: 53 -1 N 0.86 0 0 0.86 100.493 266.066 2
EndChar

StartChar: exclam
Encoding: 2 33 106
Width: 4096
VWidth: 0
Flags: H
LayerCount: 6
Fore
SplineSet
2074 1630 m 1
 881.997631773 118.607719843 l 5
 868.215641394 129.392280157 l 5
 2048 1649 l 1
 2074 1630 l 1
EndSplineSet
Refer: 95 46 N 1 0 0 1 192 0 2
Validated: 1
EndChar

StartChar: question
Encoding: 24 63 107
Width: 1870
VWidth: 0
Flags: HW
LayerCount: 6
Fore
SplineSet
836.629882812 1094.37988281 m 1
 911.14453125 1357.97558594 1031.41015625 1510.94824219 1162.34863281 1582.97265625 c 0
 1379.67871094 1702.51855469 1622.25683594 1597.09765625 1722.9375 1413.94335938 c 0
 1824.4609375 1229.25292969 1779.40234375 969.73046875 1433.26074219 776.374023438 c 0
 889.049804688 472.374023438 573.049804688 554 265.340820312 234.047851562 c 1
 252.514648438 245.952148438 l 1
 607.049804688 625.857421875 1043.98828125 582.60546875 1424.83886719 791.713867188 c 0
 1766.45605469 979.28125 1803.79980469 1230.51171875 1707.6015625 1405.51269531 c 0
 1610.94335938 1581.35058594 1378.54394531 1681.921875 1170.78320312 1567.63964844 c 0
 1045.234375 1498.58007812 927.173828125 1350.34863281 853.469726562 1089.62011719 c 1
 836.629882812 1094.37988281 l 1
EndSplineSet
Refer: 95 46 N 1 0 0 1 -482.95 0 2
Validated: 33
Layer: 3
SplineSet
845.049804688 1092 m 5
 1165.04980469 2224 2325.04980469 1276 1429.04980469 784.043945312 c 4
 1044.44140625 572.872070312 617.049804688 625.857421875 258.927734375 240 c 1029
EndSplineSet
EndChar

StartChar: underscore
Encoding: 52 95 112
Width: 1845
VWidth: 0
Flags: HW
LayerCount: 6
Fore
SplineSet
297 18 m 1
 1542 19 l 5
 1542 0 l 5
 297 0 l 1
 297 18 l 1
EndSplineSet
Validated: 1
EndChar

StartChar: percent
Encoding: 6 37 113
Width: 2411
VWidth: 0
Flags: HW
LayerCount: 6
Fore
SplineSet
1260 926 m 1
 1260.10449219 932.499023438 l 1
 1568.46972656 927.557617188 1735.01269531 1105.66796875 2196.56445312 1639.25195312 c 1
 2201.48046875 1635 l 1
 2206.39648438 1630.74804688 l 1
 1745.85644531 1098.33203125 1575.53027344 914.442382812 1259.89550781 919.500976562 c 1
 1260 926 l 1
2211 1633 m 1
 178 -979 l 1
 151 -957 l 1
 2197.21875 1643.78613281 l 1
 2211 1633 l 1
EndSplineSet
Refer: 96 48 N 0.5 0 0 0.5 1273.03 -0.950344 2
Refer: 96 48 N 0.5 0 0 0.5 733.033 487.05 2
Validated: 37
EndChar

StartChar: numbersign
Encoding: 4 35 114
Width: 2250
VWidth: 0
Flags: HW
LayerCount: 6
Fore
SplineSet
562 901.250976562 m 1
 562 907.083984375 562 912.91796875 562 918.750976562 c 1
 2098 918.75 l 1
 2098 912.916992188 2098 907.083007812 2098 901.25 c 1
 562 901.250976562 l 1
329 586.25 m 1
 329 592.083007812 329 597.916992188 329 603.75 c 1
 1865 603.749023438 l 1
 1865 597.916015625 1865 592.08203125 1865 586.249023438 c 1
 329 586.25 l 1
1855.11816406 1299.40332031 m 1
 1859.70605469 1295.80078125 1864.29394531 1292.19921875 1868.88183594 1288.59667969 c 1
 947.881835938 115.596679688 l 1
 943.293945312 119.19921875 938.706054688 122.80078125 934.118164062 126.403320312 c 1
 1855.11816406 1299.40332031 l 1
1438.02246094 1352.18945312 m 1
 1446.67382812 1345.39648438 1455.32617188 1338.60351562 1463.97753906 1331.81054688 c 1
 542.977539062 158.810546875 l 1
 534.326171875 165.603515625 525.673828125 172.396484375 517.022460938 179.189453125 c 1
 1438.02246094 1352.18945312 l 1
EndSplineSet
Validated: 5
Layer: 3
SplineSet
562 910.000976562 m 5
 2098 910 l 1029
329 595 m 5
 1865 594.999023438 l 1029
1862 1294 m 5
 941 121 l 1029
1451 1342 m 5
 530 169 l 1029
EndSplineSet
EndChar

StartChar: dollar
Encoding: 5 36 115
Width: 2772
VWidth: 0
Flags: HW
LayerCount: 6
Fore
SplineSet
1980.59082031 721.338867188 m 1
 1974.86328125 722.446289062 1969.13671875 723.553710938 1963.40917969 724.661132812 c 1
 1990.7265625 865.9765625 1866.75 1001.82910156 1707.95996094 957.842773438 c 0
 1606.77734375 929.814453125 1541.97753906 829.34375 1534.73730469 714.865234375 c 0
 1523.88867188 543.309570312 1617.11230469 392.212890625 1572.10546875 212.712890625 c 0
 1533.69238281 59.5146484375 1352.84277344 -80.4248046875 1176.98632812 29.0322265625 c 0
 1087.61914062 84.6591796875 1017.94726562 225.607421875 1090.59960938 347.965820312 c 0
 1147.97363281 444.592773438 1305.58398438 485.829101562 1393.25683594 382.392578125 c 0
 1421.69238281 348.84375 1436.80957031 304.528320312 1434.74023438 260.588867188 c 1
 1428.91308594 260.86328125 1423.08691406 261.13671875 1417.25976562 261.411132812 c 1
 1422.88769531 380.91796875 1294.48730469 468.145507812 1178.953125 408.649414062 c 0
 1096.56933594 366.225585938 1048.18164062 248.94921875 1099.29785156 141.141601562 c 0
 1159.57128906 14.01953125 1338.08789062 -25.68359375 1461 83 c 0
 1533.80566406 147.377929688 1566.22265625 243.899414062 1553 377 c 0
 1541.91503906 488.578125 1509.65625 595.54296875 1517.27246094 715.96875 c 0
 1526.81640625 866.895507812 1653.37988281 1041.99804688 1844.15527344 967.838867188 c 0
 1928.09375 935.208007812 2003.46777344 839.681640625 1980.59082031 721.338867188 c 1
2469.83007812 1649.39746094 m 1
 2474.42089844 1645.79882812 2479.01269531 1642.20117188 2483.60351562 1638.60253906 c 1
 439.03515625 -970.397460938 l 1
 434.444335938 -966.798828125 429.852539062 -963.201171875 425.26171875 -959.602539062 c 1
 2469.83007812 1649.39746094 l 1
  Spiro
    2476.72 1644 v
    2483.6 1638.6 v
    439.036 -970.397 v
    432.148 -965 v
    425.261 -959.603 v
    2469.83 1649.4 v
    0 0 z
  EndSpiro
2356.11328125 1643.79785156 m 1
 2360.70410156 1640.19921875 2365.29589844 1636.6015625 2369.88671875 1633.00292969 c 1
 325.318359375 -975.997070312 l 1
 320.727539062 -972.3984375 316.135742188 -968.80078125 311.544921875 -965.202148438 c 1
 2356.11328125 1643.79785156 l 1
  Spiro
    2363 1638.4 v
    2369.89 1633 v
    325.319 -975.997 v
    318.432 -970.6 v
    311.544 -965.202 v
    2356.11 1643.8 v
    0 0 z
  EndSpiro
EndSplineSet
Validated: 37
Layer: 3
SplineSet
1972 723 m 4
 1981.2890625 771.052734375 1973.14355469 822.28125 1949.42285156 865.090820312 c 4
 1925.70214844 907.901367188 1886.6015625 941.950195312 1840.98535156 959.68359375 c 4
 1798.14941406 976.334960938 1749.9140625 978.543945312 1705.62402344 966.275390625 c 4
 1661.33398438 954.006835938 1621.35644531 927.443359375 1591.72070312 892.317382812 c 4
 1550.45214844 843.403320312 1530.04394531 779.286132812 1526.00488281 715.416992188 c 4
 1521.96582031 651.547851562 1533.01171875 587.75 1545.58105469 525 c 4
 1555.84570312 473.76171875 1567.06542969 422.586914062 1572.23144531 370.5859375 c 4
 1577.39746094 318.5859375 1576.32714844 265.528320312 1563.61816406 214.840820312 c 4
 1549.16601562 157.203125 1519.02734375 102.921875 1474.51269531 63.5595703125 c 4
 1429.99707031 24.1982421875 1371.41796875 0.673828125 1312 0 c 4
 1266.25976562 -0.5185546875 1220.4453125 12.2890625 1181.61035156 36.4609375 c 4
 1142.77539062 60.6337890625 1110.98925781 96.0595703125 1091.39160156 137.392578125 c 4
 1076.06445312 169.717773438 1068.17382812 205.61328125 1069.1015625 241.375976562 c 4
 1070.02929688 277.138671875 1079.85839844 312.737304688 1098.12304688 343.498046875 c 4
 1116.38769531 374.258789062 1143.14257812 400.05078125 1174.94726562 416.428710938 c 4
 1206.75292969 432.807617188 1243.52148438 439.592773438 1279 435 c 4
 1320.38085938 429.642578125 1359.60253906 408.565429688 1386.58203125 376.735351562 c 4
 1413.56152344 344.904296875 1427.96289062 302.680664062 1426 261 c 1028
  Spiro
    1972 723 {
    1840.98 959.683 o
    1591.72 892.317 o
    1545.58 525 o
    1563.62 214.841 o
    1312 0 o
    1091.39 137.392 o
    1279 435 o
    1426 261 o
    0 0 z
  EndSpiro
EndSplineSet
EndChar

StartChar: ampersand
Encoding: 7 38 116
Width: 3760
VWidth: 0
Flags: HW
LayerCount: 6
Fore
SplineSet
3324 1638.40039062 m 1
 3328.91894531 1630.56640625 l 1
 2477.69042969 1096.10644531 2209.48144531 769.44921875 2006.7421875 481.506835938 c 1
 1942.9296875 157.329101562 1831.03808594 -90.71484375 1697.55761719 -264.180664062 c 0
 1384.7890625 -670.639648438 947.49609375 -691.703125 697.646484375 -499.37890625 c 0
 476.704101562 -329.307617188 405.947265625 5.4541015625 692.671875 377.645507812 c 1
 700 372 l 1
 707.328125 366.354492188 l 1
 425.129882812 0.0400390625 497.237304688 -321.766601562 708.930664062 -484.71875 c 0
 949.576171875 -669.958007812 1375.24121094 -652.7109375 1682.89550781 -252.8984375 c 0
 1808.77539062 -89.3115234375 1914.94433594 138.749023438 1980.01660156 443.259765625 c 1
 1822 198.796875 1338 -228 1139.48828125 147.560546875 c 0
 1025.09765625 363.975585938 1203.46972656 782.153320312 2048.70703125 1211.65820312 c 1
 2020 2164 2478.05078125 2472.28027344 2792.6640625 2474.20507812 c 0
 2963.93847656 2475.25390625 3099.55664062 2371.54003906 3100.58886719 2199.92675781 c 0
 3102.03710938 1959.29980469 2840.82324219 1593.19140625 2067.29492188 1200.34179688 c 1
 2066.15234375 945.0703125 2050.00390625 736 2026 585 c 1
 2220.0546875 855.80078125 2496.95996094 1130.04980469 3319.08105469 1646.234375 c 1
 3324 1638.40039062 l 1
2000.41308594 548.9296875 m 1
 2031 725 2047.26855469 922.642578125 2048.85449219 1190.97265625 c 1
 1209.78515625 762.5703125 1047.98046875 352.618164062 1156.11132812 155.686523438 c 0
 1358 -212 1815.06835938 282.000976562 2000.41308594 548.9296875 c 1
2067.16113281 1221.03125 m 1
 2832.07910156 1611.08886719 3082.60839844 1971.70800781 3082.09375 2198.65429688 c 0
 3081.73144531 2358.63476562 2957.69824219 2456.14257812 2794.19335938 2455.71191406 c 0
 2495.21191406 2454.92480469 2062 2010 2067.16113281 1221.03125 c 1
EndSplineSet
Validated: 33
Layer: 3
SplineSet
3324 1638.40039062 m 4
 2226 949 2083.75976562 586.346679688 1842 264 c 4
 1338 -408 401.936523438 367.325195312 2058 1206 c 4
 4392 2388 2040 3318 2058 1206 c 4
 2080.53027344 -1437.52832031 -132 -708 700 372 c 1028
EndSplineSet
EndChar

StartChar: cent
Encoding: 79 162 118
Width: 2768
VWidth: 0
Flags: HW
LayerCount: 6
Fore
SplineSet
1552 1500 m 1
 1545.09082031 1505.36914062 l 1
 1556.08789062 1519.52148438 1566.13574219 1533.21582031 1575.26953125 1546.44824219 c 0
 1670.02441406 1683.70507812 1664.43945312 1766.53710938 1613.62402344 1801.57226562 c 0
 1503.33105469 1877.61523438 1151.015625 1754.54199219 899.217773438 1387.0546875 c 0
 867.982421875 1341.46777344 840.786132812 1295.89648438 817.762695312 1250.94140625 c 0
 677.677734375 977.4140625 693.143554688 731.177734375 883.981445312 633.6484375 c 0
 1044.66699219 551.530273438 1611.48339844 689.958984375 2096.80566406 1390.98046875 c 1
 2104 1386 l 1
 2111.19433594 1381.01953125 l 1
 1624.51660156 678.041015625 1051.33300781 528.469726562 876.018554688 618.06640625 c 0
 671.65625 722.505859375 660.924804688 983.092773438 802.186523438 1258.91894531 c 0
 825.571289062 1304.57910156 853.150390625 1350.78027344 884.782226562 1396.9453125 c 0
 1137.08984375 1765.17871094 1497.25488281 1903.05957031 1623.55761719 1815.98046875 c 0
 1688.01855469 1771.53613281 1684.73730469 1674.21484375 1589.671875 1536.50585938 c 0
 1580.3359375 1522.98242188 1570.09375 1509.02441406 1558.90917969 1494.63085938 c 1
 1552 1500 l 1
364 0 m 1
 357.103515625 5.3857421875 l 1
 2268.765625 2453.38574219 l 1
 2275.66210938 2448 l 1
 2282.55859375 2442.61425781 l 1
 370.896484375 -5.3857421875 l 1
 364 0 l 1
EndSplineSet
Validated: 37
Layer: 3
SplineSet
1552 1500 m 5
 1911 1962 1278.81152344 1956.53613281 892 1392 c 4
 670 1068 649.806640625 743.499023438 880 625.857421875 c 4
 1048 540 1618 684 2104 1386 c 1028
364 0 m 29
 2275.66210938 2448 l 1053
EndSplineSet
EndChar

StartChar: at
Encoding: 25 64 119
Width: 3447
VWidth: 0
Flags: HW
LayerCount: 6
Fore
SplineSet
1894 615 m 5
 1870 612 l 5
 1619.29296875 297.623046875 l 2
 1529 184 1458.45410156 66.115234375 1520.65039062 14.896484375 c 0
 1618.83105469 -65.9541015625 2545 154 2552.6875 563.907226562 c 0
 2555.98828125 739.876953125 2309.79785156 975.7421875 1545.61621094 975.49609375 c 0
 -89 974.96875 -86 -526 1467.19726562 -500.748046875 c 0
 2108.77050781 -490.317382812 2449.83105469 -269.299804688 2822.03808594 -7.1533203125 c 1
 2817 0 l 1
 2811.96191406 7.1533203125 l 1
 2440.16894531 -254.700195312 2104.11621094 -472.567382812 1466.80273438 -483.251953125 c 0
 -69 -509 -55.00390625 955.842773438 1546 958 c 0
 2288 959 2536.10644531 732.33203125 2535.1875 563.916015625 c 0
 2533.10351562 181.999023438 1618 -44 1531.77539062 28.40625 c 0
 1480.11914062 71.7841796875 1544.82617188 176.186523438 1632.83886719 286.541992188 c 2
 1894 615 l 5
EndSplineSet
Refer: 53 -1 N 0.75 0 0 0.75 901.168 0.349718 2
Layer: 3
SplineSet
1889 614 m 5
 1632 292 l 6
 1190.62890625 -209.271484375 2177 18 2499 409.599609375 c 4
 2546.97167969 467.940429688 2755 975 1585 975 c 4
 379.07421875 975 -153.483398438 -528.517578125 1467 -492 c 4
 2106.36816406 -477.591796875 2445 -262 2817 0 c 1029
EndSplineSet
Refer: 53 -1 S 0.75 0 0 0.75 901.168 0.349718 2
EndChar

StartChar: hyphen
Encoding: 10 45 120
Width: 1756
VWidth: 0
Flags: HW
LayerCount: 6
Fore
SplineSet
368 418.349609375 m 1
 1310 418.349609375 l 1
 1310 412.516601562 1310 406.682617188 1310 400.849609375 c 1
 368 400.849609375 l 1
 368 406.682617188 368 412.516601562 368 418.349609375 c 1
EndSplineSet
Validated: 1
EndChar

StartChar: P9502
Encoding: 127 -1 122
Width: 942
VWidth: 0
Flags: HW
VStem: 430 19<518.366 706>
AnchorPoint: "Cursive 1" 1062 418 exit 0
AnchorPoint: "Cursive 1" 508 779 entry 0
LayerCount: 6
Back
Refer: 143 -1 S 1 0 0 1 639 0 2
Refer: 139 -1 N 1 0 0 1 0 0 2
Fore
SplineSet
430 708 m 1
 449 706 l 1
 390.306915949 373.134979482 666.422542893 201.5 1057 427 c 1
 1067 410 l 1
 662 176 368.648362348 360.057572783 430 708 c 1
EndSplineSet
Comment: "It is for final part of b and v before e."
Colour: ff1c2e
EndChar

StartChar: P9503
Encoding: 128 -1 123
Width: 414
VWidth: 0
Flags: HW
HStem: 799.487 20G<552.5 693>
AnchorPoint: "Cursive 1" 900 812 exit 0
AnchorPoint: "Cursive 1" 5 781 entry 0
LayerCount: 6
Back
Refer: 139 -1 S 1 0 0 1 0 0 2
Fore
SplineSet
3 796 m 1
 3 796 -42 738 23 736.107421875 c 0
 165.954943903 731.94506188 693.41796875 735 744 735 c 0
 812 735 848 773 906 805 c 1
 894 819 l 1
 840 781 802 756 743 754 c 0
 693.172851562 752.311523438 169.714734336 754.610583116 24 754.922851562 c 0
 -12 755 20 789 20 789 c 1
 3 796 l 1
EndSplineSet
Comment: "It is for final part of b and v before c."
Colour: ff3829
EndChar

StartChar: P9504
Encoding: 129 -1 124
Width: 602
VWidth: 0
Flags: HW
AnchorPoint: "Cursive 1" 693 819 exit 0
AnchorPoint: "Cursive 1" -170 781 entry 0
LayerCount: 6
Back
Refer: 139 -1 S 1 0 0 1 0 0 2
Fore
SplineSet
-178 776 m 1
 -162 786 l 1
 -64 632 286 619 683 779 c 1
 690 761 l 1
 273 592 -80 619 -178 776 c 1
EndSplineSet
Comment: "It is for final part of glyph like b before glyph like a."
Colour: ff212e
EndChar

StartChar: P9301
Encoding: 130 -1 125
Width: 1427
VWidth: 0
Flags: W
HStem: 0 19<0 100.695>
AnchorPoint: "cursive 2" 1360 655 exit 0
AnchorPoint: "Cursive 1" 1 9 entry 0
LayerCount: 6
Back
Refer: 145 -1 S 1 0 0 1 1195 -157 2
Refer: 140 -1 N 1 0 0 1 0 0 2
Fore
SplineSet
1354 662 m 1
 958 349 332 19 0 19 c 9
 0 0 l 17
 341 0 972 335 1366 647 c 1
 1354 662 l 1
EndSplineSet
Comment: "It is final part of s before glyph like a."
Colour: ff3330
EndChar

StartChar: P9302
Encoding: 131 -1 126
Width: 1427
VWidth: 0
Flags: HW
HStem: 0 19<0.0683594 99.6909> 798.953 20G<1192.78 1427>
AnchorPoint: "Cursive 1" 1165 418 exit 0
AnchorPoint: "Cursive 1" 1 9 entry 0
LayerCount: 6
Back
Refer: 143 -1 S 1 0 0 1 742 0 2
Refer: 141 -1 N 1 0 0 1 0 0 2
Fore
SplineSet
1160 427 m 1
 807.915255066 203.560226494 262 21 0 20 c 13
 0 1 l 17
 261 0 815 185 1170 410 c 1
 1160 427 l 1
EndSplineSet
Comment: "It is final part of s before e."
Colour: ff4c4c
EndChar

StartChar: P9303
Encoding: 132 -1 127
Width: 1427
VWidth: 0
Flags: W
HStem: 0 19<0 95.248>
VStem: 0 803
AnchorPoint: "Cursive 1" 809 418 exit 0
AnchorPoint: "Cursive 1" 1 9 entry 0
LayerCount: 6
Back
Refer: 145 -1 S 1 0 0 1 644 -394 2
Refer: 141 -1 N 1 0 0 1 0 0 2
Fore
SplineSet
803 425 m 1
 492 201 256 19 0 19 c 9
 0 0 l 17
 261 0 499 181 815 410 c 1
 803 425 l 1
EndSplineSet
Comment: "It is final part of s before glyph like v."
Colour: ff4763
EndChar

StartChar: P9202
Encoding: 126 -1 128
Width: 2590
VWidth: 0
Flags: HW
AnchorPoint: "Cursive 1" 2012 410 exit 0
AnchorPoint: "Cursive 1" -654 -1620 entry 0
LayerCount: 6
Back
Refer: 142 -1 S 1 0 0 1 1305 671 2
Refer: 144 -1 S 1 0 0 1 0 0 2
Refer: 143 -1 S 1 0 0 1 1601 0 2
Fore
SplineSet
-660 -1627 m 1
 -725.365984066 -1584.55083361 -678.974352239 -1418.68956845 -469 -1153 c 0
 -226 -846 220.245117188 -442.493164062 795 -24 c 0
 1115 209 1547 152 2020 427 c 1
 2030 410 l 1
 1552 134 1125 191 805 -41 c 0
 215.646970793 -468.280946175 -225.823485087 -878.142806187 -454 -1165 c 0
 -648.847081268 -1409.95635309 -702.513586916 -1576.59846272 -648 -1612 c 1
 -660 -1627 l 1
EndSplineSet
Layer: 5
SplineSet
1407 819 m 5
 1422 807 l 5
 337 -746 l 6
 132.045705741 -1039.16722311 -57.4849036307 -1255.57115401 -219 -1401 c 4
 -436.800885451 -1597.10879811 -598.315779728 -1667.05820103 -660 -1627 c 4
 -725.365984066 -1584.55083361 -678.974352239 -1418.68956845 -469 -1153 c 4
 -226 -846 220.245117188 -442.493164062 795 -24 c 0
 1115 209 1547 152 2020 427 c 1
 2030 410 l 1
 1552 134 1125 191 805 -41 c 0
 215.646970793 -468.280946175 -225.823485087 -878.142806187 -454 -1165 c 4
 -648.847081268 -1409.95635309 -702.513586916 -1576.59846272 -648 -1612 c 4
 -606.066471603 -1639.23195175 -460.26438672 -1592.11748694 -232.000022127 -1386.58732989 c 4
 -79.1277000776 -1248.94047285 108.041664406 -1039.45009523 321 -735 c 6
 1407 819 l 5
EndSplineSet
Comment: "It is final part of glyphs like 'j' before 'e'."
Colour: ff2b33
EndChar

StartChar: P9203
Encoding: 134 -1 129
Width: 3091
VWidth: 0
Flags: HW
AnchorPoint: "Cursive 1" 3057 812 exit 0
AnchorPoint: "Cursive 1" 226 -1620 entry 0
LayerCount: 6
Back
Refer: 145 -1 S 1 0 0 1 2892 0 2
Refer: 144 -1 S 1 0 0 1 981 0 2
Fore
SplineSet
220 -1627 m 1
 110.97265625 -1556.19726562 418.569335938 -1068.61621094 890 -629 c 4
 1839.296875 256.233398438 2436.73925781 265.916992188 3051 819 c 5
 3063 804 l 5
 2448.24121094 250.46875 1850.10351562 240.1875 903 -643 c 4
 414.456054688 -1098.57519531 148.1328125 -1557.53613281 232 -1612 c 1
 220 -1627 l 1
EndSplineSet
Layer: 5
SplineSet
220 -1627 m 4
 281.684570312 -1667.05859375 443.19921875 -1597.10839844 661 -1401 c 4
 822.514648438 -1255.57128906 1012.04589844 -1039.16699219 1217 -746 c 6
 2302 807 l 5
 2287 819 l 5
 1201 -735 l 6
 988.041992188 -1039.45019531 800.872070312 -1248.94042969 648 -1386.58691406 c 4
 419.735351562 -1592.1171875 273.93359375 -1639.23242188 232 -1612 c 4
 148.1328125 -1557.53613281 414.456054688 -1098.57519531 903 -643 c 4
 1850.10351562 240.1875 2448.24121094 250.46875 3063 804 c 5
 3051 819 l 5
 2436.73925781 265.916992188 1839.296875 256.233398438 890 -629 c 4
 418.569335938 -1068.61621094 110.97265625 -1556.19726562 220 -1627 c 4
EndSplineSet
Refer: 57 -1 S 1 0 0 1 880 0 2
Refer: 76 -1 S 1 0 0 1 880 0 2
Comment: "It is final part of glyphs like 'j' before glyphs like 's'."
Colour: ff171a
EndChar

StartChar: P9204
Encoding: 135 -1 130
Width: 2212
VWidth: 0
Flags: HW
HStem: 800 20G<1424.26 2063.52>
AnchorPoint: "Cursive 1" 2470 819 exit 0
AnchorPoint: "Cursive 1" -655 -1620 entry 0
LayerCount: 6
Back
Refer: 162 -1 S 1 0 0 1 1558 0 2
Refer: 144 -1 N 1 0 0 1 0 0 2
Fore
SplineSet
-660 -1627 m 5
 -725.365984066 -1584.55083361 -679.48464894 -1417.61546999 -469 -1153 c 0
 -15.8093445278 -583.261261811 1162.86087557 430.753127215 2470 781 c 1
 2474 762 l 1
 1175.79568947 414.147203382 -2.05437380109 -596.826478125 -454 -1165 c 0
 -653.827198361 -1416.21721835 -701.674916349 -1577.14310176 -648 -1612 c 5
 -660 -1627 l 5
EndSplineSet
Layer: 5
SplineSet
-660 -1627 m 4
 -598.315779728 -1667.05820103 -436.800885451 -1597.10879811 -219 -1401 c 4
 -57.4849036307 -1255.57115401 132.045705741 -1039.16722311 337 -746 c 6
 1422 807 l 5
 1407 819 l 5
 321 -735 l 6
 108.041664406 -1039.45009523 -79.1277000776 -1248.94047285 -232.000022127 -1386.58732989 c 4
 -460.26438672 -1592.11748694 -606.066471603 -1639.23195175 -648 -1612 c 4
 -701.674916349 -1577.14310176 -653.827198361 -1416.21721835 -454 -1165 c 4
 -2.05437380109 -596.826478125 1175.79568947 414.147203382 2474 762 c 5
 2470 781 l 5
 1162.86087557 430.753127215 -15.8093445278 -583.261261811 -469 -1153 c 4
 -679.48464894 -1417.61546999 -725.365984066 -1584.55083361 -660 -1627 c 4
EndSplineSet
Comment: "It will come berofe a."
Colour: ff3324
EndChar

StartChar: P9205
Encoding: 136 -1 131
Width: 2212
VWidth: 0
Flags: HW
HStem: 800 20G<1424.26 2063.52>
AnchorPoint: "Cursive 1" 2190 812 exit 0
AnchorPoint: "Cursive 1" -655 -1620 entry 0
LayerCount: 6
Back
Refer: 142 -1 S 1 0 0 1 1867 397 2
Refer: 144 -1 N 1 0 0 1 0 0 2
Fore
SplineSet
-660 -1627 m 1
 -727 -1585 -680.283417462 -1419.57332951 -469 -1153 c 0
 696.639712992 317.671305083 1697 200 2182 819 c 1
 2197 807 l 5
 1714.78611792 187.568993405 705.68290578 299.155684827 -454 -1164 c 0
 -655.19597751 -1417.84614776 -705 -1573 -649 -1612 c 1
 -660 -1627 l 1
EndSplineSet
Layer: 5
SplineSet
1408 819.200195312 m 5
 1430 819 l 5
 336 -746 l 6
 -439.751953125 -1857.66308594 -1025.61691953 -1852.50397109 -469 -1153.46865142 c 4
 700 314.63671875 1696 210 2181 819.200195312 c 5
 2212 819.200195312 l 5
 1738 198 691 280 -454.000005573 -1164.241162 c 4
 -998.97891038 -1851.64811651 -425.484105619 -1802.3281902 321 -735 c 6
 1408 819.200195312 l 5
EndSplineSet
Comment: "it was final part of 'j' before 't'."
Colour: ff262e
EndChar

StartChar: P9206
Encoding: 137 -1 132
Width: 2212
VWidth: 0
Flags: HW
AnchorPoint: "Cursive 1" 2193 819 exit 0
AnchorPoint: "Cursive 1" -654 -1620 entry 0
LayerCount: 6
Back
Refer: 144 -1 S 1 0 0 1 0 0 2
Fore
SplineSet
-660 -1627 m 5
 -725.365984066 -1584.55083361 -679.345484313 -1418.38995239 -469 -1153 c 4
 -55.9367261149 -631.843850878 779.113327354 72.5402151704 2183 819 c 5
 2192 802 l 5
 788.113327354 55.5402151704 -40.6502812726 -645.34818385 -454 -1165 c 4
 -648.847081268 -1409.95635309 -702.513586916 -1576.59846272 -648 -1612 c 5
 -660 -1627 l 5
EndSplineSet
Layer: 5
SplineSet
2192 802 m 5
 2183 819 l 5
 779.113327354 72.5402151704 -55.9367261149 -631.843850878 -469 -1153 c 4
 -679.345484313 -1418.38995239 -725.365984066 -1584.55083361 -660 -1627 c 4
 -598.315779728 -1667.05820103 -436.800885451 -1597.10879811 -219 -1401 c 4
 -57.4849036307 -1255.57115401 132.045705741 -1039.16722311 337 -746 c 6
 1422 807 l 5
 1407 819 l 5
 321 -735 l 6
 108.041664406 -1039.45009523 -79.1277000776 -1248.94047285 -232.000022127 -1386.58732989 c 4
 -460.26438672 -1592.11748694 -606.066471603 -1639.23195175 -648 -1612 c 4
 -702.513586916 -1576.59846272 -648.847081268 -1409.95635309 -454 -1165 c 4
 -40.6502812726 -645.34818385 788.113327354 55.5402151704 2192 802 c 5
EndSplineSet
Substitution2: "* +- [c]" P9210
Substitution2: "* +- [i, j, u, w]" P9209
Substitution2: "* +- [b, f, h, k, l]" P9208
Substitution2: "* +- [p, r, s]" P9203
Substitution2: "* +- [a, d, g, q]" P9204
Substitution2: "* +- [m, n, v, x, y, z] - 1" P9201
Substitution2: "* +- [t]" P9208
Substitution2: "* +- [e]" P9202
Substitution2: "* +- [o]" P9207
Comment: "It is default final part of glyphs like g. "
Colour: ff3845
EndChar

StartChar: P9207
Encoding: 138 -1 133
Width: 2211
VWidth: 0
Flags: HW
AnchorPoint: "Cursive 1" 2376 819 exit 0
AnchorPoint: "Cursive 1" -654 -1620 entry 0
LayerCount: 6
Back
Refer: 139 -1 N 1 0 0 1 0 0 2
Refer: 144 -1 N 1 0 0 1 0 0 2
Fore
SplineSet
-660 -1627 m 1
 -725.365984066 -1584.55083361 -679.345484313 -1418.38995239 -469 -1153 c 0
 80.7157855463 -459.431290267 1018.69054113 230.195646266 2294 798 c 1
 2302 780 l 1
 1024.86345022 211.38217298 96.3029387877 -473.174389342 -454 -1165 c 0
 -648.847081268 -1409.95635309 -702.513586916 -1576.59846272 -648 -1612 c 1
 -660 -1627 l 1
EndSplineSet
Layer: 5
SplineSet
2302 780 m 5
 2294 798 l 5
 1018.69054113 230.195646266 80.7157855463 -459.431290267 -469 -1153 c 4
 -679.345484313 -1418.38995239 -725.365984066 -1584.55083361 -660 -1627 c 4
 -598.315779728 -1667.05820103 -436.800885451 -1597.10879811 -219 -1401 c 4
 -57.4849036307 -1255.57115401 132.045705741 -1039.16722311 337 -746 c 6
 1422 807 l 5
 1407 819 l 5
 321 -735 l 6
 108.041664406 -1039.45009523 -79.1277000776 -1248.94047285 -232.000022127 -1386.58732989 c 4
 -460.26438672 -1592.11748694 -606.066471603 -1639.23195175 -648 -1612 c 4
 -702.513586916 -1576.59846272 -648.847081268 -1409.95635309 -454 -1165 c 4
 96.3029387877 -473.174389342 1024.86345022 211.38217298 2302 780 c 5
EndSplineSet
Comment: "It is final part of glyphs like j before o."
Colour: ff292e
EndChar

StartChar: P9505
Encoding: 140 -1 134
Width: 414
VWidth: 0
Flags: HW
HStem: 735 19<492.995 1576.98>
AnchorPoint: "Cursive 1" 1682 811 exit 0
AnchorPoint: "Cursive 1" 463 781 entry 0
LayerCount: 6
Back
Refer: 166 -1 S 1 0 0 1 0 0 2
Refer: 139 -1 N 1 0 0 1 0 0 2
Fore
SplineSet
458 772 m 1
 458 772 481.94911344 736.107421875 517 736.107421875 c 3
 658.00434881 736.107421875 1474.41796875 735 1525 735 c 3
 1590 735 1630.82529411 767.898147937 1687 803 c 1
 1676 819 l 1
 1620.00338421 784.009430983 1584.03388857 754 1525 754 c 3
 1475.14425134 754 656.999591697 754.922851562 518 754.922851562 c 3
 490.99988978 754.922851562 473 783 473 783 c 1
 458 772 l 1
EndSplineSet
Comment: "It is for final part of o before c."
Colour: ff1414
EndChar

StartChar: P9506
Encoding: 141 -1 135
Width: 903
VWidth: 0
Flags: W
HStem: 605 19<117.444 309.112>
VStem: -43 17<729.98 781>
AnchorPoint: "Cursive 1" 730 812 exit 0
AnchorPoint: "Cursive 1" -32 781 entry 0
LayerCount: 6
Back
Refer: 145 -1 S 1 0 0 1 565 0 2
Refer: 139 -1 N 1 0 0 1 0 0 2
Fore
SplineSet
-43 781 m 1
 -26 781 l 1
 -32.0203876065 678.151711721 71.0012706316 620.937957323 219 624 c 0
 364 627 556.570852983 687.946828377 724 819 c 1
 736 804 l 1
 567.789917701 672.400347378 372 608 219 605 c 0
 63 602 -49.5684380297 663.273379928 -43 781 c 1
EndSplineSet
Comment: "It is for final part glyph like b before glyp like b, l and etc."
Colour: ff242b
EndChar

StartChar: Guid.Numbers
Encoding: 176 -1 136
Width: 1153
VWidth: 0
Flags: HW
LayerCount: 6
Back
SplineSet
-400 810 m 29
 1600 810 l 1053
-400 0 m 29
 1600 0 l 1053
-400 162 m 29
 1600 162 l 1053
-400 324 m 29
 1600 324 l 1053
-400 486 m 29
 1600 486 l 1053
-400 648 m 29
 1600 648 l 1053
-400 972 m 29
 1600 972 l 1053
EndSplineSet
EndChar

StartChar: Guid.p_q
Encoding: 177 -1 137
Width: 4096
VWidth: 0
LayerCount: 6
Back
SplineSet
-4096 -968 m 1
 8192 -968 l 1025
  Named: "p and q "
EndSplineSet
EndChar

StartChar: Guid.r_s
Encoding: 178 -1 138
Width: 4096
VWidth: 0
LayerCount: 6
Back
SplineSet
-4096 949 m 1
 8192 949 l 1025
  Named: "r and s"
EndSplineSet
EndChar

StartChar: Guid.b_v_w_o_m_n
Encoding: 179 -1 139
Width: 4096
VWidth: 0
LayerCount: 6
Back
SplineSet
-4096 781 m 1
 8192 781 l 1029
  Named: "final part of b, v, w, and o"
EndSplineSet
EndChar

StartChar: Guid.a_d_g_q
Encoding: 180 -1 140
Width: 4096
VWidth: 0
LayerCount: 6
Back
SplineSet
-4096 647 m 4
 8192 647 l 1028
  Named: "[+AH4A-a] +- [+AH4A-a]"
EndSplineSet
EndChar

StartChar: Guid.Middle_lowercase
Encoding: 181 -1 141
Width: 4096
VWidth: 0
LayerCount: 6
Back
SplineSet
-4096 410 m 4
 8192 410 l 1028
  Named: "Middle"
EndSplineSet
EndChar

StartChar: Guid.General1
Encoding: 182 -1 142
Width: 4096
VWidth: 0
LayerCount: 6
Back
SplineSet
109 143 m 29
 111 143 l 1053
110 144 m 29
 110 142 l 1053
102 148 m 29
 117 136 l 1053
EndSplineSet
EndChar

StartChar: Guid.e
Encoding: 183 -1 143
Width: 4096
VWidth: 0
LayerCount: 6
Back
SplineSet
421 418 m 25
 425 418 l 1049
423 420 m 25
 423 416 l 1049
418 427 m 25
 428 410 l 1033
EndSplineSet
EndChar

StartChar: Guid.g_j
Encoding: 184 -1 144
Width: 4096
VWidth: 0
LayerCount: 6
Back
SplineSet
-656 -1620 m 25
 -652 -1620 l 1049
-654 -1618 m 25
 -654 -1622 l 1049
-648 -1612 m 25
 -660 -1627 l 1049
-312 -960 m 25
 -312 -978 l 1049
-468 -960 m 25
 -468 -978 l 1049
-156 -978 m 25
 -156 -960 l 25
 -156 -978 l 25
-624 -960 m 25
 -624 -978 l 1049
156 -960 m 25
 156 -978 l 1049
0 -960 m 25
 0 -978 l 1049
EndSplineSet
EndChar

StartChar: Guid.General2
Encoding: 185 -1 145
Width: 361
VWidth: 0
Flags: HW
LayerCount: 6
Back
SplineSet
165 813 m 29
 165 811 l 1053
164 812 m 29
 166 812 l 1053
159 819 m 25
 171 804 l 1049
EndSplineSet
EndChar

StartChar: P9507
Encoding: 142 -1 146
Width: 903
VWidth: 0
Flags: HW
HStem: 799.487 20G<1037.5 1178>
AnchorPoint: "Cursive 1" 1398 812 exit 0
AnchorPoint: "Cursive 1" 689 781 entry 0
LayerCount: 6
Back
Refer: 156 -1 N 1 0 0 1 -310 0 2
Refer: 145 -1 N 1 0 0 1 1232 0 2
Refer: 139 -1 N 1 0 0 1 0 0 2
Fore
SplineSet
634 730 m 1
 664 644 783 600 902 600 c 0
 1057 600 1249 666 1404 804 c 1
 1392 819 l 1
 1245 686 1050 620 902 619 c 0
 800 618 680 657 652 738 c 1
 634 730 l 1
EndSplineSet
Comment: "It is final part of glyph like b before s."
Colour: ff2b3d
EndChar

StartChar: P116.1
Encoding: 143 -1 147
Width: 2141
VWidth: 0
Flags: HW
HStem: 819.2 21G<1393 1441.5>
VStem: 562 19<186.301 214>
AnchorPoint: "Cursive 1" 846 9 exit 0
AnchorPoint: "Cursive 1" 1397 812 entry 0
LayerCount: 6
Back
Refer: 145 -1 S 1 0 0 1 1232 0 2
Fore
SplineSet
847 0 m 1
 944 0 1057.66412272 53.3583918972 1165 188.728515625 c 0
 1288.5234375 344.513671875 1324 551 1541 938 c 1
 1525 949 l 1
 1525 949 1484.64436471 900.403804317 1391 819 c 5
 1391 817 l 25
 1401 804 l 25
 1403 804 l 1
NamedP: "41 degree"
 1451.07500026 845.790960147 1490 882 1490 882 c 1
 1300 529 1265.60737894 345.915444877 1149 200.1875 c 0
 1045.20366364 70.4699219134 937 19 847 19 c 1
 847 0 l 1
EndSplineSet
MultipleSubs2: "'ccmp' [s] +- *-1" P116 P9300
Comment: "It is final part 's' when there are not any glyphs after it."
Colour: d1d1d1
EndChar

StartChar: Guid.r_u_v_w_y_z_m_n
Encoding: 186 -1 148
Width: 4096
VWidth: 0
Flags: H
LayerCount: 6
Back
SplineSet
378 779 m 29
 378 783 l 1053
374 781 m 25
 381 781 l 1049
375 789 m 25
 382 772 l 1049
EndSplineSet
EndChar

StartChar: P9508
Encoding: 144 -1 149
Width: 1840
VWidth: 0
Flags: HW
AnchorPoint: "Cursive 1" 1718 819 exit 0
AnchorPoint: "Cursive 1" 630 781 entry 0
LayerCount: 6
Back
Refer: 152 -1 S 1 0 0 1 6 0 2
Refer: 139 -1 N 1 0 0 1 0 0 2
Fore
SplineSet
623 771 m 1
 639 782 l 1
 693 698 1344 678 1708 780 c 1
 1713 761 l 1
 1344 660 685 674 623 771 c 1
EndSplineSet
Comment: "It is final part of o before glyph like a."
Colour: ff4552
EndChar

StartChar: P9509
Encoding: 145 -1 150
Width: 1968
VWidth: 0
Flags: HW
HStem: 799.487 20G<1037.5 1178>
AnchorPoint: "Cursive 1" 1496 811 exit 0
AnchorPoint: "Cursive 1" 628 781 entry 0
LayerCount: 6
Back
Refer: 156 -1 S 1 0 0 1 0 0 2
Refer: 139 -1 N 1 0 0 1 0 0 2
Fore
SplineSet
628 765 m 1
 645 774 l 1
 701 657 860 624 985 624 c 0
 1130 624 1323 688 1490 819 c 1
 1502 804 l 1
 1334 672 1138 605 985 605 c 0
 850 605 691 639 628 765 c 1
EndSplineSet
Comment: "It is final part of o before glyphs like h."
Colour: ff1442
EndChar

StartChar: P9510
Encoding: 146 -1 151
Width: 942
VWidth: 0
Flags: HW
HStem: 799.487 20G<552.5 693>
AnchorPoint: "Cursive 1" 1351 418 exit 0
AnchorPoint: "Cursive 1" 624 781 entry 0
LayerCount: 6
Back
Refer: 143 -1 S 1 0 0 1 928 0 2
Refer: 152 -1 N 1 0 0 1 0 0 2
Refer: 139 -1 N 1 0 0 1 0 0 2
Fore
SplineSet
638 706 m 1
 657 706 l 5
 642.387505233 371.31884577 954.556517489 201 1346 427 c 1
 1356 410 l 1
 951 176 623 357.243164062 638 706 c 1
EndSplineSet
Comment: "It is final part of o before e."
Colour: ff3045
EndChar

StartChar: Guid.o
Encoding: 187 -1 152
Width: 4096
VWidth: 0
AnchorPoint: "Cursive 1" 624 781 exit 0
LayerCount: 6
Back
SplineSet
624 785 m 29
 624 776 l 1053
603 781 m 29
 639 781 l 1053
634 787 m 29
 634 773 l 1053
607 774 m 29
 607 788 l 1053
EndSplineSet
EndChar

StartChar: P9511
Encoding: 147 -1 153
Width: 794
VWidth: 0
Flags: W
HStem: 665 19<804.578 1043.19>
VStem: 627 870
AnchorPoint: "Cursive 1" 1500 812 exit 0
AnchorPoint: "Cursive 1" 624 781 entry 0
LayerCount: 6
Back
Refer: 152 -1 S 1 0 0 1 0 0 2
Refer: 139 -1 N 1 0 0 1 0 0 2
Fore
SplineSet
642 778 m 1
 688.564342921 716.516984105 784 684 916 684 c 0
 1073 684 1278.17258235 730.184960075 1497 819 c 1
 1504 801 l 1
 1281.9306033 711.000652179 1076 665 916 665 c 0
 782 665 681.375317572 696.088877408 627 766 c 1
 642 778 l 1
EndSplineSet
Comment: "It is final part of o before glyphs like j and u."
Colour: ff3d40
EndChar

StartChar: P9512
Encoding: 148 -1 154
Width: 794
VWidth: 0
Flags: HW
AnchorPoint: "Cursive 1" 1301 781 exit 0
AnchorPoint: "Cursive 1" 630 781 entry 0
LayerCount: 6
Back
Refer: 152 -1 S 1 0 0 1 6 0 2
Refer: 148 -1 N 1 0 0 1 923 0 2
Refer: 139 -1 N 1 0 0 1 0 0 2
Fore
SplineSet
1298 789 m 1
 1192 749 1023.92890266 694.684651056 934 685 c 0
 869 678 740 666 646 772 c 1
 631 760 l 1
 732 645 868.96309953 659.362683122 936 666 c 0
 1037 676 1193 731 1305 772 c 1
 1298 789 l 1
EndSplineSet
Comment: "It is final part of o before glyphs like m and v."
Colour: ff3333
EndChar

StartChar: P9513
Encoding: 149 -1 155
Width: 1957
VWidth: 0
Flags: HW
HStem: 799.487 20G<1037.5 1178>
AnchorPoint: "Cursive 1" 630 781 entry 0
AnchorPoint: "Cursive 1" 1404 812 exit 0
LayerCount: 6
Back
Refer: 145 -1 N 1 0 0 1 1232 0 2
Refer: 152 -1 S 1 0 0 1 6 0 2
Refer: 139 -1 N 1 0 0 1 0 0 2
Fore
SplineSet
641 730 m 1
 671 644 790 600 909 600 c 0
 1064 600 1256 666 1411 804 c 1
 1399 819 l 1
 1252 686 1057 620 909 619 c 0
 807 618 687 657 659 738 c 1
 641 730 l 1
EndSplineSet
Comment: "It is final part of o before s and r."
Colour: ff1a29
EndChar

StartChar: Guid.b
Encoding: 190 -1 156
Width: 4096
VWidth: 0
LayerCount: 6
Back
SplineSet
628 787 m 29
 628 776 l 1053
640 787 m 29
 640 776 l 1053
613 787 m 29
 613 776 l 1053
613 781 m 29
 640 781 l 1053
EndSplineSet
EndChar

StartChar: P9006
Encoding: 150 -1 157
Width: 1313
VWidth: 0
Flags: HW
AnchorPoint: "Cursive 1" 1523 819 exit 0
AnchorPoint: "Cursive 1" 110 143 entry 0
LayerCount: 6
Back
Refer: 142 -1 S 1 0 0 1 0 0 2
Refer: 139 -1 N 1 0 0 1 0 0 2
Fore
SplineSet
117 136 m 5
 73 79 57 38 68 25 c 0
 83 7 172 27 304 91 c 0
 490 182 974 532 1425 789 c 1
 1434 772 l 1
 983 515 499 165 313 74 c 0
 44 -57 -14 -2 102 148 c 1
 117 136 l 5
EndSplineSet
Comment: "It is final part of glyphs like a and m before o."
Colour: ff2b59
EndChar

StartChar: P9514
Encoding: 151 -1 158
Width: 903
VWidth: 0
Flags: HW
AnchorPoint: "Cursive 1" 1831 819 exit 0
AnchorPoint: "Cursive 1" 999 781 entry 0
LayerCount: 6
Back
Refer: 156 -1 S 1 0 0 1 0 0 2
Refer: 139 -1 N 1 0 0 1 0 0 2
Fore
SplineSet
991 776 m 1
 1007 787 l 1
 1100 636 1377 648 1775 809 c 1
 1782 790 l 1
 1365 623 1089 619 991 776 c 1
EndSplineSet
Comment: "It is final part of glyphs like b before o."
Colour: ff4259
EndChar

StartChar: P9515
Encoding: 152 -1 159
Width: 903
VWidth: 0
Flags: W
VStem: 624.818 983.376
AnchorPoint: "Cursive 1" 1677 819 exit 0
AnchorPoint: "Cursive 1" 628 781 entry 0
LayerCount: 6
Back
Refer: 156 -1 S 1 0 0 1 -371 0 2
Refer: 139 -1 N 1 0 0 1 0 0 2
Fore
SplineSet
624.818359375 769.20703125 m 1
 734.073242188 627.526367188 1214.80273438 634.639648438 1614.38085938 784.755859375 c 1
 1608.19433594 803.296875 l 1
 1214.87011719 653.830078125 739 651 640.022460938 780.741210938 c 1
 624.818359375 769.20703125 l 1
EndSplineSet
Comment: "It is final part of o before o."
Colour: ff3b3b
EndChar

StartChar: P9304
Encoding: 153 -1 160
Width: 1721
VWidth: 0
Flags: HW
HStem: 0 19<0 79.0476>
AnchorPoint: "Cursive 1" 1535 819 exit 0
AnchorPoint: "Cursive 1" 1 9 entry 0
LayerCount: 6
Fore
SplineSet
0 0 m 1
 7 19 l 17
 525 19 1045 598 1456 799 c 1
 1464 781 l 17
 1037 570 538 0 0 0 c 1
EndSplineSet
Comment: "It final part of glyphs like s before o."
Colour: ff4040
EndChar

StartChar: P9101
Encoding: 154 -1 161
Width: 2225
VWidth: 0
Flags: HW
HStem: 811 16<1378.88 1416.32>
AnchorPoint: "Cursive 1" 1620 819 exit 0
AnchorPoint: "Cursive 1" 634 812 entry 0
LayerCount: 6
Back
Refer: 162 -1 S 1 0 0 1 708 0 2
Fore
SplineSet
626 819 m 25
 -590 -737 l 2
 -784 -984 -656.480543348 -1081.33628792 -439 -782 c 0
 33.5793428431 -131.550336523 923.585173577 697.509676245 1756 785 c 5
 1754 804 l 1
 916.791578041 716.005849052 24.2338369702 -111.767593037 -454 -770 c 0
 -557.723037115 -912.762513022 -642.403343532 -959.988564113 -660 -947.817382812 c 0
 -678.569261205 -934.97347436 -659.745224838 -856.909058135 -577 -751 c 10
 641 807 l 1
 626 819 l 25
EndSplineSet
Comment: "It is final part of q before glyphs like a."
Colour: ff2e3d
EndChar

StartChar: Guid.a_anchors
Encoding: 188 -1 162
Width: 4096
VWidth: 0
Flags: HW
AnchorPoint: "Cursive 1" 1396 814 exit 0
LayerCount: 6
Back
SplineSet
142 272 m 25
 142 0 l 1049
1415 794 m 25
 1415 845 l 1049
1395 814 m 29
 1401 814 l 1053
  Named: "Cursive 1 Exit"
1398 817 m 25
 1398 811 l 1049
596 647 m 25
 624 647 l 1049
  Named: "Cursive 2 entery"
610 661 m 25
 610 634 l 1049
898 819 m 25
 926 819 l 1049
  Named: "Cursive 1 entery"
912 833 m 25
 912 806 l 1049
EndSplineSet
EndChar

StartChar: P9102
Encoding: 155 -1 163
Width: 2225
VWidth: 0
Flags: HW
HStem: 811 16<1378.88 1416.32>
AnchorPoint: "Cursive 1" 1413 812 exit 0
AnchorPoint: "Cursive 1" 634 812 entry 0
LayerCount: 6
Back
Refer: 145 -1 S 1 0 0 1 1248 0 2
Fore
SplineSet
626 819 m 25
 -590 -737 l 2
 -784 -984 -657.068328601 -1082.14530491 -439 -782 c 0
 275.746866788 201.76466516 784.323667205 216.283271814 1419 804 c 1
 1407 819 l 5
 771 233 261.33465204 214.573682154 -454 -770 c 0
 -557.72058562 -912.759138827 -642.403343532 -959.988564113 -660 -947.817382812 c 0
 -678.569261205 -934.97347436 -659.745224838 -856.909058135 -577 -751 c 10
 641 807 l 1
 626 819 l 25
EndSplineSet
Comment: "It is final part of 'q' before glyphs like 's' and 'p'."
Colour: ff1a1f
EndChar

StartChar: P9103
Encoding: 156 -1 164
Width: 2225
VWidth: 0
Flags: W
AnchorPoint: "Cursive 1" 1415 812 exit 0
AnchorPoint: "Cursive 1" 634 812 entry 0
LayerCount: 6
Fore
SplineSet
626 819 m 25
 -590 -737 l 2
 -784 -984 -657.068328601 -1082.14530491 -439 -782 c 0
 275.746866788 201.76466516 765.104525503 235.577336102 1419 804 c 1
 1407 819 l 1
 756.862979213 253.844510066 261.33465204 214.573682154 -454 -770 c 0
 -557.72058562 -912.759138827 -642.403343532 -959.988564113 -660 -947.817382812 c 0
 -678.569261205 -934.97347436 -659.745224838 -856.909058135 -577 -751 c 10
 641 807 l 1
 626 819 l 25
EndSplineSet
Comment: "It is final part of 'q' before glyphs like h."
Colour: ff4c40
EndChar

StartChar: Guid.General3
Encoding: 189 -1 165
Width: 1313
VWidth: 0
Flags: HW
LayerCount: 6
Back
SplineSet
-4096 136 m 1
 8192 136 l 1029
  Named: "For final part of glyphs like u"
EndSplineSet
EndChar

StartChar: Guid.General4
Encoding: 191 -1 166
Width: 4096
VWidth: 0
LayerCount: 6
Back
SplineSet
1682 812 m 29
 1682 810 l 1053
1681 811 m 29
 1683 811 l 1053
1676 819 m 25
 1687 803 l 1049
EndSplineSet
EndChar

StartChar: P9007
Encoding: 118 -1 167
Width: 2857
VWidth: 0
Flags: HW
AnchorPoint: "Cursive 1" 1404 418 exit 0
AnchorPoint: "Cursive 1" 110 143 entry 0
LayerCount: 6
Back
Refer: 141 -1 S 1 0 0 1 0 0 2
Refer: 143 -1 N 1 0 0 1 981 0 2
Fore
SplineSet
117 136 m 1
 83.3417871439 92.9194521003 71.6203158058 69.1475059432 78.7890625 53 c 0
 89 30 148.188226921 19 222 19 c 0
 422 19 942.763211038 130.716364952 1399 427 c 1
 1409 410 l 1
 957 116 433 -0 222 -0 c 0
 -7 0 55 89 102 148 c 1
 117 136 l 1
EndSplineSet
Comment: "It is final part of 'c' and 'e' before 'e'."
Colour: ff292e
EndChar

StartChar: P9008
Encoding: 119 -1 168
Width: 1313
VWidth: 0
Flags: HW
HStem: 389.6 429.601G<223.887 322 1447.1 1837>
AnchorPoint: "Cursive 1" 110 143 entry 0
AnchorPoint: "Cursive 1" 1983 811 exit 0
LayerCount: 6
Back
Refer: 166 -1 S 1 0 0 1 301 0 2
Refer: 142 -1 S 1 0 0 1 0 0 2
Refer: 141 -1 S 1 0 0 1 0 0 2
Fore
SplineSet
117 136 m 1
 42.2320395201 39.8196189132 49.9019156514 7.25380944798 170 22 c 0
 448.905468611 56.2452854968 1341.28808594 406.1640625 1977 819 c 5
 1988 803 l 5
 1347.28125 386.912109375 456.533203125 37.9365234375 172 3 c 0
 46.7900390625 -12.3740234375 8.99923160894 28.3652087364 102 148 c 1
 117 136 l 1
EndSplineSet
Comment: "It is fianl part of 'c' and 'e' before 'c'."
Colour: ff3d29
EndChar

StartChar: P9009
Encoding: 133 -1 169
Width: 1144
VWidth: 0
Flags: HW
HStem: 605.857 20G<726.251 1147.35>
AnchorPoint: "cursive 2" 1562 647 exit 0
AnchorPoint: "Cursive 1" 110 143 entry 0
LayerCount: 6
Back
Refer: 165 -1 N 1 0 0 1 0 0 2
Refer: 142 -1 N 1 0 0 1 0 0 2
Refer: 140 -1 N 1 0 0 1 0 0 2
Fore
SplineSet
117 136 m 1
 69.5059647278 75.2104069742 51.0009734644 37.7246222037 60 27 c 4
 67.7134513162 17.8074666826 100.347655731 18.2401882298 152 28 c 0
 388.809683967 72.7456543079 1063.50877343 311.854138189 1555 656 c 1
 1565 640 l 1
 1067.01269531 291.305664062 397.411573225 55.925656233 156 9 c 0
 11.8578643825 -19.0183928811 6.05531568525 25.1964041579 102 148 c 1
 117 136 l 1
EndSplineSet
Comment: "It is final part of glyphs like 'c' and 'e' before glyphs like 'a'."
Colour: ff2638
EndChar

StartChar: P9011
Encoding: 161 -1 170
Width: 1313
VWidth: 0
Flags: W
HStem: 5 814
AnchorPoint: "Cursive 1" 110 143 entry 0
AnchorPoint: "Cursive 1" 1614 811 exit 0
LayerCount: 6
Fore
SplineSet
117 136 m 5
 41.4429203878 38.9426575653 53.7926851446 3.5095150353 170 24 c 4
 451.655017361 73.6633788127 1018.92336122 341.975143584 1608 819 c 5
 1619 803 l 5
 1025.28379983 322.21810085 458.401790731 55.5003630291 172 5 c 4
 47.7665019575 -16.9057176127 8.99923160894 28.3652087364 102 148 c 5
 117 136 l 5
EndSplineSet
Substitution2: "* +- [p, r, s]" P9015
Substitution2: "* +- [b, f, h, k, l]" P9015
Substitution2: "* +- [c]" P9008
Substitution2: "* +- [m, n, v, x, y, z] - 1" P9001
Substitution2: "* +- [o]" P9013
Substitution2: "* +- [a, d, g, q]" P9009
Substitution2: "* +- [e]" P9007
Comment: "It is same as P9003."
Colour: ff2424
EndChar

StartChar: P9012
Encoding: 162 -1 171
Width: 1313
VWidth: 0
Flags: HW
AnchorPoint: "Cursive 1" 110 143 entry 0
AnchorPoint: "Cursive 1" 1392 812 exit 0
LayerCount: 6
Back
Refer: 145 -1 S 1 0 0 1 1227 0 2
Refer: 165 -1 N 1 0 0 1 0 0 2
Refer: 142 -1 N 1 0 0 1 0 0 2
Fore
SplineSet
102 148 m 1
 6 24 19 -26 158 14 c 0
 441 95 878 367 1398 804 c 1
 1386 819 l 1
 867 383 432 114 151 32 c 0
 29 -4 45 44 117 136 c 1
 102 148 l 1
EndSplineSet
Comment: "It is same as P9000, it because of preventing of confilict in parts of 'u' in patters like 'uu' and conflilct in parts of 'y'."
Colour: ff2929
EndChar

StartChar: P9013
Encoding: 163 -1 172
Width: 1313
VWidth: 0
Flags: HW
AnchorPoint: "Cursive 1" 1732 819 exit 0
AnchorPoint: "Cursive 1" 110 143 entry 0
LayerCount: 6
Fore
SplineSet
117 136 m 1
 75.1350196779 82.4152687547 55.3099351301 40.6873073808 67 27 c 0
 89.0812336432 1.1461971696 256.204892687 34.3610685841 544 181 c 0
 920.984860384 373.08338044 1183 532 1634 789 c 1
 1643 772 l 1
 1192 515 926.492114809 354.303737681 553 164 c 0
 256.294827445 12.8211635867 -95.8797547844 -105.274536317 102 148 c 1
 117 136 l 1
EndSplineSet
Comment: "It is final part of 'c' and 'e' before 'o'."
Colour: ff3824
EndChar

StartChar: P9305
Encoding: 164 -1 173
Width: 1427
VWidth: 0
Flags: HW
HStem: 0 19<0 79.0476>
AnchorPoint: "Cursive 1" 1599 812 exit 0
AnchorPoint: "Cursive 1" 1 9 entry 0
LayerCount: 6
Fore
SplineSet
0 0 m 1
 0 19 l 17
 404 19 1298 560 1593 819 c 5
 1605 804 l 21
 1309 545 413 -1 0 0 c 1
EndSplineSet
Comment: "It is for final part of 's' and 'f' before glyphs like 'l'."
Colour: ff1a21
EndChar

StartChar: P9104
Encoding: 157 -1 174
Width: 2225
VWidth: 0
Flags: HW
HStem: 811 16<1378.88 1416.32>
AnchorPoint: "Cursive 1" 1203 418 exit 0
AnchorPoint: "Cursive 1" 634 812 entry 0
LayerCount: 6
Back
Refer: 143 -1 S 1 0 0 1 780 0 2
Refer: 141 -1 N 1 0 0 1 0 0 2
Fore
SplineSet
626 819 m 25
 -590 -737 l 2
 -784 -984 -657.068328601 -1082.14530491 -439 -782 c 0
 28.2892755725 -138.831489472 453.983476745 -61.161816215 1208 410 c 1
 1198 427 l 1
 443.559570312 -44.4267578125 16.228201834 -122.7864045 -454 -770 c 0
 -557.72058562 -912.759138827 -642.403343532 -959.988564113 -660 -947.817382812 c 0
 -678.569261205 -934.97347436 -659.745224838 -856.909058135 -577 -751 c 10
 641 807 l 1
 626 819 l 25
EndSplineSet
Comment: "It is for final part of 'q' before 'e'."
Colour: ff333d
EndChar

StartChar: P9105
Encoding: 158 -1 175
Width: 2225
VWidth: 0
Flags: HW
HStem: 811 16<1378.88 1416.32>
AnchorPoint: "Cursive 1" 1682 811 exit 0
AnchorPoint: "Cursive 1" 634 812 entry 0
LayerCount: 6
Back
Refer: 166 -1 S 1 0 0 1 0 0 2
Fore
SplineSet
626 819 m 25
 -590 -737 l 2
 -784 -984 -657.068328601 -1082.14530491 -439 -782 c 0
 90.0067270632 -53.8847050625 953.438396825 344.619836438 1687 803 c 1
 1676 819 l 1
 942.599525963 360.720521098 77.9456533247 -37.8396200907 -454 -770 c 0
 -557.72058562 -912.759138827 -642.403343532 -959.988564113 -660 -947.817382812 c 0
 -678.569261205 -934.97347436 -659.745224838 -856.909058135 -577 -751 c 10
 641 807 l 1
 626 819 l 25
EndSplineSet
Comment: "It is final part of 'q' before 'c'."
Colour: ff172e
EndChar

StartChar: P9106
Encoding: 159 -1 176
Width: 2225
VWidth: 0
Flags: HW
HStem: 811 16<1378.88 1416.32>
AnchorPoint: "Cursive 1" 729 417 exit 0
AnchorPoint: "Cursive 1" 634 812 entry 0
LayerCount: 6
Back
Refer: 145 -1 S 1 0 0 1 567 -394 2
Refer: 141 -1 N 1 0 0 1 0 0 2
Fore
SplineSet
626 819 m 25
 -590 -737 l 2
 -784 -984 -656.480543348 -1081.33628792 -439 -782 c 0
 -86.9166338768 -297.398820369 213.756987645 29.1151565145 738 410 c 1
 726 425 l 1
 200.138953656 42.9395860099 -101.328848625 -284.589803375 -454 -770 c 0
 -557.72058562 -912.759138827 -642.403343532 -959.988564113 -660 -947.817382812 c 0
 -678.569261205 -934.97347436 -659.745224838 -856.909058135 -577 -751 c 10
 641 807 l 1
 626 819 l 25
EndSplineSet
Comment: "It is final part of 'q' before glyphs like 'm'."
Colour: ff1a2e
EndChar

StartChar: P9107
Encoding: 160 -1 177
Width: 2225
VWidth: 0
Flags: HW
HStem: 811 16<1378.88 1416.32>
AnchorPoint: "Cursive 1" 1592 819 exit 0
AnchorPoint: "Cursive 1" 634 812 entry 0
LayerCount: 6
Fore
SplineSet
626 819 m 25
 -590 -737 l 2
 -784 -984 -656.480543348 -1081.33628792 -439 -782 c 0
 33.5793428431 -131.550336523 870.741456281 673.938582444 1580 799 c 1
 1577 818 l 1
 863.487086788 692.188422317 24.2338369702 -111.767593037 -454 -770 c 0
 -557.723037115 -912.762513022 -642.403343532 -959.988564113 -660 -947.817382812 c 0
 -678.569261205 -934.97347436 -659.745224838 -856.909058135 -577 -751 c 10
 641 807 l 1
 626 819 l 25
EndSplineSet
Comment: "It is final part of 'q' before 'o'."
Colour: ff3038
EndChar

StartChar: P105.3
Encoding: 165 -1 178
Width: 2934
VWidth: 0
Flags: HW
AnchorPoint: "Cursive 1" 889 143 exit 0
AnchorPoint: "Cursive 1" 478 418 entry 0
LayerCount: 6
Back
Refer: 142 -1 S 1 0 0 1 779 0 2
Refer: 141 -1 N 1 0 0 1 0 0 2
Refer: 166 -1 N 1 0 0 1 -1204 -393 2
Fore
SplineSet
472 426 m 1
 684 550 906 668 1134 774 c 0
 1332 867 1424 812 1292 643 c 2
 896 136 l 5
 894 136 l 25
 881 146 l 25
 881 148 l 1
 1277 655 l 2
 1399 811 1316 837 1142 756 c 0
 915 650 694 533 483 410 c 1
 472 426 l 1
EndSplineSet
Comment: "It is default initial part of glyphs like 'm' after glyphs like 'j'."
Colour: 6badff
EndChar

StartChar: P105.1
Encoding: 166 -1 179
Width: 793
VWidth: 0
Flags: HW
AnchorPoint: "Cursive 1" 890 143 exit 0
AnchorPoint: "Cursive 1" 549 418 entry 0
LayerCount: 6
Back
Refer: 165 -1 S 1 0 0 1 0 0 2
Refer: 142 -1 S 1 0 0 1 780 0 2
Refer: 145 -1 S 1 0 0 1 384 -394 2
Refer: 141 -1 S 1 0 0 1 0 0 2
Fore
SplineSet
895 136 m 25
 882 146 l 25
 882 148 l 1
 1275 650 l 2
 1409.55 817.37 1344 834 1143 756 c 0
 990 697 773 567 555 410 c 5
NamedP: "36 degree"
 553 410 l 25
 543 423 l 25
 543 425 l 1
 772 592 984 713 1135 774 c 0
 1346 859 1440.22 826.59 1293 643 c 2
 897 136 l 1
 895 136 l 25
EndSplineSet
Comment: "It is intial part of glyphs like 'm' after glyphs like 'm'."
Colour: 87baff
EndChar

StartChar: P9208
Encoding: 167 -1 180
Width: 3091
VWidth: 0
Flags: HW
AnchorPoint: "Cursive 1" 3294 812 exit 0
AnchorPoint: "Cursive 1" 226 -1620 entry 0
LayerCount: 6
Back
Refer: 145 -1 S 1 0 0 1 3129 0 2
Refer: 144 -1 S 1 0 0 1 1218 0 2
Fore
SplineSet
220 -1627 m 1
 110.97265625 -1556.19726562 418.569403936 -1068.6161429 890 -629 c 0
 2024.32959121 428.779456457 2684.9870454 294.808835837 3288 819 c 1
 3300 804 l 1
 2689.27039691 274.969422516 2032.2101153 410.005467936 903 -643 c 0
 414.455727318 -1098.57490452 148.1328125 -1557.53613281 232 -1612 c 1
 220 -1627 l 1
EndSplineSet
Layer: 5
SplineSet
220 -1627 m 4
 281.684570312 -1667.05859375 443.19921875 -1597.10839844 661 -1401 c 0
 822.514648438 -1255.57128906 1012.04589844 -1039.16699219 1217 -746 c 2
 2302 807 l 1
 2287 819 l 1
 1201 -735 l 2
 988.041992188 -1039.45019531 800.872070312 -1248.94042969 648 -1386.58691406 c 0
 419.735351562 -1592.1171875 273.93359375 -1639.23242188 232 -1612 c 0
 148.1328125 -1557.53613281 414.455727318 -1098.57490452 903 -643 c 0
 2032.2101153 410.005467936 2689.27039691 274.969422516 3300 804 c 1
 3288 819 l 1
 2684.9870454 294.808835837 2024.32959121 428.779456457 890 -629 c 0
 418.569403936 -1068.6161429 110.97265625 -1556.19726562 220 -1627 c 4
EndSplineSet
Refer: 57 -1 N 1 0 0 1 880 0 2
Refer: 76 -1 N 1 0 0 1 880 0 2
Comment: "It is final part of glyphs like 'j' before glyphs like 'h'."
Colour: ff0a26
EndChar

StartChar: P9209
Encoding: 168 -1 181
Width: 2212
VWidth: 0
Flags: HW
AnchorPoint: "Cursive 1" -654 -1620 entry 0
AnchorPoint: "Cursive 1" 2402 814 exit 0
LayerCount: 6
Back
Refer: 142 -1 S 1 0 0 1 2292 671 2
Refer: 144 -1 N 1 0 0 1 0 0 2
Fore
SplineSet
-660 -1627 m 1
 -725.365984066 -1584.55083361 -679.345484313 -1418.38995239 -469 -1153 c 0
 -55.9367261149 -631.843850878 712.237632742 105.13422825 2394 819 c 1
 2401 801 l 1
 730.283690984 91.823001792 -34.4251349062 -637.522102281 -454 -1165 c 0
 -648.847081268 -1409.95635309 -702.513586916 -1576.59846272 -648 -1612 c 1
 -660 -1627 l 1
EndSplineSet
Layer: 5
SplineSet
2401 801 m 5
 2394 819 l 5
 712.237632742 105.13422825 -55.9367261149 -631.843850878 -469 -1153 c 4
 -679.345484313 -1418.38995239 -725.365984066 -1584.55083361 -660 -1627 c 4
 -598.315779728 -1667.05820103 -436.800885451 -1597.10879811 -219 -1401 c 4
 -57.4849036307 -1255.57115401 132.045705741 -1039.16722311 337 -746 c 6
 1422 807 l 5
 1407 819 l 5
 321 -735 l 6
 108.041664406 -1039.45009523 -79.1277000776 -1248.94047285 -232.000022127 -1386.58732989 c 4
 -460.26438672 -1592.11748694 -606.066471603 -1639.23195175 -648 -1612 c 4
 -702.513586916 -1576.59846272 -648.847081268 -1409.95635309 -454 -1165 c 4
 -34.4251349062 -637.522102281 730.283690984 91.823001792 2401 801 c 5
EndSplineSet
Comment: "It is final part of glyphs like 'j' before glyphs like 'i'."
Colour: ff4559
EndChar

StartChar: P9014
Encoding: 169 -1 182
Width: 1313
VWidth: 0
Flags: HW
HStem: 389.6 429.601G<223.887 322 1447.1 1837>
AnchorPoint: "Cursive 1" 110 143 entry 0
AnchorPoint: "Cursive 1" 1877 811 exit 0
LayerCount: 6
Back
Refer: 166 -1 S 1 0 0 1 301 0 2
Refer: 142 -1 S 1 0 0 1 0 0 2
Refer: 141 -1 S 1 0 0 1 0 0 2
Fore
SplineSet
117 136 m 1
 42.2320395201 39.8196189132 49.9019156514 7.25380944798 170 22 c 0
 448.905468611 56.2452854968 1235.28808594 406.1640625 1871 819 c 5
 1882 803 l 5
 1241.28125 386.912109375 456.533203125 37.9365234375 172 3 c 0
 46.7900390625 -12.3740234375 8.99923160894 28.3652087364 102 148 c 1
 117 136 l 1
EndSplineSet
Comment: "It is final part of glyphs like 'i' before 'c'."
Colour: ff3045
EndChar

StartChar: Guid.ruller_with_four_part
Encoding: 192 -1 184
Width: 4096
VWidth: 0
LayerCount: 6
Back
SplineSet
2196 816 m 29
 2196 824 l 1053
2002 815 m 29
 2002 822 l 1053
1808 816 m 29
 1808 823 l 1053
1614 816 m 29
 1614 823 l 1053
1420 823 m 29
 1420 816 l 1053
EndSplineSet
EndChar

StartChar: P9210
Encoding: 172 -1 185
Width: 2238
VWidth: 0
Flags: HW
AnchorPoint: "Cursive 1" 2538 811 exit 0
AnchorPoint: "Cursive 1" -657 -1620 entry 0
LayerCount: 6
Back
Refer: 166 -1 N 1 0 0 1 856 0 2
Refer: 184 -1 N 1 0 0 1 775 0 2
Refer: 144 -1 S 1 0 0 1 -3 0 2
Fore
SplineSet
-663 -1627 m 1
 -772.02734375 -1556.19726562 -456.678246827 -1061.38696028 7 -629 c 0
 1077.70181917 369.445599131 1647.48583571 266.294207405 2532 819 c 1
 2543 803 l 1
 1652.54949904 246.584772555 1087.77640436 352.717605691 20 -643 c 0
 -468.544272682 -1098.57490452 -734.8671875 -1557.53613281 -651 -1612 c 1
 -663 -1627 l 1
EndSplineSet
Layer: 5
SplineSet
-663 -1627 m 4
 -601.315429688 -1667.05859375 -439.80078125 -1597.10839844 -222 -1401 c 4
 -60.4853515625 -1255.57128906 129.045898438 -1039.16699219 334 -746 c 6
 1419 807 l 5
 1404 819 l 5
 318 -735 l 6
 105.041992188 -1039.45019531 -82.1279296875 -1248.94042969 -235 -1386.58691406 c 4
 -463.264648438 -1592.1171875 -609.06640625 -1639.23242188 -651 -1612 c 4
 -734.8671875 -1557.53613281 -468.544272682 -1098.57490452 20 -643 c 4
 1087.77640436 352.717605691 1652.54949904 246.584772555 2543 803 c 5
 2532 819 l 5
 1647.48583571 266.294207405 1077.70181917 369.445599131 7 -629 c 4
 -456.678246827 -1061.38696028 -772.02734375 -1556.19726562 -663 -1627 c 4
EndSplineSet
Refer: 57 -1 N 1 0 0 1 -3 0 2
Refer: 76 -1 N 1 0 0 1 -3 0 2
Comment: "It is final part of glyphs like 'j' before 'c'."
Colour: ff3b42
EndChar

StartChar: Guid.A_H
Encoding: 193 -1 186
Width: 4096
VWidth: 0
LayerCount: 6
Back
SplineSet
2314 855 m 29
 2314 851 l 1053
2312 853 m 29
 2316 853 l 1053
2318 861 m 25
 2309 844 l 1049
EndSplineSet
EndChar

StartChar: A_H.P00
Encoding: 204 -1 187
Width: 3492
VWidth: 0
Flags: W
VStem: 1131 19<654.774 743.021>
AnchorPoint: "Cursive 1" 1429 853 entry 0
LayerCount: 6
Back
Refer: 184 -1 S 1 0 0 1 776 0 2
Refer: 184 -1 S 1 0 0 1 0 0 2
Refer: 186 -1 S 1 0 0 1 -885 0 2
Refer: 186 -1 N 1 0 0 1 0 0 2
Fore
SplineSet
1131 693 m 3
 1131 837 1295 923 1433 861 c 1
 1424 844 l 1
 1295 902 1150 818 1150 693 c 3
 1150 501 1577 463 1800 819 c 9
 1817 810 l 17
 1583 436 1131 478 1131 693 c 3
EndSplineSet
Substitution2: "* +- [p, r, s]" A_H.P07
Substitution2: "* +- [t]" A_H.P05
Substitution2: "* +- [o]" A_H.P08
Substitution2: "* +- [m, n, v, x, y, z] - 1" A_H.P06
Substitution2: "* +- [i, j, u, w]" A_H.P05
Substitution2: "* +- [e]" A_H.P04
Substitution2: "* +- [c]" A_H.P03
Substitution2: "* +- [b, f, h, k, l]" A_H.P02
Substitution2: "* +- [a, d, g, q]" A_H.P01
Colour: 70ff29
EndChar

StartChar: A_H.P01
Encoding: 205 -1 188
Width: 2655
VWidth: 0
Flags: HW
AnchorPoint: "Cursive 1" 2490 819 exit 0
AnchorPoint: "Cursive 1" 1429 853 entry 0
LayerCount: 6
Back
Refer: 162 -1 S 1 0 0 1 1578 0 2
Refer: 184 -1 N 1 0 0 1 776 0 2
Refer: 184 -1 N 1 0 0 1 0 0 2
Refer: 186 -1 N 1 0 0 1 -885 0 2
Fore
SplineSet
1433 861 m 1
 1424 844 l 1
 1294.78813047 901.528830797 1150 818 1150 693 c 3
 1150 404.954216293 1659.31488333 314.966686011 2186 657 c 1
 2197 641 l 1
 1656.18359375 289.7890625 1131 385.993485411 1131 693 c 3
 1131 837 1294.78970771 922.535186731 1433 861 c 1
EndSplineSet
Comment: "It is final part of 'A' and 'H' before glyphs like glyphs like 'a'."
Colour: ff334c
EndChar

StartChar: A_H.P02
Encoding: 206 -1 189
Width: 2655
VWidth: 0
Flags: HW
AnchorPoint: "Cursive 1" 2278 812 exit 0
AnchorPoint: "Cursive 1" 1429 853 entry 0
LayerCount: 6
Back
Refer: 145 -1 S 1 0 0 1 2113 0 2
Refer: 184 -1 N 1 0 0 1 776 0 2
Refer: 184 -1 N 1 0 0 1 0 0 2
Refer: 186 -1 N 1 0 0 1 -885 0 2
Fore
SplineSet
2284 804 m 1
 2272 819 l 1
 1729 393 1150 410.954216293 1150 693 c 3
 1150 818 1294.78813047 901.528830797 1424 844 c 1
 1433 861 l 1
 1294.78970771 922.535186731 1131 837 1131 693 c 3
 1131 385.993485411 1734 371 2284 804 c 1
EndSplineSet
Comment: "It is final part of 'A' and 'H' before glyphs like glyphs like 'l'."
Colour: ff1424
EndChar

StartChar: A_H.P03
Encoding: 207 -1 190
Width: 2655
VWidth: 0
Flags: HW
AnchorPoint: "Cursive 1" 2688 811 exit 0
AnchorPoint: "Cursive 1" 1429 853 entry 0
LayerCount: 6
Back
Refer: 166 -1 S 1 0 0 1 1006 0 2
Refer: 184 -1 N 1 0 0 1 776 0 2
Refer: 184 -1 N 1 0 0 1 0 0 2
Refer: 186 -1 N 1 0 0 1 -885 0 2
Fore
SplineSet
1440 653.922851562 m 3
 1579 653.922851562 2319.14453125 653 2369 653 c 3
 2444.02832031 653 2626.00292969 784.009765625 2682 819 c 1
 2693 803 l 1
 2636.82519531 767.8984375 2452.05371094 634 2369 634 c 3
 2318.41796875 634 1580.00390625 635.107421875 1439 635.107421875 c 3
 1056.9999849 635.107421875 1204.61363559 962.684160769 1433 861 c 1
 1424 844 l 1
 1224.84709023 932.668588191 1090.99877987 653.922851562 1440 653.922851562 c 3
EndSplineSet
Comment: "It is final part of 'A' and 'H' before 'c'."
Colour: ff1a24
EndChar

StartChar: A_H.P04
Encoding: 208 -1 191
Width: 2655
VWidth: 0
Flags: HW
AnchorPoint: "Cursive 1" 2107 418 exit 0
AnchorPoint: "Cursive 1" 1429 853 entry 0
LayerCount: 6
Back
Refer: 143 -1 S 1 0 0 1 1684 0 2
Refer: 184 -1 N 1 0 0 1 776 0 2
Refer: 184 -1 N 1 0 0 1 0 0 2
Refer: 186 -1 N 1 0 0 1 -885 0 2
Fore
SplineSet
2102 427 m 1
 2112 410 l 1
 1620.32273726 126.13 1131 385.993485411 1131 693 c 3
 1131 837 1294.78970771 922.535186731 1433 861 c 1
 1424 844 l 1
 1294.78813047 901.528830797 1150 818 1150 693 c 3
 1150 400.954216293 1623.08795171 150.5 2102 427 c 1
EndSplineSet
Comment: "It is final part of 'A' and 'H' before 'e'."
Colour: ff1a21
EndChar

StartChar: A_H.P05
Encoding: 209 -1 192
Width: 2655
VWidth: 0
Flags: HW
AnchorPoint: "Cursive 1" 2191 814 exit 0
AnchorPoint: "Cursive 1" 1429 853 entry 0
LayerCount: 6
Back
Refer: 142 -1 S 1 0 0 1 2081 671 2
Refer: 184 -1 N 1 0 0 1 776 0 2
Refer: 184 -1 N 1 0 0 1 0 0 2
Refer: 186 -1 N 1 0 0 1 -885 0 2
Fore
SplineSet
1131 693 m 3
 1131 837 1295 923 1433 861 c 1
 1424 844 l 1
 1295 902 1150 818 1150 693 c 3
 1150 385.349223957 1857.77682566 402.733319407 2183 819 c 9
 2198 807 l 17
 1863.08015742 378.322150038 1131 361.084894834 1131 693 c 3
EndSplineSet
Comment: "It is final part of 'A' and 'H' before 'i'."
Colour: ff2e1f
EndChar

StartChar: A_H.P06
Encoding: 210 -1 193
Width: 2655
VWidth: 0
Flags: HW
AnchorPoint: "Cursive 1" 2145 781 exit 0
AnchorPoint: "Cursive 1" 1429 853 entry 0
LayerCount: 6
Back
Refer: 148 -1 S 1 0 0 1 1767 0 2
Refer: 184 -1 N 1 0 0 1 776 0 2
Refer: 184 -1 N 1 0 0 1 0 0 2
Refer: 186 -1 N 1 0 0 1 -885 0 2
Fore
SplineSet
2142 789 m 1
 2149 772 l 1
 1491.21516545 532.585899672 1131 456.250190573 1131 693 c 3
 1131 804.543713404 1294.78970771 922.535186731 1433 861 c 1
 1424 844 l 1
 1294.78813047 901.528830797 1150 785 1150 693 c 3
 1150 486.52734375 1484.21516545 549.585899672 2142 789 c 1
EndSplineSet
Comment: "It is final part of 'A' and 'H' before glyphs like 'm'."
Colour: ff5970
EndChar

StartChar: A_H.P07
Encoding: 211 -1 194
Width: 2655
VWidth: 0
Flags: HW
AnchorPoint: "Cursive 1" 2201 812 exit 0
AnchorPoint: "Cursive 1" 1429 853 entry 0
LayerCount: 6
Back
Refer: 145 -1 N 1 0 0 1 2036 0 2
Refer: 184 -1 N 1 0 0 1 776 0 2
Refer: 184 -1 N 1 0 0 1 0 0 2
Refer: 186 -1 N 1 0 0 1 -885 0 2
Fore
SplineSet
2195 819 m 1
 2207 804 l 1
 1835.42758726 469.434696821 1131 382.993421124 1131 693 c 3
 1131 837 1294.78970771 922.535186731 1433 861 c 1
 1424 844 l 1
 1294.78813047 901.528830797 1150 818 1150 693 c 3
 1150 411 1830.11589069 490.456872278 2195 819 c 1
EndSplineSet
Comment: "It is final part of 'A' and 'H' before glyphs like 's'."
Colour: ff5763
EndChar

StartChar: A_H.P08
Encoding: 212 -1 195
Width: 2655
VWidth: 0
Flags: HW
AnchorPoint: "Cursive 1" 2455 819 exit 0
AnchorPoint: "Cursive 1" 1429 853 entry 0
LayerCount: 6
Back
Refer: 184 -1 S 1 0 0 1 776 0 2
Refer: 184 -1 S 1 0 0 1 0 0 2
Refer: 186 -1 S 1 0 0 1 -885 0 2
Fore
SplineSet
2386.19433594 803.296875 m 1
 2394.38085938 785.755859375 l 1
 1894.7421875 552.770507812 1131 378.974523327 1131 693 c 3
 1131 829.528385327 1294.78970771 922.535186731 1433 861 c 1
 1424 844 l 1
 1294.78813047 901.528830797 1150 799.569226327 1150 693 c 3
 1150 410.700513638 1885.00612971 569.588976257 2386.19433594 803.296875 c 1
EndSplineSet
Comment: "It is final part of 'A' and 'H' before 'o'."
Colour: ff363b
EndChar

StartChar: D.P00
Encoding: 213 -1 196
Width: 3332
VWidth: 0
Flags: HW
AnchorPoint: "Cursive 1" 163 848 entry 0
LayerCount: 6
Back
Refer: 205 -1 S 1 0 0 1 0 0 2
Fore
SplineSet
132 848 m 1
 132 2680 2415 2980 2415 1578 c 3
 2415 872 1918 0 905 0 c 3
 647 0 596 84 438 84 c 3
 290.997070312 84 295.930664062 19 411 19 c 3
 879 19 1177 615 1496 962 c 0
 1777 1267 2128 1558 2545 1638 c 1
 2549 1619 l 1
 2123 1537 1833 1241 1546 930 c 0
 1229 585 927 0 411 0 c 3
 257 0 265 103 438 103 c 3
 623.010742188 103 657.926757812 19 905 19 c 3
 1893.00097656 19 2396 883 2396 1578 c 3
 2396 2932 194 2664.01367188 194 848 c 1
 132 848 l 1
194 848 m 5
 194 -504.002929688 1560 -381 2139 262 c 5
 2153 249 l 21
 1545.88964844 -449.400390625 132 -486.594726562 132 848 c 5
 194 848 l 5
EndSplineSet
Substitution2: "* +- [b, f, h, k, l]" D.P02
Comment: "It is default final part of 'D'."
Colour: ff5959
EndChar

StartChar: D.P01
Encoding: 214 -1 197
Width: 3332
VWidth: 0
Flags: HW
AnchorPoint: "Cursive 1" 3264 819 exit 0
AnchorPoint: "Cursive 1" 163 848 entry 0
LayerCount: 6
Back
Refer: 162 -1 S 1 0 0 1 2352 0 2
Refer: 184 -1 S 1 0 0 1 1551 0 2
Refer: 184 -1 S 1 0 0 1 775 0 2
Refer: 205 -1 S 1 0 0 1 0 0 2
Fore
SplineSet
132 848 m 1
 132 2680 2415 2980 2415 1578 c 3
 2415 872 1918 0 905 0 c 3
 647 0 596 84 438 84 c 3
 290.997070312 84 295.930664062 19 411 19 c 3
 879 19 1177 615 1496 962 c 0
 1777 1267 2128 1558 2545 1638 c 1
 2549 1619 l 1
 2123 1537 1833 1241 1546 930 c 0
 1229 585 927 0 411 0 c 3
 257 0 265 103 438 103 c 3
 623.010742188 103 657.926757812 19 905 19 c 3
 1893.00097656 19 2396 883 2396 1578 c 3
 2396 2932 194 2664.01367188 194 848 c 1
 132 848 l 1
3725 798 m 1
 3519 526 3144 236 2923 127 c 0
 2403 -130 2455 126 2668 374 c 0
 3016 779 3437 806 3725 798 c 1
3767 819 m 1
 3323 819 3017 803 2650 384 c 0
 2427 129 2381 -162 2932 108 c 0
 3163 221 3536 516 3767 819 c 1
194 848 m 7
 194 -608.005494495 1972 -584 2615 341 c 4
 2629 328 l 21
 1996 -608 132 -632.001351351 132 848 c 7
 194 848 l 7
EndSplineSet
Comment: "It is final part of 'D' before glyphs like 'a'."
Colour: ff5445
EndChar

StartChar: D.P02
Encoding: 215 -1 198
Width: 3332
VWidth: 0
Flags: HW
AnchorPoint: "Cursive 1" 163 848 entry 0
AnchorPoint: "Cursive 1" 3199 812 exit 0
LayerCount: 6
Back
Refer: 145 -1 S 1 0 0 1 3034 0 2
Refer: 184 -1 S 1 0 0 1 1551 0 2
Refer: 184 -1 S 1 0 0 1 775 0 2
Fore
SplineSet
132 848 m 1
 132 2680 2415 2980 2415 1578 c 3
 2415 872 1918 0 905 0 c 3
 647 0 596 84 438 84 c 3
 290.997070312 84 295.930664062 19 411 19 c 3
 879 19 1177 615 1496 962 c 0
 1777 1267 2128 1558 2545 1638 c 1
 2549 1619 l 1
 2123 1537 1833 1241 1546 930 c 0
 1229 585 927 0 411 0 c 3
 257 0 265 103 438 103 c 3
 623.010742188 103 657.926757812 19 905 19 c 3
 1893.00097656 19 2396 883 2396 1578 c 3
 2396 2932 194 2664.01367188 194 848 c 1
 132 848 l 1
4065 1901 m 2
 4395.015625 2322.63964844 4655.91796875 2468.76464844 4698 2431.76953125 c 0
 4733 2401 4635 2188 4275 1797 c 0
 3904.43164062 1394.52246094 3616 1187 3267 882 c 1
 4065 1901 l 2
3193 817 m 1
 3203 804 l 1
 3205 804 l 5
 3600 1147 3901.13574219 1360.875 4289 1784 c 0
 5103 2672 4623.20996094 2644.26855469 4051 1914 c 2
 4051 1914 3479 1184 3193 819 c 1
 3193 817 l 1
194 848 m 7
 194 -572.000352113 1786.80606174 -403.385741327 3193 819 c 5
 3205 804 l 21
 1767.51570267 -445.585877071 132 -608.041551605 132 848 c 7
 194 848 l 7
EndSplineSet
Comment: "It is final part of 'D' before glyphs like 'l'."
Colour: ff4f4c
EndChar

StartChar: D.P03
Encoding: 216 -1 199
Width: 3332
VWidth: 0
Flags: HW
AnchorPoint: "Cursive 1" 163 848 entry 0
AnchorPoint: "Cursive 1" 3495 811 exit 0
LayerCount: 6
Back
Refer: 205 -1 N 1 0 0 1 0 0 2
Refer: 166 -1 S 1 0 0 1 1813 0 2
Refer: 184 -1 S 1 0 0 1 1551 0 2
Refer: 184 -1 S 1 0 0 1 775 0 2
Fore
SplineSet
132 848 m 1
 132 2680 2415 2980 2415 1578 c 3
 2415 872 1918 0 905 0 c 3
 647 0 596 84 438 84 c 3
 290.997070312 84 295.930664062 19 411 19 c 3
 879 19 1177 615 1496 962 c 0
 1777 1267 2128 1558 2545 1638 c 1
 2549 1619 l 1
 2123 1537 1833 1241 1546 930 c 0
 1229 585 927 0 411 0 c 3
 257 0 265 103 438 103 c 3
 623.010742188 103 657.926757812 19 905 19 c 3
 1893.00097656 19 2396 883 2396 1578 c 3
 2396 2932 194 2664.01367188 194 848 c 1
 132 848 l 1
3211 711 m 0
 3459 917.977539062 3651 802 3496 666 c 0
 3359 546 3213 644 3489 819 c 5
 3500 803 l 1
 3365 717 3342 658 3356 640 c 0
 3370 622 3431 635 3482 679 c 0
 3618 797 3447.68457031 883.694335938 3224 696 c 0
 3049.34179688 549.444335938 2857.37402344 325.91015625 2709 136 c 9
 2704 137 l 25
 2694 145 l 25
 2694 148 l 17
 2846.21582031 342.828125 3034.68652344 563.8515625 3211 711 c 0
194 848 m 7
 194 -572.000352113 2082.80566406 -403.385742188 3489 819 c 5
 3500 803 l 21
 2062.515625 -446.5859375 132 -608.041551605 132 848 c 7
 194 848 l 7
EndSplineSet
Comment: "It is final part of 'D' before 'c'."
Colour: ff5952
EndChar

StartChar: D.P04
Encoding: 217 -1 200
Width: 3332
VWidth: 0
Flags: HW
AnchorPoint: "Cursive 1" 163 848 entry 0
AnchorPoint: "Cursive 1" 3047 418 exit 0
LayerCount: 6
Back
Refer: 143 -1 S 1 0 0 1 2624 0 2
Refer: 205 -1 S 1 0 0 1 0 0 2
Refer: 184 -1 S 1 0 0 1 1551 0 2
Refer: 184 -1 S 1 0 0 1 775 0 2
Refer: 184 -1 S 1 0 0 1 1551 0 2
Refer: 184 -1 S 1 0 0 1 775 0 2
Fore
SplineSet
132 848 m 1
 132 2680 2415 2980 2415 1578 c 3
 2415 872 1918 0 905 0 c 3
 647 0 596 84 438 84 c 3
 290.997070312 84 295.930664062 19 411 19 c 3
 879 19 1177 615 1496 962 c 0
 1777 1267 2128 1558 2545 1638 c 1
 2549 1619 l 1
 2123 1537 1833 1241 1546 930 c 0
 1229 585 927 0 411 0 c 3
 257 0 265 103 438 103 c 3
 623.010742188 103 657.926757812 19 905 19 c 3
 1893.00097656 19 2396 883 2396 1578 c 3
 2396 2932 194 2664.01367188 194 848 c 1
 132 848 l 1
3341 607 m 0
 3246.03320312 535.956054688 3149.890625 471.168945312 3052 410 c 13
NamedP: "32 degree"
 3050 410 l 25
 3041 425 l 25
 3042 427 l 1
 3141.78125 489.350585938 3223.14355469 542.80859375 3329 622 c 0
 3438.70019531 704.06640625 3467.32910156 780.853515625 3454 797.081054688 c 0
 3438.13183594 816.399414062 3235.37597656 768.772460938 2741 136 c 9
 2737 136 l 25
 2726 144 l 25
 2726 148 l 17
 3470.95019531 1101.49316406 3630.06445312 823.247070312 3341 607 c 0
194 848 m 7
 194 -792.390271572 2308.20898438 -31.5234375 3042 427 c 1
 3052 410 l 17
 2267.22460938 -80.3818359375 132 -827.544687557 132 848 c 7
 132 872 194 848 194 848 c 7
EndSplineSet
Comment: "It is final part of 'D' before 'e'."
Colour: ff424c
EndChar

StartChar: D.P05
Encoding: 218 -1 201
Width: 3332
VWidth: 0
Flags: HW
AnchorPoint: "Cursive 1" 163 848 entry 0
AnchorPoint: "Cursive 1" 3221 814 exit 0
LayerCount: 6
Back
Refer: 205 -1 S 1 0 0 1 0 0 2
Refer: 142 -1 S 1 0 0 1 3111 671 2
Refer: 184 -1 S 1 0 0 1 1551 0 2
Refer: 184 -1 S 1 0 0 1 775 2 2
Fore
SplineSet
132 848 m 1
 132 2680 2415 2980 2415 1578 c 3
 2415 872 1918 0 905 0 c 3
 647 0 596 84 438 84 c 3
 290.997070312 84 295.930664062 19 411 19 c 3
 879 19 1177 615 1496 962 c 0
 1777 1267 2128 1558 2545 1638 c 1
 2549 1619 l 1
 2123 1537 1833 1241 1546 930 c 0
 1229 585 927 0 411 0 c 3
 257 0 265 103 438 103 c 3
 623.010742188 103 657.926757812 19 905 19 c 3
 1893.00097656 19 2396 883 2396 1578 c 3
 2396 2932 194 2664.01367188 194 848 c 1
 132 848 l 1
2688 146 m 25
 2701 136 l 25
 2703 136 l 1
 3228 807 l 1
 3213 819 l 1
 2688 148 l 1
 2688 146 l 25
194 848 m 3
 194 -572.000352113 1888 -492 3213 819 c 1
 3228 807 l 17
 1892 -536 132 -608.041551605 132 848 c 3
 194 848 l 3
EndSplineSet
Comment: "It is final part of 'D' before glyphs like 'i'."
Colour: ff3336
EndChar

StartChar: D.P06
Encoding: 219 -1 202
Width: 3332
VWidth: 0
Flags: HW
AnchorPoint: "Cursive 1" 163 848 entry 0
AnchorPoint: "Cursive 1" 2560 418 exit 0
LayerCount: 6
Back
Refer: 141 -1 S 1 0 0 1 0 0 2
Refer: 166 -1 S 1 0 0 1 878 -393 2
Refer: 205 -1 S 1 0 0 1 0 0 2
Refer: 184 -1 S 1 0 0 1 1551 0 2
Refer: 184 -1 S 1 0 0 1 775 0 2
Fore
SplineSet
132 848 m 1
 132 2680 2415 2980 2415 1578 c 3
 2415 872 1918 0 905 0 c 3
 647 0 596 84 438 84 c 3
 290.997070312 84 295.930664062 19 411 19 c 3
 879 19 1177 615 1496 962 c 0
 1777 1267 2128 1558 2545 1638 c 1
 2549 1619 l 1
 2123 1537 1833 1241 1546 930 c 0
 1229 585 927 0 411 0 c 3
 257 0 265 103 438 103 c 3
 623.010742188 103 657.926757812 19 905 19 c 3
 1893.00097656 19 2396 883 2396 1578 c 3
 2396 2932 194 2664.01367188 194 848 c 1
 132 848 l 1
2711 136 m 25
 2698 146 l 25
 2698 148 l 1
 3091 650 l 1
 3228.40234375 820.91796875 3202.00195312 835.75 3068 738.392578125 c 0
 2947.25390625 650.666015625 2806.6328125 540.1875 2640 410 c 5
NamedP: "38 degree"
 2638 411 l 25
 2629 424 l 25
 2629 426 l 1
 2795.12011719 555.787109375 2940.4453125 672.20703125 3057 756.889648438 c 0
 3195.58203125 857.575195312 3274.07519531 848.856445312 3109 643 c 1
 2713 136 l 1
 2711 136 l 25
194 848 m 3
 194 -608.005494495 1560.32631981 -350.342963771 2554 426 c 5
 2565 410 l 21
 1563.77717679 -372.241000705 132 -632.001351351 132 848 c 3
 194 848 l 3
EndSplineSet
Comment: "It is final part of 'D' before glyphs like 's'."
Colour: ff382e
EndChar

StartChar: D.P07
Encoding: 220 -1 203
Width: 3332
VWidth: 0
Flags: HW
AnchorPoint: "Cursive 1" 163 848 entry 0
AnchorPoint: "Cursive 1" 3090 812 exit 0
LayerCount: 6
Back
Refer: 145 -1 S 1 0 0 1 2925 0 2
Refer: 205 -1 S 1 0 0 1 0 0 2
Refer: 184 -1 S 1 0 0 1 1551 0 2
Refer: 184 -1 S 1 0 0 1 775 0 2
Fore
SplineSet
132 848 m 1
 132 2680 2415 2980 2415 1578 c 3
 2415 872 1918 0 905 0 c 3
 647 0 596 84 438 84 c 3
 290.997070312 84 295.930664062 19 411 19 c 3
 879 19 1177 615 1496 962 c 0
 1777 1267 2128 1558 2545 1638 c 1
 2549 1619 l 1
 2123 1537 1833 1241 1546 930 c 0
 1229 585 927 0 411 0 c 3
 257 0 265 103 438 103 c 3
 623.010742188 103 657.926757812 19 905 19 c 3
 1893.00097656 19 2396 883 2396 1578 c 3
 2396 2932 194 2664.01367188 194 848 c 1
 132 848 l 1
2762 136 m 1
 3279 798 l 1
 3237 826 3198 889 3246 935 c 1
 3228 949 l 1
 3228 949 3138 865 3084 819 c 5x60
 3084 816 l 25
 3094 804 l 25
 3096 804 l 17
NamedP: "41 degree"
 3138.00292969 840.000976562 3207 903 3207 903 c 1
 3197 843 3239 807 3252 795 c 1
 2747 148 l 9xa0
 2748 145 l 25
 2760 136 l 25
 2762 136 l 1
194 848 m 3
 194 -608.005494495 1805.90687299 -292.029405005 3084 819 c 1
 3096 804 l 1
 1828.96036691 -336.847609924 132 -632.001351351 132 848 c 3
 194 848 l 3
EndSplineSet
Comment: "It is final part of 'D' before glyphs like 's'."
Colour: ff303b
EndChar

StartChar: D.P08
Encoding: 221 -1 204
Width: 3332
VWidth: 0
Flags: HW
AnchorPoint: "Cursive 1" 163 848 entry 0
AnchorPoint: "Cursive 1" 3304 819 exit 0
LayerCount: 6
Back
Refer: 205 -1 S 1 0 0 1 0 0 2
Refer: 184 -1 S 1 0 0 1 1551 0 2
Refer: 184 -1 S 1 0 0 1 775 0 2
Fore
SplineSet
132 848 m 1
 132 2680 2415 2980 2415 1578 c 3
 2415 872 1918 0 905 0 c 3
 647 0 596 84 438 84 c 3
 290.997070312 84 295.930664062 19 411 19 c 3
 879 19 1177 615 1496 962 c 0
 1777 1267 2128 1558 2545 1638 c 1
 2549 1619 l 1
 2123 1537 1833 1241 1546 930 c 0
 1229 585 927 0 411 0 c 3
 257 0 265 103 438 103 c 3
 623.010742188 103 657.926757812 19 905 19 c 3
 1893.00097656 19 2396 883 2396 1578 c 3
 2396 2932 194 2664.01367188 194 848 c 1
 132 848 l 1
2934 511 m 0
 2795 334 2679.80273438 108.032226562 2772 36 c 0
 2862.1484375 -34.431640625 3053 135 3192 312 c 0
 3331 489 3444.04492188 713.430664062 3355 783 c 0
 3265.95507812 852.569335938 3073 688 2934 511 c 0
2918 521 m 0
 3071 716 3265 878 3367 798 c 0
 3469 718 3360 494 3207 299 c 0
 3054 104 2861 -59 2759 21 c 0
 2657 101 2765 326 2918 521 c 0
  Spiro
    2918 521 o
    3079.57 697.109 o
    3239.41 805.132 o
    3367 798 o
    3404.87 676.564 o
    3339.04 497.064 o
    3207 299 o
    3045.68 122.632 o
    2886.33 14.1267 o
    2759 21 o
    2720.87 142.695 o
    2786.22 322.677 o
    0 0 z
  EndSpiro
194 848 m 1
 194 -504.002929688 1975.66610519 -568.369721014 2887 480 c 1
 2901 467 l 17
 1945.980583 -631.623886365 132 -486.594726562 132 848 c 1
 194 848 l 1
EndSplineSet
Comment: "It is final part of 'D' before 'o'."
Colour: ff303b
EndChar

StartChar: Guid.D
Encoding: 194 -1 205
Width: 4096
VWidth: 0
LayerCount: 6
Back
SplineSet
163 851 m 29
 163 845 l 1053
132 848 m 29
 194 848 l 1053
EndSplineSet
Colour: 616161
EndChar

StartChar: P105.4
Encoding: 171 -1 206
Width: 793
VWidth: 0
Flags: HW
AnchorPoint: "Cursive 1" 890 143 exit 0
AnchorPoint: "Cursive 1" 819 418 entry 0
LayerCount: 6
Back
Refer: 166 -1 S 1 0 0 1 -863 -393 2
Refer: 165 -1 N 1 0 0 1 0 0 2
Refer: 142 -1 N 1 0 0 1 780 0 2
Refer: 141 -1 N 1 0 0 1 0 0 2
Fore
SplineSet
895 136 m 25
 882 146 l 25
 882 148 l 1
 1275 650 l 1
 1412.40217921 820.917894718 1386.00195312 835.75 1252 738.392578125 c 0
 1131.25390625 650.666015625 990.632753958 540.187775572 824 410 c 5
NamedP: "38 degree"
 822 411 l 25
 813 424 l 25
 813 426 l 1
 979.120546968 555.787595613 1124.44492162 672.20742714 1241 756.889648438 c 0
 1379.58198221 857.575352128 1458.07534147 848.856418558 1293 643 c 1
 897 136 l 1
 895 136 l 25
EndSplineSet
Comment: "It is initial part 'm' after 'D'."
Colour: 5e8fff
EndChar

StartChar: L_Q.P00
Encoding: 222 -1 207
Width: 5593
VWidth: 0
Flags: HW
AnchorPoint: "Cursive 1" 646 114 entry 0
LayerCount: 6
Back
Refer: 240 -1 S 1 0 0 1 0 0 2
Fore
SplineSet
646 124 m 7
 933.006968557 124 1805.71975362 -375.757769671 2965 819 c 13
 2978 805 l 21
 1806.29641687 -398.288636241 933.141080307 105 646 105 c 7
 646 124 l 7
EndSplineSet
Refer: 13 76 N 1 0 0 1 0 0 2
Substitution2: "* +- [b, f, h, k, l]" L_Q.P02
Substitution2: "* +- [t]" L_Q.P05
Substitution2: "* +- [m, n, v, x, y, z] - 1" L_Q.P06
Substitution2: "* +- [c]" L_Q.P03
Substitution2: "* +- [e]" L_Q.P04
Substitution2: "* +- [a, d, g, q]" L_Q.P01
Substitution2: "* +- [o]" L_Q.P08
Substitution2: "* +- [i, j, u, w]" L_Q.P05
Substitution2: "* +- [p, r, s]" L_Q.P07
Comment: "It is default final part of 'L' and 'Q."
Colour: ff384a
EndChar

StartChar: L_Q.P01
Encoding: 223 -1 208
Width: 4430
VWidth: 0
Flags: HW
AnchorPoint: "Cursive 1" 2941 819 exit 0
AnchorPoint: "Cursive 1" 646 114 entry 0
LayerCount: 6
Back
Refer: 184 -1 N 1 0 0 1 -1 0 2
Refer: 240 -1 N 1 0 0 1 0 0 2
Refer: 162 -1 S 1 0 0 1 2029 0 2
Refer: 184 -1 N 1 0 0 1 1551 0 2
Refer: 184 -1 N 1 0 0 1 775 0 2
Fore
SplineSet
646 124 m 3
 935.006968557 124 1691.9934707 -267.797581505 2406 469 c 9
 2419 455 l 17
 1694.64545813 -289.870121349 933.141080307 105 646 105 c 3
 646 124 l 3
EndSplineSet
Refer: 13 76 N 1 0 0 1 0 0 2
Refer: 53 -1 N 1 0 0 1 2031 0 2
Comment: "It is final part of 'L' and 'Q' before 'a'."
Colour: ff384a
EndChar

StartChar: L_Q.P02
Encoding: 224 -1 209
Width: 4430
VWidth: 0
Flags: HW
AnchorPoint: "Cursive 1" 646 114 entry 0
AnchorPoint: "Cursive 1" 2876 812 exit 0
LayerCount: 6
Back
Refer: 184 -1 N 1 0 0 1 -1 0 2
Refer: 240 -1 N 1 0 0 1 0 0 2
Refer: 145 -1 S 1 0 0 1 2711 0 2
Refer: 184 -1 N 1 0 0 1 1551 0 2
Refer: 184 -1 N 1 0 0 1 775 0 2
Fore
SplineSet
646 124 m 3
 941.006968557 124 1493.40972567 -377.651668879 2870 819 c 13
 2882 804 l 17
 1497.86262987 -399.212259169 933.141080307 105 646 105 c 3
 646 124 l 3
EndSplineSet
Refer: 13 76 N 1 0 0 1 0 0 2
Refer: 63 -1 N 1 0 0 1 2244 0 2
Comment: "It is final part of 'L' and 'Q' before 'l'."
Colour: ff3030
EndChar

StartChar: L_Q.P03
Encoding: 225 -1 210
Width: 4430
VWidth: 0
Flags: HW
AnchorPoint: "Cursive 1" 646 114 entry 0
AnchorPoint: "Cursive 1" 3142 811 exit 0
LayerCount: 6
Back
Refer: 184 -1 N 1 0 0 1 -1 0 2
Refer: 240 -1 N 1 0 0 1 0 0 2
Refer: 166 -1 N 1 0 0 1 2839 0 2
Refer: 166 -1 S 1 0 0 1 1460 0 2
Refer: 184 -1 N 1 0 0 1 1551 0 2
Refer: 184 -1 N 1 0 0 1 775 0 2
Fore
SplineSet
646 124 m 3
 938 124 1257.76725017 -377.566227788 3136 819 c 9
 3147 803 l 17
 1260.33333572 -398.939223872 933.141080307 105 646 105 c 3
 646 124 l 3
EndSplineSet
Refer: 13 76 N 1 0 0 1 0 0 2
Refer: 65 -1 N 1 0 0 1 2239 0 2
Comment: "It is final part of 'L' and 'Q' before 'c'."
Colour: ff3030
EndChar

StartChar: L_Q.P04
Encoding: 226 -1 211
Width: 4430
VWidth: 0
Flags: HW
AnchorPoint: "Cursive 1" 646 114 entry 0
AnchorPoint: "Cursive 1" 2662 418 exit 0
LayerCount: 6
Back
Refer: 184 -1 N 1 0 0 1 -1 0 2
Refer: 240 -1 N 1 0 0 1 0 0 2
Refer: 143 -1 S 1 0 0 1 2239 0 2
Refer: 184 -1 N 1 0 0 1 1551 0 2
Refer: 184 -1 N 1 0 0 1 775 0 2
Refer: 184 -1 N 1 0 0 1 1551 0 2
Refer: 184 -1 N 1 0 0 1 775 0 2
Fore
SplineSet
646 124 m 7
 939.006968557 124 1566.41014834 -254.476173804 2657 427 c 13
 2667 410 l 17
 1571.32185977 -274.655689389 933.141080307 105 646 105 c 3
 646 124 l 7
EndSplineSet
Refer: 13 76 N 1 0 0 1 0 0 2
Refer: 67 -1 N 1 0 0 1 2239 0 2
Comment: "It is final part of 'L' and 'Q' before 'e'."
Colour: ff3030
EndChar

StartChar: L_Q.P05
Encoding: 227 -1 212
Width: 4430
VWidth: 0
Flags: HW
AnchorPoint: "Cursive 1" 646 114 entry 0
AnchorPoint: "Cursive 1" 2874 814 exit 0
LayerCount: 6
Back
Refer: 184 -1 N 1 0 0 1 -1 0 2
Refer: 240 -1 N 1 0 0 1 0 0 2
Refer: 142 -1 S 1 0 0 1 2764 671 2
Refer: 184 -1 N 1 0 0 1 1551 0 2
Refer: 184 -1 N 1 0 0 1 775 2 2
Fore
SplineSet
646 124 m 3
 938.006835938 124 1710.08886719 -377.981445312 2866 819 c 9
 2879 805 l 17
 1715.44722948 -399.894165567 933.141080307 105 646 105 c 3
 646 124 l 3
EndSplineSet
Refer: 13 76 N 1 0 0 1 0 0 2
Refer: 55 -1 N 1 0 0 1 2239 0 2
Comment: "It is final part of 'L' and 'Q' before glyphs like 'i'."
Colour: ff3030
EndChar

StartChar: L_Q.P06
Encoding: 228 -1 213
Width: 4430
VWidth: 0
Flags: HW
AnchorPoint: "Cursive 1" 646 114 entry 0
AnchorPoint: "Cursive 1" 2277 418 exit 0
LayerCount: 6
Back
Refer: 184 -1 N 1 0 0 1 -1 0 2
Refer: 240 -1 N 1 0 0 1 0 0 2
Refer: 141 -1 N 1 0 0 1 0 0 2
Refer: 166 -1 S 1 0 0 1 595 -393 2
Refer: 184 -1 N 1 0 0 1 1551 0 2
Refer: 184 -1 N 1 0 0 1 775 0 2
Fore
SplineSet
646 124 m 3
 936.006968557 124 1401.03612802 -253.69026876 2271 426 c 13
 2282 410 l 17
 1405.69231934 -274.646595294 933.141080307 105 646 105 c 3
 646 124 l 3
EndSplineSet
Refer: 13 76 N 1 0 0 1 0 0 2
Refer: 206 -1 N 1 0 0 1 1458 0 2
Comment: "It is final part of 'L' and 'Q' before glyphs like 'm'."
Colour: ff3030
EndChar

StartChar: L_Q.P07
Encoding: 229 -1 214
Width: 4430
VWidth: 0
Flags: HW
AnchorPoint: "Cursive 1" 646 114 entry 0
AnchorPoint: "Cursive 1" 2684 812 exit 0
LayerCount: 6
Back
Refer: 184 -1 N 1 0 0 1 -1 0 2
Refer: 240 -1 N 1 0 0 1 0 0 2
Refer: 145 -1 S 1 0 0 1 2519 0 2
Refer: 184 -1 N 1 0 0 1 1551 0 2
Refer: 184 -1 N 1 0 0 1 775 0 2
Fore
SplineSet
646 124 m 3
 937.006968557 124 1300.65501609 -378.307727908 2678 819 c 9
 2690 804 l 17
 1305.10792029 -399.868318198 934.141080307 105 646 105 c 3
 646 124 l 3
EndSplineSet
Refer: 13 76 N 1 0 0 1 0 0 2
Refer: 72 -1 N 1 0 0 1 2238 0 2
Comment: "It is final part of 'L' and 'Q' before glyphs like 'r'."
Colour: ff3030
EndChar

StartChar: L_Q.P08
Encoding: 230 -1 215
Width: 4430
VWidth: 0
Flags: HW
AnchorPoint: "Cursive 1" 646 114 entry 0
AnchorPoint: "Cursive 1" 2882 819 exit 0
LayerCount: 6
Back
Refer: 184 -1 S 1 0 0 1 -1 0 2
Refer: 240 -1 N 1 0 0 1 0 0 2
Refer: 184 -1 N 1 0 0 1 1551 0 2
Refer: 184 -1 N 1 0 0 1 775 0 2
Fore
SplineSet
646 124 m 3
 934.001736106 124 1663.42998621 -325.624880874 2605 646 c 9
 2618 632 l 17
 1663.01678719 -348.016358381 933.141080307 105 646 105 c 3
 646 124 l 3
EndSplineSet
Refer: 13 76 N 1 0 0 1 0 0 2
Refer: 70 -1 N 1 0 0 1 2322 0 2
Comment: "It is final part of 'L' and 'Q' before 'o'."
Colour: ff3030
EndChar

StartChar: K_R_X.P00
Encoding: 231 -1 216
Width: 5062
VWidth: 0
Flags: HW
AnchorPoint: "Cursive 1" 1941 276 entry 0
LayerCount: 6
Back
Refer: 184 -1 N 1 0 0 1 1551 0 2
Refer: 184 -1 N 1 0 0 1 775 0 2
Refer: 229 -1 S 1 0 0 1 0 0 2
Fore
SplineSet
1931 277 m 5
 1836.12402344 -133.952148438 2171.65625 -170.618164062 3183 740 c 261
 3171 755 l 261
 2584.00390625 226.465820312 2226 19 2053 19 c 7
 1941 19 1913.51171875 114.950195312 1950 273 c 5
 1931 277 l 5
EndSplineSet
Refer: 10 82 N 1 0 0 1 0 0 2
Substitution2: "* +- [t]" K_R_X.P05
Substitution2: "* +- [o]" K_R_X.P08
Substitution2: "* +- [p, r, s]" K_R_X.P07
Substitution2: "* +- [i, j, u, w]" K_R_X.P05
Substitution2: "* +- [m, n, v, x, y, z] - 1" K_R_X.P06
Substitution2: "* +- [e]" K_R_X.P04
Substitution2: "* +- [c]" K_R_X.P03
Substitution2: "* +- [b, f, h, k, l]" K_R_X.P02
Substitution2: "* +- [a, d, g, q]" K_R_X.P01
Comment: "It is default final part of 'K', 'R' and 'X'."
Colour: ff3d30
EndChar

StartChar: K_R_X.P01
Encoding: 232 -1 217
Width: 4430
VWidth: 0
Flags: HW
AnchorPoint: "Cursive 1" 3390 819 exit 0
AnchorPoint: "Cursive 1" 1941 276 entry 0
LayerCount: 6
Back
Refer: 229 -1 N 1 0 0 1 0 0 2
Refer: 162 -1 S 1 0 0 1 2478 0 2
Refer: 184 -1 N 1 0 0 1 1551 0 2
Refer: 184 -1 N 1 0 0 1 775 0 2
Fore
SplineSet
1931 277 m 1
 1836.12402344 -133.952148438 2226.99066287 -119.100242388 2949 531 c 257
 2937 546 l 257
 2350.00390625 17.4658203125 2110.23105626 19 2071 19 c 3
 1948 19 1913.51171875 114.950195312 1950 273 c 1
 1931 277 l 1
EndSplineSet
Refer: 10 82 N 1 0 0 1 0 0 2
Refer: 53 -1 N 1 0 0 1 2480 0 2
Comment: "It is final part of 'K', 'R' and 'X' before glyphs like 'a'."
Colour: ff3d30
EndChar

StartChar: K_R_X.P02
Encoding: 233 -1 218
Width: 4430
VWidth: 0
Flags: HW
AnchorPoint: "Cursive 1" 1941 276 entry 0
AnchorPoint: "Cursive 1" 3326 812 exit 0
LayerCount: 6
Back
Refer: 229 -1 N 1 0 0 1 0 0 2
Refer: 145 -1 S 1 0 0 1 3161 0 2
Refer: 184 -1 N 1 0 0 1 1551 0 2
Refer: 184 -1 N 1 0 0 1 775 0 2
Fore
SplineSet
1931 277 m 1
 1836.12402344 -133.952148438 2194.6526626 -184.680956689 3332 804 c 257
 3320 819 l 257
 2702.20902144 281.962495596 2274.00240383 19 2066 19 c 7
 1944 19 1913.51171875 114.950195312 1950 273 c 1
 1931 277 l 1
EndSplineSet
Refer: 10 82 N 1 0 0 1 0 0 2
Refer: 63 -1 N 1 0 0 1 2694 0 2
Comment: "It is final part of 'K', 'R' and 'X' before  glyphs like 'l'."
Colour: ff3d30
EndChar

StartChar: K_R_X.P03
Encoding: 234 -1 219
Width: 4430
VWidth: 0
Flags: HW
AnchorPoint: "Cursive 1" 1941 276 entry 0
AnchorPoint: "Cursive 1" 3563 811 exit 0
LayerCount: 6
Back
Refer: 229 -1 N 1 0 0 1 0 0 2
Refer: 166 -1 S 1 0 0 1 1881 0 2
Refer: 184 -1 N 1 0 0 1 1551 0 2
Refer: 184 -1 N 1 0 0 1 775 0 2
Fore
SplineSet
1931 277 m 1
 1836.12402344 -133.952148438 2017.60637154 -184.709673236 3568 803 c 257
 3557 819 l 261
 2619.70678579 221.878367573 2203 19 2030 19 c 3
 1914 19 1914.76123997 120.362524359 1950 273 c 1
 1931 277 l 1
EndSplineSet
Refer: 10 82 N 1 0 0 1 0 0 2
Refer: 65 -1 N 1 0 0 1 2660 0 2
Comment: "It is final part of 'K', 'R' and 'X' before 'c'."
Colour: ff594c
EndChar

StartChar: K_R_X.P04
Encoding: 235 -1 220
Width: 4430
VWidth: 0
Flags: HW
AnchorPoint: "Cursive 1" 1941 276 entry 0
AnchorPoint: "Cursive 1" 3082 418 exit 0
LayerCount: 6
Back
Refer: 229 -1 N 1 0 0 1 0 0 2
Refer: 143 -1 S 1 0 0 1 2659 0 2
Refer: 184 -1 N 1 0 0 1 1551 0 2
Refer: 184 -1 N 1 0 0 1 775 0 2
Fore
SplineSet
1931 277 m 1
 1836.12402344 -133.952148438 2294.50410239 -85.2063979308 3087 410 c 257
 3077 427 l 261
 2425.36677788 19.814370811 2174.00877125 20 2119 20 c 3
 1953.98780533 20 1914.52528083 119.340462096 1950 273 c 1
 1931 277 l 1
EndSplineSet
Refer: 10 82 N 1 0 0 1 0 0 2
Refer: 67 -1 N 1 0 0 1 2659 0 2
Comment: "It is final part of 'K', 'R' and 'X' before 'e'."
Colour: ff6645
EndChar

StartChar: K_R_X.P05
Encoding: 236 -1 221
Width: 4430
VWidth: 0
Flags: HW
AnchorPoint: "Cursive 1" 1941 276 entry 0
AnchorPoint: "Cursive 1" 3295 814 exit 0
LayerCount: 6
Back
Refer: 229 -1 S 1 0 0 1 0 0 2
Refer: 142 -1 N 1 0 0 1 3425 671 2
Refer: 184 -1 N 1 0 0 1 1791 0 2
Refer: 184 -1 N 1 0 0 1 1015 0 2
Fore
SplineSet
1931 277 m 1
 1835.62075296 -136.132907469 2203.86138242 -181.967644379 3300 805 c 257
 3287 819 l 257
 2602.27431922 202.469617851 2232 19 2066 19 c 7
 1946 19 1913.51171875 114.950195312 1950 273 c 1
 1931 277 l 1
EndSplineSet
Refer: 10 82 N 1 0 0 1 0 0 2
Refer: 55 -1 N 1 0 0 1 2660 0 2
Comment: "It is final part of 'K', 'R' and 'X' before glyphs like 'i'."
Colour: ff4c45
EndChar

StartChar: K_R_X.P06
Encoding: 237 -1 222
Width: 4430
VWidth: 0
Flags: HW
AnchorPoint: "Cursive 1" 1941 276 entry 0
AnchorPoint: "Cursive 1" 2699 418 exit 0
LayerCount: 6
Back
Refer: 229 -1 N 1 0 0 1 0 0 2
Refer: 166 -1 S 1 0 0 1 1017 -393 2
Refer: 141 -1 N 1 0 0 1 0 0 2
Refer: 184 -1 N 1 0 0 1 2330 0 2
Refer: 184 -1 N 1 0 0 1 1554 0 2
Refer: 184 -1 N 1 0 0 1 1551 0 2
Refer: 184 -1 N 1 0 0 1 775 0 2
Fore
SplineSet
1931 277 m 1
 1836.74550823 -131.261057145 2064.92327882 -89.3014564891 2704 410 c 257
 2693 426 l 257
 2275.90121393 100.126440293 2096.14355972 19 2009 19 c 7
 1921.94829123 19 1913.51171875 114.950195312 1950 273 c 1
 1931 277 l 1
EndSplineSet
Refer: 10 82 N 1 0 0 1 0 0 2
Refer: 206 -1 N 1 0 0 1 1880 0 2
Comment: "It is final part of 'K', 'R' and 'X' before glyphs like 'm'."
Colour: ff3d30
EndChar

StartChar: K_R_X.P07
Encoding: 238 -1 223
Width: 4430
VWidth: 0
Flags: HW
AnchorPoint: "Cursive 1" 1941 276 entry 0
AnchorPoint: "Cursive 1" 3104 812 exit 0
LayerCount: 6
Back
Refer: 229 -1 N 1 0 0 1 0 0 2
Refer: 145 -1 S 1 0 0 1 2939 0 2
Refer: 184 -1 N 1 0 0 1 1551 0 2
Refer: 184 -1 N 1 0 0 1 775 0 2
Fore
SplineSet
1931 277 m 1
 1836.12402344 -133.952148438 1972.6526626 -184.680956689 3110 804 c 257
 3098 819 l 257
 2501.86999677 300.792094181 2124.01470509 19 1985 19 c 7
 1911.9338557 19 1913.51171875 114.950195312 1950 273 c 1
 1931 277 l 1
EndSplineSet
Refer: 10 82 N 1 0 0 1 0 0 2
Refer: 72 -1 N 1 0 0 1 2658 0 2
Comment: "It is final part of 'K', 'R' and 'X' before glyphs like 'r'."
Colour: ff3d30
EndChar

StartChar: K_R_X.P08
Encoding: 239 -1 224
Width: 4430
VWidth: 0
Flags: HW
AnchorPoint: "Cursive 1" 1941 276 entry 0
AnchorPoint: "Cursive 1" 3339 819 exit 0
LayerCount: 6
Back
Refer: 229 -1 S 1 0 0 1 0 0 2
Refer: 184 -1 N 1 0 0 1 1551 0 2
Refer: 184 -1 N 1 0 0 1 775 0 2
Fore
SplineSet
1931 277 m 1
 1836.12402344 -133.952148438 2200.68016623 -151.755400993 3110 667 c 257
 3098 682 l 257
 2511.00390625 153.465820312 2201 19 2063 19 c 3
 1946 19 1913.51171875 114.950195312 1950 273 c 1
 1931 277 l 1
EndSplineSet
Refer: 10 82 N 1 0 0 1 0 0 2
Refer: 70 -1 N 1 0 0 1 2779 0 2
Comment: "It is final part of 'K', 'R' and 'X' before 'o'."
Colour: ff3d30
EndChar

StartChar: X_W
Encoding: 240 -1 225
Width: 5593
VWidth: 0
Flags: W
HStem: 0 19<907 930.69>
VStem: 778 15<13 22.7938>
AnchorPoint: "Cursive 1" 910 9 exit 0
LayerCount: 6
Back
Refer: 226 -1 S 1 0 0 1 0 0 2
Fore
SplineSet
778 0 m 1
 677 483 786.801287294 1176.9296642 1215 1724.99902344 c 0
 2308.40637385 3124.49536222 3425 2296 2381.87304688 1023 c 0
 2043.92111964 610.573878637 1422 138 912 0 c 1
 907 19 l 1
 1411 162 2004.93066323 653.216854609 2342 1056 c 0
 3373 2288 2298.48207046 3080.87365029 1229 1711.99902344 c 0
 810.891978875 1176.84516045 707 489 793 13 c 1
 778 0 l 1
EndSplineSet
EndChar

StartChar: Guid.General5
Encoding: 195 -1 226
Width: 6455
VWidth: 0
Flags: HW
LayerCount: 6
Back
SplineSet
910 10 m 29
 910 8 l 1053
909 9 m 5
 911 9 l 1037
912 0 m 29
 907 19 l 1053
EndSplineSet
Comment: "It is for glyphs like 'W'."
Colour: c4c4c4
EndChar

StartChar: P9015
Encoding: 173 -1 227
Width: 1313
VWidth: 0
Flags: HW
AnchorPoint: "Cursive 1" 110 143 entry 0
AnchorPoint: "Cursive 1" 1614 812 exit 0
LayerCount: 6
Back
Refer: 184 -1 N 1 0 0 1 -776 1 2
Refer: 145 -1 S 1 0 0 1 1449 0 2
Refer: 184 -1 N 1 0 0 1 0 0 2
Refer: 142 -1 N 1 0 0 1 0 0 2
Fore
SplineSet
117 136 m 1
 41.4429203878 38.9426575653 53.7926851446 3.5095150353 170 24 c 0
 451.655017361 73.6633788127 1044.69622229 311.79900038 1608 819 c 1
 1620 804 l 5
 1052.25964768 292.80429066 458.401790731 55.5003630291 172 5 c 0
 47.7665019575 -16.9057176127 8.99923160894 28.3652087364 102 148 c 1
 117 136 l 1
EndSplineSet
Comment: "It is final part of 'e' and 'c' before glyphs like 's'."
Colour: ff5252
EndChar

StartChar: A_M_N
Encoding: 241 -1 228
Width: 3918
VWidth: 0
Flags: HW
AnchorPoint: "Cursive 1" 3887 2450 exit 0
LayerCount: 6
Back
Refer: 166 -1 N 1 0 0 1 2205 1639 2
Fore
SplineSet
3881 2458 m 1
 3366.17240343 2110.74440141 2866.90375405 1573.88932849 2665 1352 c 0
 2348.18608939 1003.82605835 2065.74316406 619.125976562 1705 317 c 0
 968.573242188 -299.765625 365 175.990322681 365 641 c 3
 365 1313 1360.7947503 1508.47346221 1861 820 c 1
 1877 831 l 1
 1363.77530696 1537.39318864 345.888671875 1329.06054688 345.888671875 642 c 3
 345.888671875 174.999986469 922.498046875 -318.598632812 1752 268 c 0
 2135.34667969 539.090820312 2382.18272933 973.840918583 2687 1332 c 0
 2881.43597032 1560.46149226 3405.32232707 2113.73141813 3892 2442 c 1
 3881 2458 l 1
EndSplineSet
EndChar

StartChar: Guid.K_R_X
Encoding: 196 -1 229
Width: 4096
VWidth: 0
LayerCount: 6
Back
SplineSet
1943 276 m 29
 1939 276 l 1053
1941 278 m 29
 1941 274 l 1053
1931 277 m 25
 1950 273 l 1049
2000 273 m 25
 1842 273 l 1049
EndSplineSet
EndChar

StartChar: M.P00
Encoding: 242 -1 230
Width: 5062
VWidth: 0
Flags: HW
AnchorPoint: "Cursive 1" 2884 279 entry 0
LayerCount: 6
Back
Refer: 239 -1 S 1 0 0 1 0 0 2
Fore
SplineSet
2892 273 m 5
 2836.92254013 143.245635857 2806.98392817 42.9773310322 2833 22.578125 c 4
 2883.36384141 -16.912171009 3183.26592271 169.797828682 3954 819 c 5
 3966 804 l 5
 2782.52246094 -189.055664062 2698.79616199 -132.754376288 2874 280 c 5
 2892 273 l 5
EndSplineSet
Refer: 3 77 N 1 0 0 1 0 0 2
Substitution2: "* +- [t]" M.P05
Substitution2: "* +- [o]" M.P08
Substitution2: "* +- [p, r, s]" M.P07
Substitution2: "* +- [m, n, v, x, y, z] - 1" M.P06
Substitution2: "* +- [i, j, u, w]" M.P05
Substitution2: "* +- [e]" M.P04
Substitution2: "* +- [c]" M.P03
Substitution2: "* +- [b, f, h, k, l]" M.P02
Substitution2: "* +- [a, d, g, q]" M.P01
Comment: "It is default final part of 'M'."
Colour: ff4057
EndChar

StartChar: M.P01
Encoding: 243 -1 231
Width: 4430
VWidth: 0
Flags: HW
AnchorPoint: "Cursive 1" 4455 819 exit 0
AnchorPoint: "Cursive 1" 2884 279 entry 0
LayerCount: 6
Back
Refer: 162 -1 S 1 0 0 1 3543 0 2
Refer: 184 -1 N 1 0 0 1 2330 0 2
Refer: 184 -1 N 1 0 0 1 1554 0 2
Refer: 239 -1 N 1 0 0 1 0 0 2
Fore
SplineSet
2892 273 m 5
 2834.0876295 136.567004953 2828.76502901 53.5388434749 2873 31 c 4
 2978.62181746 -22.8170040172 3334.05889006 126.512169094 4134 646 c 5
 4145 630 l 5
 2955.15332031 -142.6953125 2698.79616199 -132.754376288 2874 280 c 5
 2892 273 l 5
EndSplineSet
Refer: 3 77 N 1 0 0 1 0 0 2
Refer: 53 -1 N 1 0 0 1 3545 0 2
Comment: "It is final part of 'M' before glyphs like 'a'."
Colour: ff4057
EndChar

StartChar: M.P02
Encoding: 244 -1 232
Width: 4430
VWidth: 0
Flags: HW
AnchorPoint: "Cursive 1" 2884 279 entry 0
AnchorPoint: "Cursive 1" 4278 812 exit 0
LayerCount: 6
Back
Refer: 145 -1 S 1 0 0 1 4113 0 2
Refer: 184 -1 N 1 0 0 1 2330 0 2
Refer: 184 -1 N 1 0 0 1 1554 0 2
Refer: 239 -1 N 1 0 0 1 0 0 2
Fore
SplineSet
2892 273 m 1
 2824.5093316 114.001949191 2850.99612409 19 2979 19 c 7
 3180.0218435 19 3612.08496094 245.344726562 4272 819 c 1
 4284 804 l 1
 3141.83789062 -188.866210938 2698.79616199 -132.754376288 2874 280 c 1
 2892 273 l 1
EndSplineSet
Refer: 3 77 N 1 0 0 1 0 0 2
Refer: 63 -1 N 1 0 0 1 3646 0 2
Comment: "It is final part of 'M' before glyphs like 'h'."
Colour: ff4057
EndChar

StartChar: M.P03
Encoding: 245 -1 233
Width: 4430
VWidth: 0
Flags: HW
AnchorPoint: "Cursive 1" 2884 279 entry 0
AnchorPoint: "Cursive 1" 4521 811 exit 0
LayerCount: 6
Back
Refer: 166 -1 S 1 0 0 1 2839 0 2
Refer: 184 -1 N 1 0 0 1 2330 0 2
Refer: 184 -1 N 1 0 0 1 1554 0 2
Refer: 239 -1 N 1 0 0 1 0 0 2
Fore
SplineSet
2892 273 m 1
 2817 97 2845.6 19 2948 19 c 7
 3146 19 3634.59270351 257.616730003 4515 819 c 1
 4526 803 l 1
 3230 -23 2654 -238 2874 280 c 1
 2892 273 l 1
EndSplineSet
Refer: 3 77 N 1 0 0 1 0 0 2
Refer: 65 -1 N 1 0 0 1 3618 0 2
Comment: "It is final part of 'M' before 'c'."
Colour: ff4057
EndChar

StartChar: M.P04
Encoding: 246 -1 234
Width: 4430
VWidth: 0
Flags: HW
AnchorPoint: "Cursive 1" 2884 279 entry 0
AnchorPoint: "Cursive 1" 4043 418 exit 0
LayerCount: 6
Back
Refer: 143 -1 S 1 0 0 1 3620 0 2
Refer: 184 -1 N 1 0 0 1 2330 0 2
Refer: 184 -1 N 1 0 0 1 1554 0 2
Refer: 239 -1 N 1 0 0 1 0 0 2
Fore
SplineSet
2892 273 m 5
 2816.19816107 94.4220584302 2882 19 3037 19 c 3
 3244 19 3602.41934404 154.818997806 4038 427 c 1
 4048 410 l 1
 3250.2901949 -88.4644089229 2698.56172331 -133.3066792 2874 280 c 1
 2892 273 l 5
EndSplineSet
Refer: 3 77 N 1 0 0 1 0 0 2
Refer: 67 -1 N 1 0 0 1 3620 0 2
Comment: "It is final part 'M' before 'e'."
Colour: ff5466
EndChar

StartChar: M.P05
Encoding: 247 -1 235
Width: 4550
VWidth: 0
Flags: HW
AnchorPoint: "Cursive 1" 2884 279 entry 0
AnchorPoint: "Cursive 1" 4256 814 exit 0
LayerCount: 6
Back
Refer: 142 -1 S 1 0 0 1 4146 671 2
Refer: 184 -1 N 1 0 0 1 2330 0 2
Refer: 184 -1 N 1 0 0 1 1554 0 2
Refer: 239 -1 N 1 0 0 1 0 0 2
Fore
SplineSet
2892 273 m 1
 2821.09549883 105.959463154 2845 19 2958 19 c 7
 3152 19 3604.53325297 276.997452597 4248 819 c 1
 4260 804 l 1
 3076.52246094 -189.055664062 2698.95245444 -132.386174347 2874 280 c 1
 2892 273 l 1
EndSplineSet
Refer: 3 77 N 1 0 0 1 0 0 2
Refer: 55 -1 N 1 0 0 1 3621 0 2
Comment: "It is final part of 'M' before glyphs like 'i'."
Colour: ff5466
EndChar

StartChar: M.P06
Encoding: 248 -1 236
Width: 4430
VWidth: 0
Flags: HW
AnchorPoint: "Cursive 1" 2884 279 entry 0
AnchorPoint: "Cursive 1" 3660 418 exit 0
LayerCount: 6
Back
Refer: 166 -1 S 1 0 0 1 1978 -393 2
Refer: 141 -1 N 1 0 0 1 0 0 2
Refer: 184 -1 N 1 0 0 1 2330 0 2
Refer: 184 -1 N 1 0 0 1 1554 0 2
Refer: 239 -1 N 1 0 0 1 0 0 2
Fore
SplineSet
2892 273 m 1
 2670.22328829 -249.473190988 3318.89460001 163.58062569 3654 426 c 1
 3665 410 l 1
 3027.70842732 -87.9067456255 2698.56172331 -133.3066792 2874 280 c 1
 2892 273 l 1
EndSplineSet
Refer: 206 -1 N 1 0 0 1 2841 0 2
Refer: 3 77 N 1 0 0 1 0 0 2
Comment: "It is final part of 'M' before glyphs like 'm'."
Colour: ff5466
EndChar

StartChar: M.P07
Encoding: 249 -1 237
Width: 4701
VWidth: 0
Flags: HW
AnchorPoint: "Cursive 1" 2884 279 entry 0
AnchorPoint: "Cursive 1" 4066 812 exit 0
LayerCount: 6
Back
Refer: 145 -1 S 1 0 0 1 3901 0 2
Refer: 184 -1 N 1 0 0 1 2330 0 2
Refer: 184 -1 N 1 0 0 1 1554 0 2
Refer: 239 -1 N 1 0 0 1 0 0 2
Fore
SplineSet
2892 273 m 5
 2823.35186077 111.27511878 2821 19 2900 19 c 3
 3058.01265772 19 3470.01451799 306.133444982 4060 819 c 1
 4072 804 l 1
 2929.36892919 -189.274036074 2698.79616199 -132.754376288 2874 280 c 1
 2892 273 l 5
EndSplineSet
Refer: 3 77 N 1 0 0 1 0 0 2
Refer: 72 -1 N 1 0 0 1 3620 0 2
Comment: "It is final part of 'M' before glyphs like 's'."
Colour: ff5466
EndChar

StartChar: M.P08
Encoding: 250 -1 238
Width: 4430
VWidth: 0
Flags: HW
AnchorPoint: "Cursive 1" 2884 279 entry 0
AnchorPoint: "Cursive 1" 4274 819 exit 0
LayerCount: 6
Back
Refer: 184 -1 S 1 0 0 1 2330 0 2
Refer: 184 -1 S 1 0 0 1 1554 0 2
Refer: 239 -1 N 1 0 0 1 0 0 2
Fore
SplineSet
2892 273 m 1
 2819.21349681 101.525744268 2844 19 2944 19 c 7
 3127.42506068 19 3543.80714126 271.904983609 4089 731 c 1
 4101 716 l 1
 3048.88878138 -166.826222203 2698.79616199 -132.754376288 2874 280 c 1
 2892 273 l 1
EndSplineSet
Refer: 3 77 N 1 0 0 1 0 0 2
Refer: 70 -1 N 1 0 0 1 3713.78 0 2
Comment: "It final part of 'M' before 'o'."
Colour: ff5466
EndChar

StartChar: Guid.M
Encoding: 197 -1 239
Width: 4096
VWidth: 0
LayerCount: 6
Back
SplineSet
2886 279 m 25
 2882 279 l 1049
2884 281 m 25
 2884 277 l 1049
2874 280 m 29
 2892 273 l 1049
2943 273 m 25
 2785 273 l 1049
EndSplineSet
EndChar

StartChar: Guid.L_Q
Encoding: 198 -1 240
Width: 4096
VWidth: 0
LayerCount: 6
Back
SplineSet
646 116 m 29
 646 112 l 1053
644 114 m 29
 648 114 l 1053
646 124 m 29
 646 105 l 1053
EndSplineSet
Colour: ababab
EndChar
